<svg width="851" height="315" viewBox="0 0 851 315" fill="none" xmlns="http://www.w3.org/2000/svg">
<rect width="851" height="315" fill="#05192D"/>
<mask id="mask0_7908_116493" style="mask-type:alpha" maskUnits="userSpaceOnUse" x="0" y="0" width="851" height="315">
<rect width="851" height="315" fill="#05192D"/>
</mask>
<g mask="url(#mask0_7908_116493)">
<path d="M-1.01978 187.996V187.996C17.9092 187.996 33.2542 172.651 33.2542 153.722L33.2542 -2.74617L-1.01979 -2.74616" stroke="url(#paint0_linear_7908_116493)" stroke-width="1.22872"/>
<rect x="-4" y="-3.00195" width="161.297" height="64.0612" stroke="url(#paint1_linear_7908_116493)" stroke-width="1.22872"/>
<circle cx="157.869" cy="61.63" r="44.0421" stroke="url(#paint2_linear_7908_116493)" stroke-width="1.22872"/>
<path d="M283 20.9451C283 42.6408 300.588 60.2285 322.284 60.2285L538.762 60.2286L538.763 -3.39394L283 -3.39399L283 20.9451Z" stroke="url(#paint3_linear_7908_116493)" stroke-width="1.22761"/>
<rect width="114.318" height="119.61" rx="57.1589" transform="matrix(1 9.20383e-08 8.30387e-08 -1 481.682 60.2285)" stroke="url(#paint4_linear_7908_116493)" stroke-width="1.22761"/>
<path d="M462.03 288.935C462.03 272.909 449.038 259.918 433.013 259.918L115 259.918L115 336.171L462.03 336.171L462.03 288.935Z" stroke="url(#paint5_linear_7908_116493)" stroke-width="1.20904"/>
<path d="M239.729 222.523C239.729 198.485 220.242 178.998 196.204 178.998L115 178.998L115 286.524L239.729 286.524L239.729 222.523Z" stroke="url(#paint6_linear_7908_116493)" stroke-width="1.20904"/>
</g>
<path d="M447.513 136.558C452.648 136.558 456.014 133.049 456.67 129.169H452.733C452.02 131.423 449.909 132.764 447.513 132.764C443.833 132.764 440.923 129.797 440.923 126.117C440.923 122.437 443.833 119.47 447.513 119.47C449.795 119.47 452.077 121.011 452.705 123.15H456.642C456.014 119.641 452.733 115.676 447.513 115.676C441.75 115.676 437.129 120.354 437.129 126.117C437.129 131.879 441.75 136.558 447.513 136.558ZM472.868 130.082C472.897 129.825 472.925 129.398 472.925 128.97C472.925 124.862 469.901 121.496 466.079 121.496C462.028 121.496 458.804 124.776 458.804 129.027C458.804 133.363 461.942 136.558 466.193 136.558C470.9 136.558 472.497 132.849 472.668 131.566H468.874C468.589 132.364 467.676 133.22 466.193 133.22C463.996 133.22 462.969 131.822 462.741 130.082H472.868ZM466.079 124.833C467.79 124.833 468.76 125.974 469.074 127.543H462.855C463.197 125.974 464.281 124.833 466.079 124.833ZM483.52 121.496C481.837 121.496 480.411 122.18 479.527 123.635V121.667H475.732V136.387H479.527V129.084C479.527 126.374 480.924 125.204 483.121 125.204C484.062 125.204 484.804 125.347 485.146 125.404V121.61C484.804 121.581 484.262 121.496 483.52 121.496ZM494.078 133.078C493.023 133.078 492.281 132.65 492.281 131.509V124.976H495.762V121.667H492.281V117.473H488.487V121.667H486.091V124.976H488.487V131.594C488.487 135.046 490.313 136.558 493.223 136.558C494.05 136.558 494.963 136.387 495.762 136.159V132.792C495.248 132.935 494.649 133.078 494.078 133.078ZM500.515 120.041C501.884 120.041 503.111 118.9 503.111 117.473C503.111 116.075 501.941 114.963 500.515 114.963C499.089 114.963 497.976 116.075 497.976 117.473C497.976 118.9 499.089 120.041 500.515 120.041ZM502.398 121.667H498.604V136.387H502.398V121.667ZM511.313 121.667V120.754C511.313 119.556 512.112 119.156 513.111 119.156C513.767 119.156 514.394 119.327 514.565 119.385V116.047C514.252 115.933 513.196 115.676 511.912 115.676C509.088 115.676 507.519 117.787 507.519 120.725V121.667H505.151V124.976H507.519V136.387H511.313V124.976H514.794V121.667H511.313ZM519.208 120.041C520.577 120.041 521.804 118.9 521.804 117.473C521.804 116.075 520.634 114.963 519.208 114.963C517.782 114.963 516.669 116.075 516.669 117.473C516.669 118.9 517.782 120.041 519.208 120.041ZM521.091 121.667H517.297V136.387H521.091V121.667ZM538.057 130.082C538.086 129.825 538.114 129.398 538.114 128.97C538.114 124.862 535.09 121.496 531.268 121.496C527.217 121.496 523.993 124.776 523.993 129.027C523.993 133.363 527.131 136.558 531.382 136.558C536.089 136.558 537.686 132.849 537.857 131.566H534.063C533.778 132.364 532.865 133.22 531.382 133.22C529.185 133.22 528.158 131.822 527.93 130.082H538.057ZM531.268 124.833C532.979 124.833 533.949 125.974 534.263 127.543H528.044C528.386 125.974 529.47 124.833 531.268 124.833ZM551.042 115.847V123.664C550.1 122.408 548.531 121.496 546.791 121.496C543.34 121.496 540.43 124.605 540.43 129.027C540.43 133.448 543.34 136.558 546.791 136.558C548.531 136.558 550.043 135.93 551.042 134.39V136.387H554.836V115.847H551.042ZM547.647 132.792C545.736 132.792 544.195 131.109 544.195 129.027C544.195 126.944 545.736 125.261 547.647 125.261C549.587 125.261 551.042 126.944 551.042 129.027C551.042 131.109 549.587 132.792 547.647 132.792ZM577.006 123.55C575.922 122.294 574.41 121.496 572.698 121.496C569.19 121.496 566.394 124.862 566.394 129.027C566.394 133.192 569.19 136.558 572.698 136.558C574.41 136.558 575.893 135.759 577.006 134.504V136.387H580.8V121.667H577.006V123.55ZM573.611 132.792C571.7 132.792 570.16 131.109 570.16 129.027C570.16 126.944 571.7 125.29 573.611 125.29C575.523 125.29 577.006 126.944 577.006 129.027C577.006 131.109 575.523 132.792 573.611 132.792ZM583.66 131.423C583.689 133.819 585.686 136.558 589.451 136.558C592.675 136.558 595.1 134.789 595.157 131.765C595.214 129.683 593.759 128.057 590.878 127.401L588.881 126.944C588.139 126.773 587.768 126.402 587.768 125.803C587.768 125.061 588.424 124.519 589.48 124.519C590.535 124.519 591.305 125.261 591.334 126.317H594.7C594.7 123.949 592.675 121.496 589.508 121.496C586.313 121.496 584.031 123.293 584.031 125.86C584.031 127.971 585.144 129.54 587.911 130.225L589.708 130.653C590.849 130.938 591.42 131.28 591.42 132.022C591.42 132.821 590.621 133.306 589.622 133.306C588.453 133.306 587.483 132.621 587.454 131.423H583.66ZM616.259 123.55C615.175 122.294 613.663 121.496 611.951 121.496C608.442 121.496 605.647 124.862 605.647 129.027C605.647 133.192 608.442 136.558 611.951 136.558C613.663 136.558 615.146 135.759 616.259 134.504V136.387H620.053V121.667H616.259V123.55ZM612.864 132.792C610.953 132.792 609.412 131.109 609.412 129.027C609.412 126.944 610.953 125.29 612.864 125.29C614.775 125.29 616.259 126.944 616.259 129.027C616.259 131.109 614.775 132.792 612.864 132.792ZM259.555 151.847V172.387H267.571C273.191 172.387 277.841 167.908 277.841 162.117C277.841 156.326 273.162 151.847 267.571 151.847H259.555ZM263.349 168.593V155.641H267.571C271.137 155.641 274.047 158.551 274.047 162.117C274.047 165.683 271.137 168.593 267.571 168.593H263.349ZM290.453 159.55C289.369 158.294 287.857 157.496 286.145 157.496C282.637 157.496 279.841 160.862 279.841 165.027C279.841 169.192 282.637 172.558 286.145 172.558C287.857 172.558 289.341 171.759 290.453 170.504V172.387H294.247V157.667H290.453V159.55ZM287.058 168.792C285.147 168.792 283.607 167.109 283.607 165.027C283.607 162.944 285.147 161.29 287.058 161.29C288.97 161.29 290.453 162.944 290.453 165.027C290.453 167.109 288.97 168.792 287.058 168.792ZM304.724 169.078C303.668 169.078 302.927 168.65 302.927 167.509V160.976H306.407V157.667H302.927V153.473H299.133V157.667H296.736V160.976H299.133V167.594C299.133 171.046 300.958 172.558 303.868 172.558C304.695 172.558 305.608 172.387 306.407 172.159V168.792C305.894 168.935 305.295 169.078 304.724 169.078ZM318.729 159.55C317.645 158.294 316.134 157.496 314.422 157.496C310.913 157.496 308.117 160.862 308.117 165.027C308.117 169.192 310.913 172.558 314.422 172.558C316.134 172.558 317.617 171.759 318.729 170.504V172.387H322.524V157.667H318.729V159.55ZM315.335 168.792C313.423 168.792 311.883 167.109 311.883 165.027C311.883 162.944 313.423 161.29 315.335 161.29C317.246 161.29 318.729 162.944 318.729 165.027C318.729 167.109 317.246 168.792 315.335 168.792ZM333.998 165.198C334.026 169.762 337.478 172.558 341.615 172.558C345.694 172.558 348.575 170.019 348.575 166.367C348.575 163.201 346.664 161.261 342.813 160.291L340.474 159.692C338.933 159.293 338.477 158.437 338.477 157.61C338.477 156.497 339.475 155.299 341.244 155.299C342.984 155.299 344.182 156.554 344.182 158.266H347.919C347.919 154.728 345.409 151.676 341.415 151.676C337.764 151.676 334.569 154.101 334.569 157.581C334.569 160.348 336.537 162.516 339.875 163.344L342.271 163.943C343.783 164.314 344.667 165.226 344.667 166.425C344.667 167.651 343.669 168.906 341.615 168.906C339.361 168.906 337.849 167.566 337.821 165.198H333.998ZM364.638 163.144C364.467 160.833 362.271 157.496 357.849 157.496C353.798 157.496 350.546 160.862 350.546 165.027C350.546 169.192 353.798 172.558 357.849 172.558C361.843 172.558 364.467 169.078 364.581 166.91H360.816C360.559 168.051 359.304 168.963 357.849 168.963C355.738 168.963 354.312 167.081 354.312 165.027C354.312 162.973 355.624 161.09 357.849 161.09C359.19 161.09 360.416 161.889 360.787 163.144H364.638ZM369.468 156.041C370.838 156.041 372.064 154.9 372.064 153.473C372.064 152.075 370.895 150.963 369.468 150.963C368.042 150.963 366.929 152.075 366.929 153.473C366.929 154.9 368.042 156.041 369.468 156.041ZM371.351 157.667H367.557V172.387H371.351V157.667ZM388.317 166.082C388.346 165.825 388.374 165.398 388.374 164.97C388.374 160.862 385.351 157.496 381.528 157.496C377.477 157.496 374.254 160.776 374.254 165.027C374.254 169.363 377.392 172.558 381.642 172.558C386.349 172.558 387.947 168.849 388.118 167.566H384.324C384.038 168.364 383.126 169.22 381.642 169.22C379.445 169.22 378.419 167.822 378.19 166.082H388.317ZM381.528 160.833C383.24 160.833 384.21 161.974 384.523 163.543H378.304C378.647 161.974 379.731 160.833 381.528 160.833ZM398.941 157.496C397.258 157.496 395.718 158.294 394.862 159.607V157.667H391.182V172.387H394.976V164.199C394.976 162.459 396.203 161.29 397.772 161.29C399.312 161.29 400.539 162.431 400.539 164.171V172.387H404.333V163.714C404.333 159.492 402.222 157.496 398.941 157.496ZM414.069 169.078C413.013 169.078 412.272 168.65 412.272 167.509V160.976H415.752V157.667H412.272V153.473H408.477V157.667H406.081V160.976H408.477V167.594C408.477 171.046 410.303 172.558 413.213 172.558C414.04 172.558 414.953 172.387 415.752 172.159V168.792C415.238 168.935 414.639 169.078 414.069 169.078ZM420.505 156.041C421.874 156.041 423.101 154.9 423.101 153.473C423.101 152.075 421.932 150.963 420.505 150.963C419.079 150.963 417.966 152.075 417.966 153.473C417.966 154.9 419.079 156.041 420.505 156.041ZM422.388 157.667H418.594V172.387H422.388V157.667ZM425.284 167.423C425.313 169.819 427.31 172.558 431.075 172.558C434.299 172.558 436.724 170.789 436.781 167.765C436.838 165.683 435.383 164.057 432.502 163.401L430.505 162.944C429.763 162.773 429.392 162.402 429.392 161.803C429.392 161.061 430.048 160.519 431.104 160.519C432.159 160.519 432.93 161.261 432.958 162.317H436.324C436.324 159.949 434.299 157.496 431.132 157.496C427.937 157.496 425.655 159.293 425.655 161.86C425.655 163.971 426.768 165.54 429.535 166.225L431.332 166.653C432.473 166.938 433.044 167.28 433.044 168.022C433.044 168.821 432.245 169.306 431.247 169.306C430.077 169.306 429.107 168.621 429.079 167.423H425.284ZM445.8 169.078C444.744 169.078 444.002 168.65 444.002 167.509V160.976H447.483V157.667H444.002V153.473H440.208V157.667H437.812V160.976H440.208V167.594C440.208 171.046 442.034 172.558 444.944 172.558C445.771 172.558 446.684 172.387 447.483 172.159V168.792C446.969 168.935 446.37 169.078 445.8 169.078ZM467.24 151.847H458.938V172.387H462.733V165.084H467.268C471.062 165.084 473.83 161.803 473.83 158.465C473.83 155.156 471.062 151.876 467.24 151.847ZM462.733 161.318V155.641H467.183C468.894 155.641 470.007 157.068 470.007 158.465C470.007 159.892 468.894 161.318 467.183 161.318H462.733ZM484.217 157.496C482.534 157.496 481.107 158.18 480.223 159.635V157.667H476.429V172.387H480.223V165.084C480.223 162.374 481.621 161.204 483.817 161.204C484.759 161.204 485.501 161.347 485.843 161.404V157.61C485.501 157.581 484.958 157.496 484.217 157.496ZM494.244 172.558H494.273C498.295 172.558 501.547 169.163 501.547 165.027C501.547 160.89 498.295 157.496 494.273 157.496H494.244C490.193 157.496 486.941 160.862 486.941 165.027C486.941 169.192 490.193 172.558 494.244 172.558ZM494.244 168.792C492.247 168.792 490.707 167.081 490.707 165.027C490.707 162.973 492.247 161.29 494.244 161.261H494.273C496.213 161.261 497.753 162.973 497.753 165.027C497.753 167.081 496.241 168.792 494.273 168.792H494.244ZM509.363 157.667V156.754C509.363 155.556 510.162 155.156 511.16 155.156C511.817 155.156 512.444 155.327 512.615 155.385V152.047C512.302 151.933 511.246 151.676 509.962 151.676C507.138 151.676 505.569 153.787 505.569 156.725V157.667H503.201V160.976H505.569V172.387H509.363V160.976H512.844V157.667H509.363ZM527.833 166.082C527.862 165.825 527.89 165.398 527.89 164.97C527.89 160.862 524.866 157.496 521.044 157.496C516.993 157.496 513.769 160.776 513.769 165.027C513.769 169.363 516.907 172.558 521.158 172.558C525.865 172.558 527.462 168.849 527.633 167.566H523.839C523.554 168.364 522.641 169.22 521.158 169.22C518.961 169.22 517.934 167.822 517.706 166.082H527.833ZM521.044 160.833C522.755 160.833 523.725 161.974 524.039 163.543H517.82C518.162 161.974 519.246 160.833 521.044 160.833ZM529.949 167.423C529.977 169.819 531.974 172.558 535.74 172.558C538.964 172.558 541.388 170.789 541.445 167.765C541.502 165.683 540.048 164.057 537.166 163.401L535.169 162.944C534.428 162.773 534.057 162.402 534.057 161.803C534.057 161.061 534.713 160.519 535.768 160.519C536.824 160.519 537.594 161.261 537.623 162.317H540.989C540.989 159.949 538.964 157.496 535.797 157.496C532.602 157.496 530.32 159.293 530.32 161.86C530.32 163.971 531.432 165.54 534.199 166.225L535.997 166.653C537.138 166.938 537.708 167.28 537.708 168.022C537.708 168.821 536.91 169.306 535.911 169.306C534.742 169.306 533.772 168.621 533.743 167.423H529.949ZM543.321 167.423C543.35 169.819 545.346 172.558 549.112 172.558C552.336 172.558 554.76 170.789 554.817 167.765C554.875 165.683 553.42 164.057 550.538 163.401L548.541 162.944C547.8 162.773 547.429 162.402 547.429 161.803C547.429 161.061 548.085 160.519 549.141 160.519C550.196 160.519 550.966 161.261 550.995 162.317H554.361C554.361 159.949 552.336 157.496 549.169 157.496C545.974 157.496 543.692 159.293 543.692 161.86C543.692 163.971 544.804 165.54 547.572 166.225L549.369 166.653C550.51 166.938 551.08 167.28 551.08 168.022C551.08 168.821 550.282 169.306 549.283 169.306C548.114 169.306 547.144 168.621 547.115 167.423H543.321ZM559.603 156.041C560.972 156.041 562.199 154.9 562.199 153.473C562.199 152.075 561.029 150.963 559.603 150.963C558.177 150.963 557.064 152.075 557.064 153.473C557.064 154.9 558.177 156.041 559.603 156.041ZM561.486 157.667H557.692V172.387H561.486V157.667ZM571.691 172.558H571.72C575.742 172.558 578.994 169.163 578.994 165.027C578.994 160.89 575.742 157.496 571.72 157.496H571.691C567.64 157.496 564.388 160.862 564.388 165.027C564.388 169.192 567.64 172.558 571.691 172.558ZM571.691 168.792C569.694 168.792 568.154 167.081 568.154 165.027C568.154 162.973 569.694 161.29 571.691 161.261H571.72C573.659 161.261 575.2 162.973 575.2 165.027C575.2 167.081 573.688 168.792 571.72 168.792H571.691ZM589.549 157.496C587.866 157.496 586.326 158.294 585.47 159.607V157.667H581.79V172.387H585.584V164.199C585.584 162.459 586.811 161.29 588.38 161.29C589.92 161.29 591.147 162.431 591.147 164.171V172.387H594.941V163.714C594.941 159.492 592.83 157.496 589.549 157.496ZM608.43 159.55C607.346 158.294 605.834 157.496 604.123 157.496C600.614 157.496 597.818 160.862 597.818 165.027C597.818 169.192 600.614 172.558 604.123 172.558C605.834 172.558 607.318 171.759 608.43 170.504V172.387H612.225V157.667H608.43V159.55ZM605.036 168.792C603.124 168.792 601.584 167.109 601.584 165.027C601.584 162.944 603.124 161.29 605.036 161.29C606.947 161.29 608.43 162.944 608.43 165.027C608.43 167.109 606.947 168.792 605.036 168.792ZM616.197 151.847V172.387H619.991V151.847H616.197Z" fill="white"/>
<path d="M516.916 195.74C517.622 195.348 518.131 194.59 518.131 193.728C518.131 192.343 516.89 191.206 515.44 191.206H511.69V200.613H515.819C517.23 200.613 518.497 199.477 518.497 198.092C518.51 197.099 517.935 196.171 516.916 195.753V195.74ZM515.44 192.565C516.185 192.565 516.773 193.153 516.773 193.884C516.773 194.551 516.224 195.139 515.492 195.152H513.049V192.565H515.44ZM513.049 199.254V196.524H515.819C516.55 196.524 517.138 197.164 517.138 197.896C517.138 198.64 516.55 199.254 515.819 199.254H513.049ZM524.295 193.871V197.791C524.295 198.627 523.615 199.346 522.753 199.346C521.904 199.346 521.224 198.64 521.224 197.791V193.871H519.866V197.948C519.866 199.477 520.78 200.692 522.27 200.692C523.106 200.692 523.838 200.247 524.295 199.699V200.535C524.295 201.75 523.615 202.547 522.531 202.547C521.499 202.547 520.924 202.011 520.819 201.175H519.395C519.474 202.521 520.545 203.827 522.505 203.827C524.334 203.827 525.654 202.456 525.654 200.483V193.871H524.295Z" fill="white"/>
<g clip-path="url(#clip0_7908_116493)">
<path fill-rule="evenodd" clip-rule="evenodd" d="M555.995 199.381C554.404 199.381 553.114 198.086 553.114 196.488C553.114 194.89 554.404 193.594 555.995 193.594C557.586 193.594 558.876 194.89 558.876 196.488C558.876 197.255 558.573 197.991 558.033 198.533C557.492 199.076 556.759 199.381 555.995 199.381ZM558.881 188.902V193.401C557.209 191.823 554.587 191.878 552.981 193.524C551.375 195.17 551.375 197.804 552.981 199.45C554.587 201.097 557.209 201.151 558.881 199.574V200.506H560.213V188.902H558.881ZM595.962 199.381C594.371 199.381 593.081 198.086 593.081 196.488C593.081 194.89 594.371 193.594 595.962 193.594C597.554 193.594 598.844 194.89 598.844 196.488C598.844 197.255 598.54 197.991 598 198.533C597.46 199.076 596.727 199.381 595.962 199.381ZM600.179 196.488V192.297H598.848V193.401C597.175 191.823 594.553 191.878 592.947 193.524C591.342 195.17 591.342 197.804 592.947 199.45C594.553 201.097 597.175 201.151 598.848 199.574V200.506H600.18V196.488H600.179ZM610.799 192.609C610.918 192.412 611.131 192.292 611.36 192.293H611.617C612.161 192.293 612.602 192.735 612.602 193.282V200.506H611.243V194.386C610.616 195.402 608.372 199.086 607.699 200.191C607.58 200.387 607.367 200.506 607.139 200.506H606.861C606.498 200.506 606.204 200.211 606.204 199.847V194.371C605.47 195.561 603.215 199.261 602.505 200.444L602.468 200.506H601.165V192.295H602.524V192.312L602.492 197.976L605.75 192.61C605.869 192.414 606.082 192.294 606.311 192.294H606.569C607.113 192.294 607.553 192.736 607.555 193.281C607.555 194.791 607.562 197.54 607.562 197.94L610.799 192.609ZM591.611 198.981C590.526 200.477 588.6 201.093 586.854 200.501C585.107 199.909 583.947 198.247 583.987 196.397C584.028 194.547 585.261 192.937 587.031 192.423C588.801 191.909 590.699 192.61 591.717 194.153L590.44 194.819C589.751 193.844 588.524 193.414 587.38 193.745C586.237 194.077 585.427 195.098 585.361 196.291C585.296 197.485 585.989 198.589 587.089 199.045C588.19 199.501 589.457 199.208 590.248 198.315L591.611 198.981ZM617.692 199.387C616.169 199.387 614.909 198.195 614.818 196.668V196.322C614.912 194.749 616.242 193.541 617.809 193.604C619.377 193.667 620.607 194.978 620.575 196.553C620.544 198.128 619.263 199.389 617.694 199.388L617.692 199.387ZM617.694 192.261C616.626 192.259 615.598 192.666 614.818 193.399V192.297H613.486V203.858H614.818V199.59C616.2 200.885 618.272 201.098 619.887 200.111C621.502 199.124 622.265 197.178 621.754 195.351C621.244 193.523 619.584 192.26 617.694 192.26V192.261ZM572.55 193.579V198.628C572.55 198.928 572.792 199.17 573.09 199.17H574.641V200.506H573.091C572.059 200.505 571.222 199.665 571.221 198.628L571.216 193.579H569.78V192.278H571.216V190.033H572.55V192.283H574.914V193.579H572.55ZM579.006 199.38C577.414 199.38 576.124 198.085 576.124 196.487C576.124 194.889 577.414 193.593 579.006 193.593C580.597 193.593 581.887 194.889 581.887 196.487C581.887 197.254 581.583 197.99 581.043 198.533C580.503 199.075 579.77 199.38 579.006 199.38ZM581.891 192.297V193.401C580.218 191.823 577.596 191.878 575.99 193.524C574.385 195.17 574.385 197.804 575.99 199.45C577.596 201.097 580.218 201.151 581.891 199.574V200.506H583.223V192.295L581.891 192.297ZM564.964 199.381C563.373 199.381 562.083 198.086 562.083 196.488C562.083 194.89 563.373 193.594 564.964 193.594C566.555 193.594 567.846 194.89 567.846 196.488C567.846 197.255 567.542 197.991 567.002 198.534C566.461 199.076 565.728 199.381 564.964 199.381ZM567.85 192.297V193.401C566.177 191.823 563.555 191.878 561.949 193.524C560.343 195.17 560.343 197.804 561.949 199.45C563.555 201.097 566.177 201.151 567.85 199.574V200.506H569.181V192.295L567.85 192.297Z" fill="white"/>
<path fill-rule="evenodd" clip-rule="evenodd" d="M540.379 189.939V194.173L535.905 196.735V187.361L540.379 189.939ZM541.826 198.834V195.018L547.818 191.585L546.36 190.747L541.826 193.344V189.515C541.826 189.255 541.687 189.015 541.463 188.884L536.005 185.743C535.991 185.734 535.976 185.726 535.961 185.719C535.637 185.561 535.255 185.581 534.949 185.773C534.643 185.966 534.458 186.303 534.459 186.665V197.429C534.458 197.791 534.643 198.129 534.949 198.321C535.254 198.514 535.638 198.535 535.962 198.377L536.004 198.355L540.376 195.849V199.264C540.376 199.524 540.516 199.765 540.741 199.895L546.351 203.092L547.809 202.253L541.826 198.834Z" fill="#03EF62"/>
</g>
<g filter="url(#filter0_dd_7908_116493)">
<path d="M655.95 145.3C655.95 109.76 684.76 80.95 720.3 80.95C755.839 80.95 784.649 109.76 784.649 145.3V227.199C784.649 230.43 782.03 233.049 778.799 233.049H661.8C658.569 233.049 655.95 230.43 655.95 227.199V145.3Z" fill="#05192D" stroke="#FCCE0D" stroke-width="3.89998"/>
<circle cx="720.3" cy="139.451" r="48.7497" stroke="url(#paint7_linear_7908_116493)" stroke-width="1.94999"/>
<circle cx="720.3" cy="139.451" r="38.9998" stroke="url(#paint8_linear_7908_116493)" stroke-width="1.94999"/>
<circle cx="720.3" cy="137.499" r="27.2999" fill="url(#paint9_linear_7908_116493)"/>
<g filter="url(#filter1_d_7908_116493)">
<circle cx="720.3" cy="137.498" r="19.4999" fill="white"/>
</g>
<path fill-rule="evenodd" clip-rule="evenodd" d="M720.299 127.098C724.248 127.098 727.449 130.299 727.449 134.248C727.449 136.468 726.437 138.452 724.849 139.763V146.786C724.849 147.689 723.96 148.301 723.133 148.019L722.996 147.963L720.297 146.694L717.603 147.963C716.786 148.347 715.853 147.803 715.757 146.934L715.749 146.786V139.763C714.161 138.452 713.149 136.468 713.149 134.248C713.149 130.299 716.351 127.098 720.299 127.098ZM718.349 141.128V144.736L719.742 144.082C720.042 143.94 720.384 143.92 720.696 144.021L720.849 144.081L722.249 144.738V141.128C721.629 141.304 720.975 141.398 720.299 141.398C719.623 141.398 718.969 141.304 718.349 141.128ZM720.299 129.697C717.786 129.697 715.749 131.735 715.749 134.247C715.749 136.76 717.786 138.797 720.299 138.797C722.812 138.797 724.849 136.76 724.849 134.247C724.849 131.735 722.812 129.697 720.299 129.697Z" fill="#05192D"/>
<path d="M654 211.602H786.599V227.201C786.599 231.509 783.107 235.001 778.799 235.001H661.8C657.492 235.001 654 231.509 654 227.201V211.602Z" fill="#FCCE0D"/>
<path d="M671.893 218.129H668.488V226.553H670.044V223.558H671.904C673.461 223.558 674.595 222.212 674.595 220.843C674.595 219.486 673.461 218.14 671.893 218.129ZM670.044 222.013V219.685H671.869C672.571 219.685 673.028 220.27 673.028 220.843C673.028 221.428 672.571 222.013 671.869 222.013H670.044ZM683.481 226.553L681.831 223.3C682.721 222.856 683.399 221.908 683.399 220.855C683.399 219.404 682.112 218.129 680.755 218.129H677.303V226.553H678.86V223.558H680.217L681.726 226.553H683.481ZM680.755 219.685C681.363 219.685 681.843 220.246 681.843 220.855C681.843 221.463 681.363 222.013 680.755 222.013H678.86V219.685H680.755ZM690.013 226.623C692.377 226.623 694.284 224.704 694.284 222.341C694.284 219.977 692.377 218.059 690.013 218.059C687.65 218.059 685.755 219.977 685.755 222.341C685.755 224.704 687.65 226.623 690.013 226.623ZM690.013 225.067C688.504 225.067 687.311 223.85 687.311 222.341C687.311 220.831 688.504 219.615 690.013 219.615C691.523 219.615 692.728 220.831 692.728 222.341C692.728 223.85 691.523 225.067 690.013 225.067ZM697.174 218.129V226.553H698.73V223.171H702.497V221.627H698.73V219.685H702.918V218.129H697.174ZM705.737 218.129V226.553H711.623V224.997H707.294V223.113H711.178V221.569H707.294V219.685H711.623V218.129H705.737ZM714.212 223.604C714.224 225.476 715.64 226.623 717.336 226.623C719.009 226.623 720.191 225.582 720.191 224.084C720.191 222.785 719.407 221.99 717.827 221.592L716.868 221.346C716.236 221.182 716.049 220.831 716.049 220.492C716.049 220.036 716.459 219.544 717.184 219.544C717.898 219.544 718.389 220.059 718.389 220.761H719.922C719.922 219.31 718.892 218.059 717.254 218.059C715.757 218.059 714.446 219.053 714.446 220.48C714.446 221.615 715.253 222.505 716.622 222.844L717.605 223.09C718.225 223.242 718.588 223.616 718.588 224.107C718.588 224.611 718.178 225.125 717.336 225.125C716.412 225.125 715.792 224.575 715.78 223.604H714.212ZM722.559 223.604C722.571 225.476 723.986 226.623 725.683 226.623C727.356 226.623 728.538 225.582 728.538 224.084C728.538 222.785 727.754 221.99 726.174 221.592L725.215 221.346C724.583 221.182 724.396 220.831 724.396 220.492C724.396 220.036 724.805 219.544 725.531 219.544C726.245 219.544 726.736 220.059 726.736 220.761H728.269C728.269 219.31 727.239 218.059 725.601 218.059C724.103 218.059 722.793 219.053 722.793 220.48C722.793 221.615 723.6 222.505 724.969 222.844L725.952 223.09C726.572 223.242 726.935 223.616 726.935 224.107C726.935 224.611 726.525 225.125 725.683 225.125C724.759 225.125 724.139 224.575 724.127 223.604H722.559ZM731.304 218.129V226.553H732.86V218.129H731.304ZM740.003 226.623C742.367 226.623 744.274 224.704 744.274 222.341C744.274 219.977 742.367 218.059 740.003 218.059C737.64 218.059 735.745 219.977 735.745 222.341C735.745 224.704 737.64 226.623 740.003 226.623ZM740.003 225.067C738.494 225.067 737.301 223.85 737.301 222.341C737.301 220.831 738.494 219.615 740.003 219.615C741.513 219.615 742.718 220.831 742.718 222.341C742.718 223.85 741.513 225.067 740.003 225.067ZM752.686 222.575V224.189H752.674C752.335 223.558 752.078 223.101 751.75 222.575L748.977 218.129H747.152V226.553H748.708V222.095V220.516H748.72C749.047 221.112 749.352 221.639 749.644 222.107L752.44 226.553H754.242V218.129H752.686V222.575ZM765.032 226.553L761.767 218.129H760.071L756.795 226.553H758.48L759.31 224.4H762.516L763.347 226.553H765.032ZM760.165 222.2C760.457 221.475 760.679 220.855 760.902 220.176H760.913C761.159 220.855 761.381 221.475 761.662 222.2L761.955 222.961H759.872L760.165 222.2ZM769.138 218.129H767.582V226.553H772.765V224.997H769.138V218.129Z" fill="#05192D"/>
<g clip-path="url(#clip1_7908_116493)">
<path fill-rule="evenodd" clip-rule="evenodd" d="M696.606 173.349V175.991L693.881 177.59V171.741L696.606 173.349ZM697.488 178.9V176.519L701.138 174.377L700.25 173.854L697.488 175.474V173.085C697.487 172.923 697.403 172.773 697.267 172.691L693.942 170.731C693.933 170.726 693.924 170.721 693.915 170.716C693.718 170.618 693.485 170.63 693.298 170.75C693.112 170.87 692.999 171.08 693 171.306V178.023C692.999 178.249 693.112 178.46 693.298 178.58C693.484 178.701 693.718 178.714 693.916 178.615L693.941 178.601L696.604 177.037V179.168C696.605 179.331 696.689 179.481 696.827 179.562L700.245 181.557L701.132 181.033L697.488 178.9Z" fill="#03EF62"/>
</g>
<path d="M708.619 180.148C710.4 180.148 711.662 179.003 712.012 177.529H710.846C710.506 178.473 709.626 179.045 708.619 179.045C707.081 179.045 705.893 177.805 705.893 176.267C705.893 174.729 707.081 173.489 708.619 173.489C709.541 173.489 710.527 174.114 710.814 174.995H711.98C711.662 173.616 710.358 172.386 708.619 172.386C706.477 172.386 704.791 174.125 704.791 176.267C704.791 178.409 706.477 180.148 708.619 180.148Z" fill="white"/>
<path d="M718.011 177.688C718.022 177.571 718.032 177.434 718.032 177.285C718.032 175.79 716.951 174.549 715.487 174.549C713.982 174.549 712.868 175.79 712.868 177.349C712.868 178.939 713.96 180.148 715.54 180.148C717.227 180.148 717.852 178.854 717.937 178.335H716.802C716.696 178.653 716.304 179.151 715.54 179.151C714.607 179.151 714.098 178.505 714.003 177.688H718.011ZM715.487 175.546C716.304 175.546 716.792 176.129 716.908 176.861H714.035C714.173 176.119 714.671 175.546 715.487 175.546Z" fill="white"/>
<path d="M721.758 174.549C721.09 174.549 720.592 174.857 720.306 175.334V174.613H719.203V180.085H720.306V177.147C720.306 176.097 720.889 175.631 721.716 175.631C721.96 175.631 722.161 175.663 722.289 175.684V174.581C722.161 174.57 722.013 174.549 721.758 174.549Z" fill="white"/>
<path d="M725.394 179.12C724.991 179.12 724.726 178.939 724.726 178.483V175.578H726.125V174.613H724.726V173.065H723.623V174.613H722.69V175.578H723.623V178.505C723.623 179.618 724.227 180.148 725.192 180.148C725.574 180.148 725.934 180.021 726.125 179.947V178.918C725.987 178.982 725.68 179.12 725.394 179.12Z" fill="white"/>
<path d="M727.811 173.839C728.256 173.839 728.628 173.489 728.628 173.043C728.628 172.598 728.267 172.248 727.811 172.248C727.366 172.248 727.016 172.598 727.016 173.043C727.016 173.489 727.366 173.839 727.811 173.839ZM728.352 174.613H727.249V180.085H728.352V174.613Z" fill="white"/>
<path d="M731.468 174.613V174.104C731.468 173.637 731.786 173.425 732.179 173.425C732.444 173.425 732.688 173.489 732.836 173.552V172.534C732.666 172.471 732.295 172.386 731.882 172.386C730.948 172.386 730.365 173.086 730.365 174.083V174.613H729.485V175.578H730.365V180.085H731.468V175.578H732.878V174.613H731.468Z" fill="white"/>
<path d="M734.459 173.839C734.905 173.839 735.276 173.489 735.276 173.043C735.276 172.598 734.915 172.248 734.459 172.248C734.014 172.248 733.664 172.598 733.664 173.043C733.664 173.489 734.014 173.839 734.459 173.839ZM735 174.613H733.897V180.085H735V174.613Z" fill="white"/>
<path d="M741.394 177.688C741.405 177.571 741.416 177.434 741.416 177.285C741.416 175.79 740.334 174.549 738.871 174.549C737.365 174.549 736.251 175.79 736.251 177.349C736.251 178.939 737.344 180.148 738.924 180.148C740.61 180.148 741.235 178.854 741.32 178.335H740.185C740.079 178.653 739.687 179.151 738.924 179.151C737.99 179.151 737.481 178.505 737.386 177.688H741.394ZM738.871 175.546C739.687 175.546 740.175 176.129 740.292 176.861H737.418C737.556 176.119 738.054 175.546 738.871 175.546Z" fill="white"/>
<path d="M746.497 172.45V175.451C746.147 174.931 745.51 174.549 744.768 174.549C743.485 174.549 742.372 175.737 742.372 177.349C742.372 178.961 743.485 180.148 744.768 180.148C745.51 180.148 746.104 179.862 746.497 179.247V180.085H747.599V172.45H746.497ZM745.023 179.077C744.121 179.077 743.474 178.303 743.474 177.349C743.474 176.394 744.121 175.631 745.023 175.631C745.924 175.631 746.497 176.394 746.497 177.349C746.497 178.303 745.924 179.077 745.023 179.077Z" fill="white"/>
<path d="M669.239 187.516V198.748H673.622C676.696 198.748 679.238 196.299 679.238 193.132C679.238 189.965 676.68 187.516 673.622 187.516H669.239ZM671.314 196.673V189.591H673.622C675.572 189.591 677.164 191.182 677.164 193.132C677.164 195.082 675.572 196.673 673.622 196.673H671.314ZM686.135 191.728C685.543 191.042 684.716 190.605 683.78 190.605C681.861 190.605 680.332 192.446 680.332 194.723C680.332 197.001 681.861 198.842 683.78 198.842C684.716 198.842 685.527 198.405 686.135 197.718V198.748H688.21V190.698H686.135V191.728ZM684.279 196.782C683.234 196.782 682.391 195.862 682.391 194.723C682.391 193.584 683.234 192.68 684.279 192.68C685.324 192.68 686.135 193.584 686.135 194.723C686.135 195.862 685.324 196.782 684.279 196.782ZM693.939 196.938C693.362 196.938 692.957 196.704 692.957 196.08V192.508H694.86V190.698H692.957V188.405H690.882V190.698H689.571V192.508H690.882V196.127C690.882 198.015 691.88 198.842 693.471 198.842C693.924 198.842 694.423 198.748 694.86 198.623V196.782C694.579 196.86 694.251 196.938 693.939 196.938ZM701.598 191.728C701.005 191.042 700.179 190.605 699.243 190.605C697.324 190.605 695.795 192.446 695.795 194.723C695.795 197.001 697.324 198.842 699.243 198.842C700.179 198.842 700.99 198.405 701.598 197.718V198.748H703.673V190.698H701.598V191.728ZM699.742 196.782C698.697 196.782 697.854 195.862 697.854 194.723C697.854 193.584 698.697 192.68 699.742 192.68C700.787 192.68 701.598 193.584 701.598 194.723C701.598 195.862 700.787 196.782 699.742 196.782ZM709.948 194.817C709.963 197.313 711.851 198.842 714.113 198.842C716.344 198.842 717.919 197.453 717.919 195.456C717.919 193.725 716.874 192.664 714.768 192.134L713.489 191.806C712.646 191.588 712.397 191.12 712.397 190.667C712.397 190.059 712.943 189.404 713.91 189.404C714.862 189.404 715.517 190.09 715.517 191.026H717.56C717.56 189.092 716.188 187.423 714.004 187.423C712.007 187.423 710.26 188.748 710.26 190.652C710.26 192.165 711.336 193.35 713.161 193.803L714.472 194.13C715.298 194.333 715.782 194.832 715.782 195.488C715.782 196.158 715.236 196.845 714.113 196.845C712.88 196.845 712.054 196.112 712.038 194.817H709.948ZM726.703 193.694C726.61 192.43 725.408 190.605 722.99 190.605C720.775 190.605 718.997 192.446 718.997 194.723C718.997 197.001 720.775 198.842 722.99 198.842C725.174 198.842 726.61 196.938 726.672 195.753H724.613C724.472 196.377 723.786 196.876 722.99 196.876C721.836 196.876 721.056 195.846 721.056 194.723C721.056 193.6 721.774 192.57 722.99 192.57C723.724 192.57 724.394 193.007 724.597 193.694H726.703ZM729.344 189.809C730.093 189.809 730.764 189.185 730.764 188.405C730.764 187.641 730.124 187.033 729.344 187.033C728.564 187.033 727.956 187.641 727.956 188.405C727.956 189.185 728.564 189.809 729.344 189.809ZM730.374 190.698H728.299V198.748H730.374V190.698ZM739.652 195.3C739.668 195.16 739.683 194.926 739.683 194.692C739.683 192.446 738.03 190.605 735.939 190.605C733.724 190.605 731.961 192.399 731.961 194.723C731.961 197.094 733.677 198.842 736.002 198.842C738.576 198.842 739.449 196.814 739.543 196.112H737.468C737.312 196.548 736.813 197.016 736.002 197.016C734.8 197.016 734.239 196.252 734.114 195.3H739.652ZM735.939 192.43C736.875 192.43 737.406 193.054 737.577 193.912H734.176C734.364 193.054 734.956 192.43 735.939 192.43ZM745.461 190.605C744.541 190.605 743.699 191.042 743.231 191.759V190.698H741.218V198.748H743.293V194.271C743.293 193.319 743.964 192.68 744.822 192.68C745.664 192.68 746.335 193.304 746.335 194.255V198.748H748.41V194.006C748.41 191.697 747.255 190.605 745.461 190.605ZM753.734 196.938C753.157 196.938 752.751 196.704 752.751 196.08V192.508H754.654V190.698H752.751V188.405H750.676V190.698H749.366V192.508H750.676V196.127C750.676 198.015 751.675 198.842 753.266 198.842C753.718 198.842 754.218 198.748 754.654 198.623V196.782C754.374 196.86 754.046 196.938 753.734 196.938ZM757.254 189.809C758.002 189.809 758.673 189.185 758.673 188.405C758.673 187.641 758.034 187.033 757.254 187.033C756.474 187.033 755.865 187.641 755.865 188.405C755.865 189.185 756.474 189.809 757.254 189.809ZM758.283 190.698H756.208V198.748H758.283V190.698ZM759.867 196.034C759.883 197.344 760.975 198.842 763.034 198.842C764.797 198.842 766.123 197.874 766.154 196.221C766.185 195.082 765.39 194.193 763.814 193.834L762.722 193.584C762.316 193.491 762.114 193.288 762.114 192.96C762.114 192.555 762.472 192.258 763.05 192.258C763.627 192.258 764.048 192.664 764.064 193.241H765.904C765.904 191.946 764.797 190.605 763.065 190.605C761.318 190.605 760.07 191.588 760.07 192.992C760.07 194.146 760.678 195.004 762.192 195.378L763.174 195.612C763.798 195.768 764.11 195.956 764.11 196.361C764.11 196.798 763.674 197.063 763.128 197.063C762.488 197.063 761.958 196.689 761.942 196.034H759.867ZM771.086 196.938C770.509 196.938 770.103 196.704 770.103 196.08V192.508H772.006V190.698H770.103V188.405H768.028V190.698H766.718V192.508H768.028V196.127C768.028 198.015 769.027 198.842 770.618 198.842C771.07 198.842 771.569 198.748 772.006 198.623V196.782C771.725 196.86 771.398 196.938 771.086 196.938Z" fill="white"/>
</g>
<defs>
<filter id="filter0_dd_7908_116493" x="648.15" y="75.1" width="144.299" height="167.702" filterUnits="userSpaceOnUse" color-interpolation-filters="sRGB">
<feFlood flood-opacity="0" result="BackgroundImageFix"/>
<feColorMatrix in="SourceAlpha" type="matrix" values="0 0 0 0 0 0 0 0 0 0 0 0 0 0 0 0 0 0 127 0" result="hardAlpha"/>
<feMorphology radius="1.94999" operator="erode" in="SourceAlpha" result="effect1_dropShadow_7908_116493"/>
<feOffset dy="1.94999"/>
<feGaussianBlur stdDeviation="3.89998"/>
<feColorMatrix type="matrix" values="0 0 0 0 0.0196078 0 0 0 0 0.0980392 0 0 0 0 0.176471 0 0 0 0.3 0"/>
<feBlend mode="normal" in2="BackgroundImageFix" result="effect1_dropShadow_7908_116493"/>
<feColorMatrix in="SourceAlpha" type="matrix" values="0 0 0 0 0 0 0 0 0 0 0 0 0 0 0 0 0 0 127 0" result="hardAlpha"/>
<feOffset/>
<feGaussianBlur stdDeviation="0.974995"/>
<feColorMatrix type="matrix" values="0 0 0 0 0.0196078 0 0 0 0 0.0980392 0 0 0 0 0.176471 0 0 0 0.3 0"/>
<feBlend mode="normal" in2="effect1_dropShadow_7908_116493" result="effect2_dropShadow_7908_116493"/>
<feBlend mode="normal" in="SourceGraphic" in2="effect2_dropShadow_7908_116493" result="shape"/>
</filter>
<filter id="filter1_d_7908_116493" x="667.174" y="111.273" width="106.251" height="106.251" filterUnits="userSpaceOnUse" color-interpolation-filters="sRGB">
<feFlood flood-opacity="0" result="BackgroundImageFix"/>
<feColorMatrix in="SourceAlpha" type="matrix" values="0 0 0 0 0 0 0 0 0 0 0 0 0 0 0 0 0 0 127 0" result="hardAlpha"/>
<feOffset dy="26.9005"/>
<feGaussianBlur stdDeviation="16.8128"/>
<feComposite in2="hardAlpha" operator="out"/>
<feColorMatrix type="matrix" values="0 0 0 0 0 0 0 0 0 0.0313726 0 0 0 0 0.12549 0 0 0 1 0"/>
<feBlend mode="normal" in2="BackgroundImageFix" result="effect1_dropShadow_7908_116493"/>
<feBlend mode="normal" in="SourceGraphic" in2="effect1_dropShadow_7908_116493" result="shape"/>
</filter>
<linearGradient id="paint0_linear_7908_116493" x1="15.3723" y1="31.5278" x2="63.3103" y2="233.778" gradientUnits="userSpaceOnUse">
<stop stop-color="#FCCE0D"/>
<stop offset="1" stop-color="#05192D"/>
</linearGradient>
<linearGradient id="paint1_linear_7908_116493" x1="6.45462" y1="-3.00194" x2="159.596" y2="-32.8697" gradientUnits="userSpaceOnUse">
<stop stop-color="#FCCE0D"/>
<stop offset="1" stop-color="#05192D"/>
</linearGradient>
<linearGradient id="paint2_linear_7908_116493" x1="26.3147" y1="74.7854" x2="205.343" y2="74.7854" gradientUnits="userSpaceOnUse">
<stop stop-color="#FCCE0D"/>
<stop offset="1" stop-color="#05192D"/>
</linearGradient>
<linearGradient id="paint3_linear_7908_116493" x1="322.8" y1="-95.0534" x2="274.208" y2="66.2289" gradientUnits="userSpaceOnUse">
<stop stop-color="#FCCE0D"/>
<stop offset="1" stop-color="#05192D"/>
</linearGradient>
<linearGradient id="paint4_linear_7908_116493" x1="5.29248" y1="85.7383" x2="-20.1115" y2="-85.209" gradientUnits="userSpaceOnUse">
<stop stop-color="#FCCE0D"/>
<stop offset="1" stop-color="#05192D"/>
</linearGradient>
<linearGradient id="paint5_linear_7908_116493" x1="184.842" y1="379.033" x2="434.128" y2="480.797" gradientUnits="userSpaceOnUse">
<stop stop-color="#FCCE0D"/>
<stop offset="1" stop-color="#05192D"/>
</linearGradient>
<linearGradient id="paint6_linear_7908_116493" x1="186.274" y1="281.355" x2="197.623" y2="169.023" gradientUnits="userSpaceOnUse">
<stop stop-color="#FCCE0D"/>
<stop offset="1" stop-color="#05192D"/>
</linearGradient>
<linearGradient id="paint7_linear_7908_116493" x1="720.3" y1="90.7012" x2="720.3" y2="160.779" gradientUnits="userSpaceOnUse">
<stop stop-color="#FCCE0D"/>
<stop offset="1" stop-color="#05192D"/>
</linearGradient>
<linearGradient id="paint8_linear_7908_116493" x1="720.3" y1="100.451" x2="720.3" y2="156.513" gradientUnits="userSpaceOnUse">
<stop stop-color="#FCCE0D"/>
<stop offset="1" stop-color="#05192D"/>
</linearGradient>
<linearGradient id="paint9_linear_7908_116493" x1="720.3" y1="110.199" x2="720.3" y2="164.799" gradientUnits="userSpaceOnUse">
<stop stop-color="#FCCE0D"/>
<stop offset="1" stop-color="#FCCE0D" stop-opacity="0.58"/>
</linearGradient>
<clipPath id="clip0_7908_116493">
<rect width="87.5415" height="18.2922" fill="white" transform="translate(534.459 185.613)"/>
</clipPath>
<clipPath id="clip1_7908_116493">
<rect width="8.32294" height="11.0972" fill="white" transform="translate(693 170.65)"/>
</clipPath>
</defs>
</svg>
