<svg width="1128" height="191" viewBox="0 0 1128 191" fill="none" xmlns="http://www.w3.org/2000/svg">
<rect width="1128" height="191" fill="#05192D"/>
<mask id="mask0_7908_116422" style="mask-type:alpha" maskUnits="userSpaceOnUse" x="0" y="0" width="1128" height="191">
<rect width="1128" height="191" fill="#05192D"/>
</mask>
<g mask="url(#mask0_7908_116422)">
<path d="M527.99 172.628C527.99 157.566 515.78 145.355 500.717 145.355L252 145.355L252 205.999L527.99 205.999L527.99 172.628Z" stroke="url(#paint0_linear_7908_116422)" stroke-width="1.13636"/>
<path d="M351.196 121.909C351.196 99.3156 332.88 81 310.287 81L252 81L252 166.515L351.196 166.515L351.196 121.909Z" stroke="url(#paint1_linear_7908_116422)" stroke-width="1.13636"/>
<path d="M-1.27905 171.387V171.387C16.0034 171.387 30.0137 157.376 30.0137 140.094L30.0137 -2.76403L-1.27907 -2.76403" stroke="url(#paint2_linear_7908_116422)"/>
<rect x="-4" y="-3" width="147.267" height="58.4889" stroke="url(#paint3_linear_7908_116422)"/>
<circle cx="143.789" cy="56.0099" r="40.2111" stroke="url(#paint4_linear_7908_116422)"/>
<path d="M349 16C349 33.6731 363.327 48 381 48L636 48.0001L636 -11L349 -11.0001L349 16Z" stroke="url(#paint5_linear_7908_116422)"/>
<rect width="106.088" height="111" rx="53.0442" transform="matrix(1 9.20383e-08 8.30387e-08 -1 583.38 48)" stroke="url(#paint6_linear_7908_116422)"/>
</g>
<path d="M773.203 79.9448C777.523 79.9448 780.355 76.9928 780.907 73.7288H777.595C776.995 75.6248 775.219 76.7528 773.203 76.7528C770.107 76.7528 767.659 74.2568 767.659 71.1608C767.659 68.0648 770.107 65.5688 773.203 65.5688C775.123 65.5688 777.043 66.8648 777.571 68.6648H780.883C780.355 65.7128 777.595 62.3768 773.203 62.3768C768.355 62.3768 764.467 66.3128 764.467 71.1608C764.467 76.0088 768.355 79.9448 773.203 79.9448ZM794.535 74.4968C794.559 74.2808 794.583 73.9208 794.583 73.5608C794.583 70.1048 792.039 67.2728 788.823 67.2728C785.415 67.2728 782.703 70.0328 782.703 73.6088C782.703 77.2568 785.343 79.9448 788.919 79.9448C792.879 79.9448 794.223 76.8248 794.367 75.7448H791.175C790.935 76.4168 790.167 77.1368 788.919 77.1368C787.071 77.1368 786.207 75.9608 786.015 74.4968H794.535ZM788.823 70.0808C790.263 70.0808 791.079 71.0408 791.343 72.3608H786.111C786.399 71.0408 787.311 70.0808 788.823 70.0808ZM803.497 67.2728C802.081 67.2728 800.881 67.8488 800.137 69.0728V67.4168H796.945V79.8008H800.137V73.6568C800.137 71.3768 801.312 70.3928 803.161 70.3928C803.953 70.3928 804.577 70.5128 804.865 70.5608V67.3688C804.577 67.3448 804.121 67.2728 803.497 67.2728ZM812.379 77.0168C811.491 77.0168 810.867 76.6568 810.867 75.6968V70.2008H813.795V67.4168H810.867V63.8888H807.675V67.4168H805.659V70.2008H807.675V75.7688C807.675 78.6728 809.211 79.9448 811.659 79.9448C812.355 79.9448 813.123 79.8008 813.795 79.6088V76.7768C813.363 76.8968 812.859 77.0168 812.379 77.0168ZM817.794 66.0488C818.946 66.0488 819.978 65.0888 819.978 63.8888C819.978 62.7128 818.994 61.7768 817.794 61.7768C816.594 61.7768 815.658 62.7128 815.658 63.8888C815.658 65.0888 816.594 66.0488 817.794 66.0488ZM819.378 67.4168H816.186V79.8008H819.378V67.4168ZM826.879 67.4168V66.6488C826.879 65.6408 827.551 65.3048 828.391 65.3048C828.943 65.3048 829.471 65.4488 829.615 65.4968V62.6888C829.351 62.5928 828.463 62.3768 827.383 62.3768C825.007 62.3768 823.687 64.1528 823.687 66.6248V67.4168H821.695V70.2008H823.687V79.8008H826.879V70.2008H829.807V67.4168H826.879ZM833.521 66.0488C834.673 66.0488 835.705 65.0888 835.705 63.8888C835.705 62.7128 834.721 61.7768 833.521 61.7768C832.321 61.7768 831.385 62.7128 831.385 63.8888C831.385 65.0888 832.321 66.0488 833.521 66.0488ZM835.105 67.4168H831.913V79.8008H835.105V67.4168ZM849.379 74.4968C849.403 74.2808 849.427 73.9208 849.427 73.5608C849.427 70.1048 846.883 67.2728 843.667 67.2728C840.259 67.2728 837.547 70.0328 837.547 73.6088C837.547 77.2568 840.187 79.9448 843.763 79.9448C847.723 79.9448 849.067 76.8248 849.211 75.7448H846.019C845.779 76.4168 845.011 77.1368 843.763 77.1368C841.915 77.1368 841.051 75.9608 840.859 74.4968H849.379ZM843.667 70.0808C845.107 70.0808 845.923 71.0408 846.187 72.3608H840.955C841.243 71.0408 842.155 70.0808 843.667 70.0808ZM860.303 62.5208V69.0968C859.511 68.0408 858.191 67.2728 856.727 67.2728C853.823 67.2728 851.375 69.8888 851.375 73.6088C851.375 77.3288 853.823 79.9448 856.727 79.9448C858.191 79.9448 859.463 79.4168 860.303 78.1208V79.8008H863.495V62.5208H860.303ZM857.447 76.7768C855.839 76.7768 854.543 75.3608 854.543 73.6088C854.543 71.8568 855.839 70.4408 857.447 70.4408C859.079 70.4408 860.303 71.8568 860.303 73.6088C860.303 75.3608 859.079 76.7768 857.447 76.7768ZM882.146 69.0008C881.234 67.9448 879.962 67.2728 878.522 67.2728C875.57 67.2728 873.218 70.1048 873.218 73.6088C873.218 77.1128 875.57 79.9448 878.522 79.9448C879.962 79.9448 881.21 79.2728 882.146 78.2168V79.8008H885.338V67.4168H882.146V69.0008ZM879.29 76.7768C877.682 76.7768 876.386 75.3608 876.386 73.6088C876.386 71.8568 877.682 70.4648 879.29 70.4648C880.898 70.4648 882.146 71.8568 882.146 73.6088C882.146 75.3608 880.898 76.7768 879.29 76.7768ZM887.745 75.6248C887.769 77.6408 889.449 79.9448 892.617 79.9448C895.329 79.9448 897.369 78.4568 897.417 75.9128C897.465 74.1608 896.241 72.7928 893.817 72.2408L892.137 71.8568C891.513 71.7128 891.201 71.4008 891.201 70.8968C891.201 70.2728 891.753 69.8168 892.641 69.8168C893.529 69.8168 894.177 70.4408 894.201 71.3288H897.033C897.033 69.3368 895.329 67.2728 892.665 67.2728C889.977 67.2728 888.057 68.7848 888.057 70.9448C888.057 72.7208 888.993 74.0408 891.321 74.6168L892.833 74.9768C893.793 75.2168 894.273 75.5048 894.273 76.1288C894.273 76.8008 893.601 77.2088 892.761 77.2088C891.777 77.2088 890.961 76.6328 890.937 75.6248H887.745ZM915.17 69.0008C914.258 67.9448 912.986 67.2728 911.546 67.2728C908.594 67.2728 906.242 70.1048 906.242 73.6088C906.242 77.1128 908.594 79.9448 911.546 79.9448C912.986 79.9448 914.234 79.2728 915.17 78.2168V79.8008H918.362V67.4168H915.17V69.0008ZM912.314 76.7768C910.706 76.7768 909.41 75.3608 909.41 73.6088C909.41 71.8568 910.706 70.4648 912.314 70.4648C913.922 70.4648 915.17 71.8568 915.17 73.6088C915.17 75.3608 913.922 76.7768 912.314 76.7768ZM615.073 92.5208V109.801H621.817C626.545 109.801 630.457 106.033 630.457 101.161C630.457 96.2888 626.521 92.5208 621.817 92.5208H615.073ZM618.265 106.609V95.7128H621.817C624.817 95.7128 627.265 98.1608 627.265 101.161C627.265 104.161 624.817 106.609 621.817 106.609H618.265ZM641.068 99.0008C640.156 97.9448 638.884 97.2728 637.444 97.2728C634.492 97.2728 632.14 100.105 632.14 103.609C632.14 107.113 634.492 109.945 637.444 109.945C638.884 109.945 640.132 109.273 641.068 108.217V109.801H644.26V97.4168H641.068V99.0008ZM638.212 106.777C636.604 106.777 635.308 105.361 635.308 103.609C635.308 101.857 636.604 100.465 638.212 100.465C639.82 100.465 641.068 101.857 641.068 103.609C641.068 105.361 639.82 106.777 638.212 106.777ZM653.074 107.017C652.186 107.017 651.562 106.657 651.562 105.697V100.201H654.49V97.4168H651.562V93.8888H648.37V97.4168H646.354V100.201H648.37V105.769C648.37 108.673 649.906 109.945 652.354 109.945C653.05 109.945 653.818 109.801 654.49 109.609V106.777C654.058 106.897 653.554 107.017 653.074 107.017ZM664.857 99.0008C663.945 97.9448 662.673 97.2728 661.233 97.2728C658.281 97.2728 655.929 100.105 655.929 103.609C655.929 107.113 658.281 109.945 661.233 109.945C662.673 109.945 663.921 109.273 664.857 108.217V109.801H668.049V97.4168H664.857V99.0008ZM662.001 106.777C660.393 106.777 659.097 105.361 659.097 103.609C659.097 101.857 660.393 100.465 662.001 100.465C663.609 100.465 664.857 101.857 664.857 103.609C664.857 105.361 663.609 106.777 662.001 106.777ZM677.703 103.753C677.727 107.593 680.631 109.945 684.111 109.945C687.543 109.945 689.967 107.809 689.967 104.737C689.967 102.073 688.359 100.441 685.119 99.6248L683.151 99.1208C681.855 98.7848 681.471 98.0648 681.471 97.3688C681.471 96.4328 682.311 95.4248 683.799 95.4248C685.263 95.4248 686.271 96.4808 686.271 97.9208H689.415C689.415 94.9448 687.303 92.3768 683.943 92.3768C680.871 92.3768 678.183 94.4168 678.183 97.3448C678.183 99.6728 679.839 101.497 682.647 102.193L684.663 102.697C685.935 103.009 686.679 103.777 686.679 104.785C686.679 105.817 685.839 106.873 684.111 106.873C682.215 106.873 680.943 105.745 680.919 103.753H677.703ZM703.481 102.025C703.337 100.081 701.489 97.2728 697.769 97.2728C694.361 97.2728 691.625 100.105 691.625 103.609C691.625 107.113 694.361 109.945 697.769 109.945C701.129 109.945 703.337 107.017 703.433 105.193H700.265C700.049 106.153 698.993 106.921 697.769 106.921C695.993 106.921 694.793 105.337 694.793 103.609C694.793 101.881 695.897 100.297 697.769 100.297C698.897 100.297 699.929 100.969 700.241 102.025H703.481ZM707.544 96.0488C708.696 96.0488 709.728 95.0888 709.728 93.8888C709.728 92.7128 708.744 91.7768 707.544 91.7768C706.344 91.7768 705.408 92.7128 705.408 93.8888C705.408 95.0888 706.344 96.0488 707.544 96.0488ZM709.128 97.4168H705.936V109.801H709.128V97.4168ZM723.402 104.497C723.426 104.281 723.45 103.921 723.45 103.561C723.45 100.105 720.906 97.2728 717.69 97.2728C714.282 97.2728 711.57 100.033 711.57 103.609C711.57 107.257 714.21 109.945 717.786 109.945C721.746 109.945 723.09 106.825 723.234 105.745H720.042C719.802 106.417 719.034 107.137 717.786 107.137C715.938 107.137 715.074 105.961 714.882 104.497H723.402ZM717.69 100.081C719.13 100.081 719.946 101.041 720.21 102.361H714.978C715.266 101.041 716.178 100.081 717.69 100.081ZM732.34 97.2728C730.924 97.2728 729.628 97.9448 728.908 99.0488V97.4168H725.812V109.801H729.004V102.913C729.004 101.449 730.036 100.465 731.356 100.465C732.652 100.465 733.684 101.425 733.684 102.889V109.801H736.876V102.505C736.876 98.9528 735.1 97.2728 732.34 97.2728ZM745.067 107.017C744.179 107.017 743.555 106.657 743.555 105.697V100.201H746.483V97.4168H743.555V93.8888H740.363V97.4168H738.347V100.201H740.363V105.769C740.363 108.673 741.899 109.945 744.347 109.945C745.043 109.945 745.811 109.801 746.483 109.609V106.777C746.051 106.897 745.547 107.017 745.067 107.017ZM750.482 96.0488C751.634 96.0488 752.666 95.0888 752.666 93.8888C752.666 92.7128 751.682 91.7768 750.482 91.7768C749.282 91.7768 748.346 92.7128 748.346 93.8888C748.346 95.0888 749.282 96.0488 750.482 96.0488ZM752.066 97.4168H748.874V109.801H752.066V97.4168ZM754.502 105.625C754.526 107.641 756.206 109.945 759.374 109.945C762.086 109.945 764.126 108.457 764.174 105.913C764.222 104.161 762.998 102.793 760.574 102.241L758.894 101.857C758.27 101.713 757.958 101.401 757.958 100.897C757.958 100.273 758.51 99.8168 759.398 99.8168C760.286 99.8168 760.934 100.441 760.958 101.329H763.79C763.79 99.3368 762.086 97.2728 759.422 97.2728C756.734 97.2728 754.814 98.7848 754.814 100.945C754.814 102.721 755.75 104.041 758.078 104.617L759.59 104.977C760.55 105.217 761.03 105.505 761.03 106.129C761.03 106.801 760.358 107.209 759.518 107.209C758.534 107.209 757.718 106.633 757.694 105.625H754.502ZM771.762 107.017C770.874 107.017 770.25 106.657 770.25 105.697V100.201H773.178V97.4168H770.25V93.8888H767.058V97.4168H765.042V100.201H767.058V105.769C767.058 108.673 768.594 109.945 771.042 109.945C771.738 109.945 772.506 109.801 773.178 109.609V106.777C772.746 106.897 772.242 107.017 771.762 107.017ZM789.8 92.5208H782.816V109.801H786.008V103.657H789.824C793.016 103.657 795.344 100.897 795.344 98.0888C795.344 95.3048 793.016 92.5448 789.8 92.5208ZM786.008 100.489V95.7128H789.752C791.192 95.7128 792.128 96.9128 792.128 98.0888C792.128 99.2888 791.192 100.489 789.752 100.489H786.008ZM804.082 97.2728C802.666 97.2728 801.466 97.8488 800.722 99.0728V97.4168H797.53V109.801H800.722V103.657C800.722 101.377 801.898 100.393 803.746 100.393C804.538 100.393 805.162 100.513 805.45 100.561V97.3688C805.162 97.3448 804.706 97.2728 804.082 97.2728ZM812.519 109.945H812.543C815.927 109.945 818.663 107.089 818.663 103.609C818.663 100.129 815.927 97.2728 812.543 97.2728H812.519C809.111 97.2728 806.375 100.105 806.375 103.609C806.375 107.113 809.111 109.945 812.519 109.945ZM812.519 106.777C810.839 106.777 809.543 105.337 809.543 103.609C809.543 101.881 810.839 100.465 812.519 100.441H812.543C814.175 100.441 815.471 101.881 815.471 103.609C815.471 105.337 814.199 106.777 812.543 106.777H812.519ZM825.238 97.4168V96.6488C825.238 95.6408 825.91 95.3048 826.75 95.3048C827.302 95.3048 827.83 95.4488 827.974 95.4968V92.6888C827.71 92.5928 826.822 92.3768 825.742 92.3768C823.366 92.3768 822.046 94.1528 822.046 96.6248V97.4168H820.054V100.201H822.046V109.801H825.238V100.201H828.166V97.4168H825.238ZM840.777 104.497C840.801 104.281 840.825 103.921 840.825 103.561C840.825 100.105 838.281 97.2728 835.065 97.2728C831.657 97.2728 828.945 100.033 828.945 103.609C828.945 107.257 831.585 109.945 835.161 109.945C839.121 109.945 840.465 106.825 840.609 105.745H837.417C837.177 106.417 836.409 107.137 835.161 107.137C833.313 107.137 832.449 105.961 832.257 104.497H840.777ZM835.065 100.081C836.505 100.081 837.321 101.041 837.585 102.361H832.353C832.641 101.041 833.553 100.081 835.065 100.081ZM842.557 105.625C842.581 107.641 844.261 109.945 847.429 109.945C850.141 109.945 852.181 108.457 852.229 105.913C852.277 104.161 851.053 102.793 848.629 102.241L846.949 101.857C846.325 101.713 846.013 101.401 846.013 100.897C846.013 100.273 846.565 99.8168 847.453 99.8168C848.341 99.8168 848.989 100.441 849.013 101.329H851.845C851.845 99.3368 850.141 97.2728 847.477 97.2728C844.789 97.2728 842.869 98.7848 842.869 100.945C842.869 102.721 843.805 104.041 846.133 104.617L847.645 104.977C848.605 105.217 849.085 105.505 849.085 106.129C849.085 106.801 848.413 107.209 847.573 107.209C846.589 107.209 845.773 106.633 845.749 105.625H842.557ZM853.807 105.625C853.831 107.641 855.511 109.945 858.679 109.945C861.391 109.945 863.431 108.457 863.479 105.913C863.527 104.161 862.303 102.793 859.879 102.241L858.199 101.857C857.575 101.713 857.263 101.401 857.263 100.897C857.263 100.273 857.815 99.8168 858.703 99.8168C859.591 99.8168 860.239 100.441 860.263 101.329H863.095C863.095 99.3368 861.391 97.2728 858.727 97.2728C856.039 97.2728 854.119 98.7848 854.119 100.945C854.119 102.721 855.055 104.041 857.383 104.617L858.895 104.977C859.855 105.217 860.335 105.505 860.335 106.129C860.335 106.801 859.663 107.209 858.823 107.209C857.839 107.209 857.023 106.633 856.999 105.625H853.807ZM867.505 96.0488C868.657 96.0488 869.689 95.0888 869.689 93.8888C869.689 92.7128 868.705 91.7768 867.505 91.7768C866.305 91.7768 865.369 92.7128 865.369 93.8888C865.369 95.0888 866.305 96.0488 867.505 96.0488ZM869.089 97.4168H865.897V109.801H869.089V97.4168ZM877.675 109.945H877.699C881.083 109.945 883.819 107.089 883.819 103.609C883.819 100.129 881.083 97.2728 877.699 97.2728H877.675C874.267 97.2728 871.531 100.105 871.531 103.609C871.531 107.113 874.267 109.945 877.675 109.945ZM877.675 106.777C875.995 106.777 874.699 105.337 874.699 103.609C874.699 101.881 875.995 100.465 877.675 100.441H877.699C879.331 100.441 880.627 101.881 880.627 103.609C880.627 105.337 879.355 106.777 877.699 106.777H877.675ZM892.699 97.2728C891.283 97.2728 889.987 97.9448 889.267 99.0488V97.4168H886.171V109.801H889.363V102.913C889.363 101.449 890.395 100.465 891.715 100.465C893.011 100.465 894.043 101.425 894.043 102.889V109.801H897.235V102.505C897.235 98.9528 895.459 97.2728 892.699 97.2728ZM908.584 99.0008C907.672 97.9448 906.4 97.2728 904.96 97.2728C902.008 97.2728 899.656 100.105 899.656 103.609C899.656 107.113 902.008 109.945 904.96 109.945C906.4 109.945 907.648 109.273 908.584 108.217V109.801H911.776V97.4168H908.584V99.0008ZM905.728 106.777C904.12 106.777 902.824 105.361 902.824 103.609C902.824 101.857 904.12 100.465 905.728 100.465C907.336 100.465 908.584 101.857 908.584 103.609C908.584 105.361 907.336 106.777 905.728 106.777ZM915.118 92.5208V109.801H918.31V92.5208H915.118Z" fill="white"/>
<path d="M831.323 128.099C831.917 127.769 832.345 127.132 832.345 126.406C832.345 125.241 831.301 124.285 830.081 124.285H826.926V132.199H830.4C831.587 132.199 832.653 131.243 832.653 130.078C832.664 129.242 832.18 128.462 831.323 128.11V128.099ZM830.081 125.428C830.707 125.428 831.202 125.923 831.202 126.538C831.202 127.099 830.74 127.593 830.125 127.604H828.069V125.428H830.081ZM828.069 131.056V128.759H830.4C831.015 128.759 831.51 129.297 831.51 129.913C831.51 130.539 831.015 131.056 830.4 131.056H828.069ZM837.531 126.527V129.825C837.531 130.528 836.959 131.133 836.234 131.133C835.519 131.133 834.947 130.539 834.947 129.825V126.527H833.804V129.957C833.804 131.243 834.574 132.265 835.827 132.265C836.53 132.265 837.146 131.891 837.531 131.43V132.133C837.531 133.156 836.959 133.826 836.047 133.826C835.178 133.826 834.695 133.375 834.607 132.672H833.408C833.474 133.804 834.376 134.903 836.025 134.903C837.564 134.903 838.674 133.749 838.674 132.089V126.527H837.531Z" fill="white"/>
<g clip-path="url(#clip0_7908_116422)">
<path fill-rule="evenodd" clip-rule="evenodd" d="M864.47 131.782C863.131 131.782 862.046 130.693 862.046 129.348C862.046 128.004 863.131 126.914 864.47 126.914C865.809 126.914 866.894 128.004 866.894 129.348C866.894 129.994 866.639 130.613 866.184 131.07C865.729 131.526 865.113 131.782 864.47 131.782ZM866.898 122.967V126.751C865.491 125.424 863.285 125.47 861.934 126.855C860.583 128.24 860.583 130.456 861.934 131.841C863.285 133.226 865.491 133.272 866.898 131.945V132.729H868.019V122.967H866.898ZM898.095 131.782C896.756 131.782 895.67 130.693 895.67 129.348C895.67 128.004 896.756 126.914 898.095 126.914C899.433 126.914 900.519 128.004 900.519 129.348C900.519 129.994 900.263 130.613 899.809 131.07C899.354 131.526 898.738 131.782 898.095 131.782ZM901.642 129.348V125.823H900.522V126.751C899.115 125.424 896.909 125.47 895.558 126.855C894.207 128.24 894.207 130.456 895.558 131.841C896.909 133.226 899.115 133.272 900.522 131.945V132.729H901.643V129.348H901.642ZM910.577 126.085C910.677 125.92 910.856 125.819 911.049 125.819H911.265C911.722 125.819 912.094 126.192 912.094 126.651V132.729H910.95V127.58C910.423 128.435 908.535 131.534 907.969 132.464C907.868 132.629 907.69 132.729 907.497 132.729H907.264C906.958 132.729 906.711 132.481 906.711 132.174V127.567C906.093 128.569 904.196 131.681 903.599 132.677L903.568 132.729H902.472V125.821H903.615V125.835L903.588 130.601L906.329 126.086C906.429 125.921 906.608 125.82 906.801 125.82H907.018C907.475 125.82 907.846 126.192 907.847 126.651C907.847 127.921 907.853 130.234 907.853 130.57L910.577 126.085ZM894.433 131.446C893.521 132.705 891.9 133.223 890.431 132.725C888.962 132.227 887.986 130.828 888.02 129.272C888.054 127.715 889.091 126.362 890.581 125.929C892.07 125.497 893.667 126.086 894.523 127.384L893.449 127.945C892.869 127.125 891.836 126.762 890.874 127.041C889.912 127.32 889.231 128.179 889.176 129.183C889.121 130.187 889.704 131.117 890.63 131.5C891.555 131.883 892.621 131.637 893.287 130.886L894.433 131.446ZM916.376 131.788C915.094 131.787 914.035 130.785 913.958 129.5V129.209C914.037 127.886 915.156 126.869 916.475 126.922C917.794 126.975 918.828 128.078 918.801 129.403C918.775 130.729 917.697 131.789 916.377 131.789L916.376 131.788ZM916.377 125.792C915.479 125.791 914.614 126.133 913.958 126.75V125.823H912.837V135.549H913.958V131.958C915.121 133.048 916.864 133.227 918.222 132.397C919.581 131.566 920.223 129.929 919.793 128.392C919.364 126.854 917.968 125.791 916.377 125.792V125.792ZM878.398 126.901V131.149C878.398 131.401 878.601 131.605 878.852 131.605H880.157V132.729H878.853C877.984 132.728 877.28 132.021 877.279 131.149L877.275 126.901H876.067V125.807H877.275V123.918H878.397V125.811H880.386V126.901H878.398ZM883.829 131.782C882.49 131.782 881.404 130.692 881.404 129.348C881.404 128.003 882.49 126.913 883.829 126.913C885.168 126.913 886.253 128.003 886.253 129.348C886.253 129.993 885.997 130.612 885.543 131.069C885.088 131.525 884.472 131.782 883.829 131.782ZM886.256 125.822V126.751C884.849 125.424 882.643 125.47 881.292 126.855C879.941 128.24 879.941 130.456 881.292 131.841C882.643 133.226 884.849 133.272 886.256 131.945V132.729H887.377V125.821L886.256 125.822ZM872.016 131.782C870.677 131.782 869.591 130.693 869.591 129.348C869.591 128.004 870.677 126.914 872.016 126.914C873.354 126.914 874.44 128.004 874.44 129.348C874.44 129.994 874.185 130.613 873.73 131.07C873.275 131.526 872.659 131.783 872.016 131.782ZM874.443 125.823V126.751C873.036 125.424 870.83 125.47 869.479 126.855C868.128 128.24 868.128 130.456 869.479 131.841C870.83 133.226 873.036 133.272 874.443 131.945V132.729H875.563V125.821L874.443 125.823Z" fill="white"/>
<path fill-rule="evenodd" clip-rule="evenodd" d="M851.332 123.838V127.4L847.568 129.556V121.669L851.332 123.838ZM852.55 131.322V128.112L857.59 125.223L856.364 124.518L852.55 126.703V123.482C852.549 123.263 852.432 123.061 852.244 122.951L847.652 120.308C847.64 120.301 847.628 120.294 847.615 120.288C847.343 120.155 847.021 120.172 846.764 120.334C846.506 120.496 846.351 120.779 846.351 121.084V130.14C846.35 130.445 846.506 130.728 846.763 130.891C847.02 131.053 847.343 131.07 847.616 130.937L847.651 130.919L851.329 128.811V131.683C851.33 131.903 851.447 132.105 851.636 132.215L856.356 134.904L857.583 134.198L852.55 131.322Z" fill="#03EF62"/>
</g>
<g filter="url(#filter0_dd_7908_116422)">
<path d="M953.65 86.1C953.65 56.0281 978.028 31.65 1008.1 31.65C1038.17 31.65 1062.55 56.0281 1062.55 86.1V155.4C1062.55 158.134 1060.33 160.35 1057.6 160.35H958.6C955.866 160.35 953.65 158.134 953.65 155.4V86.1Z" fill="#05192D" stroke="#FCCE0D" stroke-width="3.3"/>
<circle cx="1008.1" cy="81.1504" r="41.25" stroke="url(#paint7_linear_7908_116422)" stroke-width="1.65"/>
<circle cx="1008.1" cy="81.1504" r="33" stroke="url(#paint8_linear_7908_116422)" stroke-width="1.65"/>
<circle cx="1008.1" cy="79.5004" r="23.1" fill="url(#paint9_linear_7908_116422)"/>
<g filter="url(#filter1_d_7908_116422)">
<circle cx="1008.1" cy="79.5" r="16.5" fill="white"/>
</g>
<path fill-rule="evenodd" clip-rule="evenodd" d="M1008.1 70.6992C1011.44 70.6992 1014.15 73.4079 1014.15 76.7492C1014.15 78.6279 1013.29 80.3066 1011.95 81.4163V87.3598C1011.95 88.1234 1011.2 88.6414 1010.5 88.4023L1010.38 88.3553L1008.1 87.2811L1005.82 88.355C1005.13 88.6805 1004.34 88.2198 1004.26 87.4848L1004.25 87.3598V81.4164C1002.91 80.3067 1002.05 78.628 1002.05 76.7492C1002.05 73.4079 1004.76 70.6992 1008.1 70.6992ZM1006.45 82.5715V85.6245L1007.63 85.071C1007.88 84.9513 1008.17 84.9341 1008.44 85.0194L1008.56 85.0706L1009.75 85.6267V82.5715C1009.23 82.7198 1008.67 82.7992 1008.1 82.7992C1007.53 82.7992 1006.97 82.7198 1006.45 82.5715ZM1008.1 72.899C1005.97 72.899 1004.25 74.6227 1004.25 76.749C1004.25 78.8753 1005.97 80.599 1008.1 80.599C1010.23 80.599 1011.95 78.8753 1011.95 76.749C1011.95 74.6227 1010.23 72.899 1008.1 72.899Z" fill="#05192D"/>
<path d="M952 142.201H1064.2V155.401C1064.2 159.046 1061.25 162.001 1057.6 162.001H958.6C954.955 162.001 952 159.046 952 155.401V142.201Z" fill="#FCCE0D"/>
<path d="M967.14 147.724H964.259V154.852H965.576V152.317H967.15C968.467 152.317 969.427 151.179 969.427 150.02C969.427 148.872 968.467 147.733 967.14 147.724ZM965.576 151.01V149.04H967.12C967.714 149.04 968.101 149.535 968.101 150.02C968.101 150.515 967.714 151.01 967.12 151.01H965.576ZM976.946 154.852L975.55 152.099C976.302 151.723 976.876 150.921 976.876 150.03C976.876 148.803 975.787 147.724 974.639 147.724H971.719V154.852H973.035V152.317H974.184L975.461 154.852H976.946ZM974.639 149.04C975.154 149.04 975.56 149.515 975.56 150.03C975.56 150.545 975.154 151.01 974.639 151.01H973.035V149.04H974.639ZM982.473 154.911C984.473 154.911 986.087 153.287 986.087 151.288C986.087 149.288 984.473 147.664 982.473 147.664C980.473 147.664 978.87 149.288 978.87 151.288C978.87 153.287 980.473 154.911 982.473 154.911ZM982.473 153.594C981.196 153.594 980.186 152.565 980.186 151.288C980.186 150.01 981.196 148.981 982.473 148.981C983.75 148.981 984.77 150.01 984.77 151.288C984.77 152.565 983.75 153.594 982.473 153.594ZM988.532 147.724V154.852H989.848V151.99H993.036V150.684H989.848V149.04H993.393V147.724H988.532ZM995.778 147.724V154.852H1000.76V153.535H997.095V151.941H1000.38V150.634H997.095V149.04H1000.76V147.724H995.778ZM1002.95 152.357C1002.96 153.941 1004.16 154.911 1005.59 154.911C1007.01 154.911 1008.01 154.03 1008.01 152.763C1008.01 151.664 1007.34 150.991 1006.01 150.654L1005.2 150.446C1004.66 150.307 1004.5 150.01 1004.5 149.723C1004.5 149.337 1004.85 148.921 1005.46 148.921C1006.07 148.921 1006.48 149.357 1006.48 149.951H1007.78C1007.78 148.723 1006.91 147.664 1005.52 147.664C1004.26 147.664 1003.15 148.506 1003.15 149.713C1003.15 150.674 1003.83 151.426 1004.99 151.713L1005.82 151.921C1006.34 152.05 1006.65 152.367 1006.65 152.782C1006.65 153.208 1006.31 153.644 1005.59 153.644C1004.81 153.644 1004.29 153.178 1004.28 152.357H1002.95ZM1010.01 152.357C1010.02 153.941 1011.22 154.911 1012.66 154.911C1014.07 154.911 1015.07 154.03 1015.07 152.763C1015.07 151.664 1014.41 150.991 1013.07 150.654L1012.26 150.446C1011.72 150.307 1011.57 150.01 1011.57 149.723C1011.57 149.337 1011.91 148.921 1012.53 148.921C1013.13 148.921 1013.55 149.357 1013.55 149.951H1014.84C1014.84 148.723 1013.97 147.664 1012.59 147.664C1011.32 147.664 1010.21 148.506 1010.21 149.713C1010.21 150.674 1010.89 151.426 1012.05 151.713L1012.88 151.921C1013.41 152.05 1013.71 152.367 1013.71 152.782C1013.71 153.208 1013.37 153.644 1012.66 153.644C1011.87 153.644 1011.35 153.178 1011.34 152.357H1010.01ZM1017.41 147.724V154.852H1018.73V147.724H1017.41ZM1024.77 154.911C1026.77 154.911 1028.39 153.287 1028.39 151.288C1028.39 149.288 1026.77 147.664 1024.77 147.664C1022.77 147.664 1021.17 149.288 1021.17 151.288C1021.17 153.287 1022.77 154.911 1024.77 154.911ZM1024.77 153.594C1023.5 153.594 1022.49 152.565 1022.49 151.288C1022.49 150.01 1023.5 148.981 1024.77 148.981C1026.05 148.981 1027.07 150.01 1027.07 151.288C1027.07 152.565 1026.05 153.594 1024.77 153.594ZM1035.5 151.486V152.852H1035.49C1035.21 152.317 1034.99 151.931 1034.71 151.486L1032.37 147.724H1030.82V154.852H1032.14V151.08V149.743H1032.15C1032.43 150.248 1032.68 150.694 1032.93 151.09L1035.3 154.852H1036.82V147.724H1035.5V151.486ZM1045.95 154.852L1043.19 147.724H1041.75L1038.98 154.852H1040.41L1041.11 153.03H1043.82L1044.52 154.852H1045.95ZM1041.83 151.169C1042.08 150.555 1042.27 150.03 1042.46 149.456H1042.47C1042.67 150.03 1042.86 150.555 1043.1 151.169L1043.35 151.812H1041.58L1041.83 151.169ZM1049.43 147.724H1048.11V154.852H1052.49V153.535H1049.43V147.724Z" fill="#05192D"/>
<g clip-path="url(#clip1_7908_116422)">
<path fill-rule="evenodd" clip-rule="evenodd" d="M988.052 109.835V112.07L985.745 113.423V108.473L988.052 109.835ZM988.798 114.531V112.517L991.886 110.704L991.135 110.261L988.798 111.633V109.611C988.797 109.473 988.726 109.347 988.61 109.278L985.797 107.619C985.79 107.614 985.782 107.611 985.775 107.607C985.607 107.523 985.41 107.534 985.253 107.635C985.095 107.737 985 107.915 985 108.106V113.789C984.999 113.981 985.095 114.159 985.252 114.261C985.41 114.363 985.608 114.374 985.775 114.29L985.796 114.279L988.05 112.955V114.758C988.05 114.896 988.122 115.023 988.238 115.092L991.13 116.779L991.881 116.337L988.798 114.531Z" fill="#03EF62"/>
</g>
<path d="M998.216 115.589C999.723 115.589 1000.79 114.62 1001.09 113.373H1000.1C999.813 114.171 999.068 114.656 998.216 114.656C996.915 114.656 995.91 113.606 995.91 112.305C995.91 111.004 996.915 109.954 998.216 109.954C998.997 109.954 999.831 110.484 1000.07 111.228H1001.06C1000.79 110.062 999.688 109.021 998.216 109.021C996.403 109.021 994.977 110.492 994.977 112.305C994.977 114.118 996.403 115.589 998.216 115.589Z" fill="white"/>
<path d="M1006.16 113.507C1006.17 113.409 1006.18 113.292 1006.18 113.166C1006.18 111.901 1005.27 110.851 1004.03 110.851C1002.75 110.851 1001.81 111.901 1001.81 113.22C1001.81 114.566 1002.74 115.589 1004.07 115.589C1005.5 115.589 1006.03 114.494 1006.1 114.055H1005.14C1005.05 114.324 1004.72 114.746 1004.07 114.746C1003.28 114.746 1002.85 114.198 1002.77 113.507H1006.16ZM1004.03 111.695C1004.72 111.695 1005.13 112.188 1005.23 112.807H1002.8C1002.92 112.179 1003.34 111.695 1004.03 111.695Z" fill="white"/>
<path d="M1009.33 110.851C1008.77 110.851 1008.35 111.112 1008.1 111.515V110.905H1007.17V115.535H1008.1V113.05C1008.1 112.161 1008.6 111.767 1009.3 111.767C1009.5 111.767 1009.68 111.794 1009.78 111.811V110.878C1009.68 110.869 1009.55 110.851 1009.33 110.851Z" fill="white"/>
<path d="M1012.41 114.719C1012.07 114.719 1011.84 114.566 1011.84 114.18V111.722H1013.03V110.905H1011.84V109.595H1010.91V110.905H1010.12V111.722H1010.91V114.198C1010.91 115.14 1011.42 115.589 1012.24 115.589C1012.56 115.589 1012.87 115.481 1013.03 115.419V114.548C1012.91 114.602 1012.65 114.719 1012.41 114.719Z" fill="white"/>
<path d="M1014.46 110.25C1014.83 110.25 1015.15 109.954 1015.15 109.577C1015.15 109.2 1014.84 108.904 1014.46 108.904C1014.08 108.904 1013.78 109.2 1013.78 109.577C1013.78 109.954 1014.08 110.25 1014.46 110.25ZM1014.91 110.905H1013.98V115.535H1014.91V110.905Z" fill="white"/>
<path d="M1017.55 110.905V110.475C1017.55 110.08 1017.82 109.9 1018.15 109.9C1018.38 109.9 1018.58 109.954 1018.71 110.008V109.147C1018.56 109.093 1018.25 109.021 1017.9 109.021C1017.11 109.021 1016.62 109.613 1016.62 110.457V110.905H1015.87V111.722H1016.62V115.535H1017.55V111.722H1018.74V110.905H1017.55Z" fill="white"/>
<path d="M1020.08 110.25C1020.46 110.25 1020.77 109.954 1020.77 109.577C1020.77 109.2 1020.47 108.904 1020.08 108.904C1019.7 108.904 1019.41 109.2 1019.41 109.577C1019.41 109.954 1019.7 110.25 1020.08 110.25ZM1020.54 110.905H1019.61V115.535H1020.54V110.905Z" fill="white"/>
<path d="M1025.95 113.507C1025.96 113.409 1025.97 113.292 1025.97 113.166C1025.97 111.901 1025.05 110.851 1023.81 110.851C1022.54 110.851 1021.6 111.901 1021.6 113.22C1021.6 114.566 1022.52 115.589 1023.86 115.589C1025.29 115.589 1025.81 114.494 1025.89 114.055H1024.93C1024.84 114.324 1024.5 114.746 1023.86 114.746C1023.07 114.746 1022.64 114.198 1022.56 113.507H1025.95ZM1023.81 111.695C1024.5 111.695 1024.92 112.188 1025.02 112.807H1022.58C1022.7 112.179 1023.12 111.695 1023.81 111.695Z" fill="white"/>
<path d="M1030.27 109.075V111.614C1029.97 111.174 1029.43 110.851 1028.8 110.851C1027.72 110.851 1026.78 111.856 1026.78 113.22C1026.78 114.584 1027.72 115.589 1028.8 115.589C1029.43 115.589 1029.93 115.347 1030.27 114.826V115.535H1031.2V109.075H1030.27ZM1029.02 114.683C1028.26 114.683 1027.71 114.028 1027.71 113.22C1027.71 112.413 1028.26 111.767 1029.02 111.767C1029.78 111.767 1030.27 112.413 1030.27 113.22C1030.27 114.028 1029.78 114.683 1029.02 114.683Z" fill="white"/>
<path d="M964.895 122.437V131.941H968.604C971.204 131.941 973.356 129.869 973.356 127.189C973.356 124.51 971.191 122.437 968.604 122.437H964.895ZM966.65 130.186V124.193H968.604C970.254 124.193 971.6 125.539 971.6 127.189C971.6 128.839 970.254 130.186 968.604 130.186H966.65ZM979.192 126.001C978.69 125.421 977.99 125.051 977.198 125.051C975.575 125.051 974.281 126.609 974.281 128.536C974.281 130.463 975.575 132.021 977.198 132.021C977.99 132.021 978.677 131.651 979.192 131.07V131.941H980.947V125.13H979.192V126.001ZM977.621 130.278C976.736 130.278 976.024 129.499 976.024 128.536C976.024 127.572 976.736 126.807 977.621 126.807C978.505 126.807 979.192 127.572 979.192 128.536C979.192 129.499 978.505 130.278 977.621 130.278ZM985.795 130.41C985.307 130.41 984.963 130.212 984.963 129.684V126.661H986.574V125.13H984.963V123.19H983.208V125.13H982.099V126.661H983.208V129.724C983.208 131.321 984.053 132.021 985.399 132.021C985.782 132.021 986.204 131.941 986.574 131.836V130.278C986.336 130.344 986.059 130.41 985.795 130.41ZM992.276 126.001C991.774 125.421 991.074 125.051 990.282 125.051C988.659 125.051 987.365 126.609 987.365 128.536C987.365 130.463 988.659 132.021 990.282 132.021C991.074 132.021 991.761 131.651 992.276 131.07V131.941H994.031V125.13H992.276V126.001ZM990.705 130.278C989.82 130.278 989.108 129.499 989.108 128.536C989.108 127.572 989.82 126.807 990.705 126.807C991.589 126.807 992.276 127.572 992.276 128.536C992.276 129.499 991.589 130.278 990.705 130.278ZM999.341 128.615C999.354 130.727 1000.95 132.021 1002.87 132.021C1004.75 132.021 1006.09 130.846 1006.09 129.156C1006.09 127.691 1005.2 126.793 1003.42 126.345L1002.34 126.067C1001.62 125.883 1001.41 125.487 1001.41 125.104C1001.41 124.589 1001.88 124.035 1002.69 124.035C1003.5 124.035 1004.05 124.615 1004.05 125.407H1005.78C1005.78 123.771 1004.62 122.358 1002.77 122.358C1001.08 122.358 999.605 123.48 999.605 125.091C999.605 126.371 1000.52 127.374 1002.06 127.757L1003.17 128.034C1003.87 128.206 1004.28 128.628 1004.28 129.183C1004.28 129.75 1003.82 130.331 1002.87 130.331C1001.82 130.331 1001.12 129.711 1001.11 128.615H999.341ZM1013.52 127.665C1013.44 126.595 1012.42 125.051 1010.38 125.051C1008.5 125.051 1007 126.609 1007 128.536C1007 130.463 1008.5 132.021 1010.38 132.021C1012.22 132.021 1013.44 130.41 1013.49 129.407H1011.75C1011.63 129.935 1011.05 130.357 1010.38 130.357C1009.4 130.357 1008.74 129.486 1008.74 128.536C1008.74 127.585 1009.35 126.714 1010.38 126.714C1011 126.714 1011.56 127.084 1011.74 127.665H1013.52ZM1015.75 124.378C1016.39 124.378 1016.95 123.85 1016.95 123.19C1016.95 122.543 1016.41 122.028 1015.75 122.028C1015.09 122.028 1014.58 122.543 1014.58 123.19C1014.58 123.85 1015.09 124.378 1015.75 124.378ZM1016.62 125.13H1014.87V131.941H1016.62V125.13ZM1024.48 129.024C1024.49 128.905 1024.5 128.707 1024.5 128.509C1024.5 126.609 1023.1 125.051 1021.33 125.051C1019.46 125.051 1017.97 126.569 1017.97 128.536C1017.97 130.542 1019.42 132.021 1021.39 132.021C1023.56 132.021 1024.3 130.305 1024.38 129.711H1022.63C1022.5 130.08 1022.07 130.476 1021.39 130.476C1020.37 130.476 1019.89 129.829 1019.79 129.024H1024.48ZM1021.33 126.595C1022.13 126.595 1022.57 127.123 1022.72 127.849H1019.84C1020 127.123 1020.5 126.595 1021.33 126.595ZM1029.39 125.051C1028.61 125.051 1027.9 125.421 1027.5 126.028V125.13H1025.8V131.941H1027.56V128.153C1027.56 127.348 1028.12 126.807 1028.85 126.807C1029.56 126.807 1030.13 127.335 1030.13 128.14V131.941H1031.89V127.929C1031.89 125.975 1030.91 125.051 1029.39 125.051ZM1036.39 130.41C1035.9 130.41 1035.56 130.212 1035.56 129.684V126.661H1037.17V125.13H1035.56V123.19H1033.8V125.13H1032.69V126.661H1033.8V129.724C1033.8 131.321 1034.65 132.021 1035.99 132.021C1036.38 132.021 1036.8 131.941 1037.17 131.836V130.278C1036.93 130.344 1036.65 130.41 1036.39 130.41ZM1039.37 124.378C1040 124.378 1040.57 123.85 1040.57 123.19C1040.57 122.543 1040.03 122.028 1039.37 122.028C1038.71 122.028 1038.19 122.543 1038.19 123.19C1038.19 123.85 1038.71 124.378 1039.37 124.378ZM1040.24 125.13H1038.48V131.941H1040.24V125.13ZM1041.58 129.645C1041.59 130.753 1042.52 132.021 1044.26 132.021C1045.75 132.021 1046.87 131.202 1046.9 129.803C1046.93 128.839 1046.25 128.087 1044.92 127.783L1044 127.572C1043.65 127.493 1043.48 127.321 1043.48 127.044C1043.48 126.701 1043.78 126.45 1044.27 126.45C1044.76 126.45 1045.12 126.793 1045.13 127.282H1046.69C1046.69 126.186 1045.75 125.051 1044.29 125.051C1042.81 125.051 1041.75 125.883 1041.75 127.071C1041.75 128.047 1042.27 128.773 1043.55 129.09L1044.38 129.288C1044.91 129.42 1045.17 129.579 1045.17 129.922C1045.17 130.291 1044.8 130.516 1044.34 130.516C1043.8 130.516 1043.35 130.199 1043.34 129.645H1041.58ZM1051.07 130.41C1050.58 130.41 1050.24 130.212 1050.24 129.684V126.661H1051.85V125.13H1050.24V123.19H1048.49V125.13H1047.38V126.661H1048.49V129.724C1048.49 131.321 1049.33 132.021 1050.68 132.021C1051.06 132.021 1051.48 131.941 1051.85 131.836V130.278C1051.61 130.344 1051.34 130.41 1051.07 130.41Z" fill="white"/>
</g>
<defs>
<filter id="filter0_dd_7908_116422" x="947.05" y="26.7" width="122.1" height="141.902" filterUnits="userSpaceOnUse" color-interpolation-filters="sRGB">
<feFlood flood-opacity="0" result="BackgroundImageFix"/>
<feColorMatrix in="SourceAlpha" type="matrix" values="0 0 0 0 0 0 0 0 0 0 0 0 0 0 0 0 0 0 127 0" result="hardAlpha"/>
<feMorphology radius="1.65" operator="erode" in="SourceAlpha" result="effect1_dropShadow_7908_116422"/>
<feOffset dy="1.65"/>
<feGaussianBlur stdDeviation="3.3"/>
<feColorMatrix type="matrix" values="0 0 0 0 0.0196078 0 0 0 0 0.0980392 0 0 0 0 0.176471 0 0 0 0.3 0"/>
<feBlend mode="normal" in2="BackgroundImageFix" result="effect1_dropShadow_7908_116422"/>
<feColorMatrix in="SourceAlpha" type="matrix" values="0 0 0 0 0 0 0 0 0 0 0 0 0 0 0 0 0 0 127 0" result="hardAlpha"/>
<feOffset/>
<feGaussianBlur stdDeviation="0.825"/>
<feColorMatrix type="matrix" values="0 0 0 0 0.0196078 0 0 0 0 0.0980392 0 0 0 0 0.176471 0 0 0 0.3 0"/>
<feBlend mode="normal" in2="effect1_dropShadow_7908_116422" result="effect2_dropShadow_7908_116422"/>
<feBlend mode="normal" in="SourceGraphic" in2="effect2_dropShadow_7908_116422" result="shape"/>
</filter>
<filter id="filter1_d_7908_116422" x="963.148" y="57.3095" width="89.9051" height="89.9051" filterUnits="userSpaceOnUse" color-interpolation-filters="sRGB">
<feFlood flood-opacity="0" result="BackgroundImageFix"/>
<feColorMatrix in="SourceAlpha" type="matrix" values="0 0 0 0 0 0 0 0 0 0 0 0 0 0 0 0 0 0 127 0" result="hardAlpha"/>
<feOffset dy="22.762"/>
<feGaussianBlur stdDeviation="14.2263"/>
<feComposite in2="hardAlpha" operator="out"/>
<feColorMatrix type="matrix" values="0 0 0 0 0 0 0 0 0 0.0313726 0 0 0 0 0.12549 0 0 0 1 0"/>
<feBlend mode="normal" in2="BackgroundImageFix" result="effect1_dropShadow_7908_116422"/>
<feBlend mode="normal" in="SourceGraphic" in2="effect1_dropShadow_7908_116422" result="shape"/>
</filter>
<linearGradient id="paint0_linear_7908_116422" x1="307.545" y1="240.086" x2="505.8" y2="321.019" gradientUnits="userSpaceOnUse">
<stop stop-color="#FCCE0D"/>
<stop offset="1" stop-color="#05192D"/>
</linearGradient>
<linearGradient id="paint1_linear_7908_116422" x1="308.684" y1="162.403" x2="317.709" y2="73.067" gradientUnits="userSpaceOnUse">
<stop stop-color="#FCCE0D"/>
<stop offset="1" stop-color="#05192D"/>
</linearGradient>
<linearGradient id="paint2_linear_7908_116422" x1="13.6872" y1="28.5287" x2="57.4554" y2="213.187" gradientUnits="userSpaceOnUse">
<stop stop-color="#FCCE0D"/>
<stop offset="1" stop-color="#05192D"/>
</linearGradient>
<linearGradient id="paint3_linear_7908_116422" x1="5.54523" y1="-2.99998" x2="145.366" y2="-30.2698" gradientUnits="userSpaceOnUse">
<stop stop-color="#FCCE0D"/>
<stop offset="1" stop-color="#05192D"/>
</linearGradient>
<linearGradient id="paint4_linear_7908_116422" x1="23.6776" y1="68.021" x2="187.133" y2="68.021" gradientUnits="userSpaceOnUse">
<stop stop-color="#FCCE0D"/>
<stop offset="1" stop-color="#05192D"/>
</linearGradient>
<linearGradient id="paint5_linear_7908_116422" x1="393.661" y1="-96" x2="355.412" y2="57.6174" gradientUnits="userSpaceOnUse">
<stop stop-color="#FCCE0D"/>
<stop offset="1" stop-color="#05192D"/>
</linearGradient>
<linearGradient id="paint6_linear_7908_116422" x1="4.9115" y1="79.5664" x2="-18.6637" y2="-79.0752" gradientUnits="userSpaceOnUse">
<stop stop-color="#FCCE0D"/>
<stop offset="1" stop-color="#05192D"/>
</linearGradient>
<linearGradient id="paint7_linear_7908_116422" x1="1008.1" y1="39.9004" x2="1008.1" y2="99.1973" gradientUnits="userSpaceOnUse">
<stop stop-color="#FCCE0D"/>
<stop offset="1" stop-color="#05192D"/>
</linearGradient>
<linearGradient id="paint8_linear_7908_116422" x1="1008.1" y1="48.1504" x2="1008.1" y2="95.5879" gradientUnits="userSpaceOnUse">
<stop stop-color="#FCCE0D"/>
<stop offset="1" stop-color="#05192D"/>
</linearGradient>
<linearGradient id="paint9_linear_7908_116422" x1="1008.1" y1="56.4004" x2="1008.1" y2="102.6" gradientUnits="userSpaceOnUse">
<stop stop-color="#FCCE0D"/>
<stop offset="1" stop-color="#FCCE0D" stop-opacity="0.58"/>
</linearGradient>
<clipPath id="clip0_7908_116422">
<rect width="73.649" height="15.3893" fill="white" transform="translate(846.351 120.199)"/>
</clipPath>
<clipPath id="clip1_7908_116422">
<rect width="7.04252" height="9.39003" fill="white" transform="translate(985 107.551)"/>
</clipPath>
</defs>
</svg>
