<svg width="1500" height="500" viewBox="0 0 1500 500" fill="none" xmlns="http://www.w3.org/2000/svg">
<g clip-path="url(#clip0_7908_116564)">
<rect width="1500" height="500" fill="#05192D"/>
<mask id="mask0_7908_116564" style="mask-type:alpha" maskUnits="userSpaceOnUse" x="0" y="0" width="1500" height="500">
<rect width="1500" height="500" fill="#05192D"/>
</mask>
<g mask="url(#mask0_7908_116564)">
<path d="M-1.09448 332V332C32.2807 332 59.3367 304.944 59.3367 271.569L59.3366 -4.31239L-1.09451 -4.31238" stroke="url(#paint0_linear_7908_116564)" stroke-width="1.95036"/>
<rect x="-6.34912" y="-4.76367" width="284.395" height="112.951" stroke="url(#paint1_linear_7908_116564)" stroke-width="1.95036"/>
<circle cx="279.054" cy="109.193" r="77.654" stroke="url(#paint2_linear_7908_116564)" stroke-width="1.95036"/>
<path d="M525 33.245C525 67.6825 552.917 95.5996 587.355 95.5996L930.972 95.5997L930.972 -5.38841L525 -5.38849L525 33.245Z" stroke="url(#paint3_linear_7908_116564)" stroke-width="1.94858"/>
<rect width="181.457" height="189.857" rx="90.7283" transform="matrix(1 9.20383e-08 8.30387e-08 -1 840.368 95.5996)" stroke="url(#paint4_linear_7908_116564)" stroke-width="1.94858"/>
<path d="M733.381 458.627C733.381 433.189 712.759 412.568 687.322 412.568L182.54 412.568L182.54 533.605L733.381 533.605L733.381 458.627Z" stroke="url(#paint5_linear_7908_116564)" stroke-width="1.91911"/>
<path d="M380.523 353.213C380.523 315.057 349.591 284.125 311.435 284.125L182.54 284.125L182.54 454.801L380.523 454.801L380.523 353.213Z" stroke="url(#paint6_linear_7908_116564)" stroke-width="1.91911"/>
</g>
<path d="M827.76 215.727C836.743 215.727 842.631 209.589 843.779 202.802H836.892C835.645 206.744 831.952 209.09 827.76 209.09C821.322 209.09 816.232 203.9 816.232 197.462C816.232 191.025 821.322 185.835 827.76 185.835C831.752 185.835 835.744 188.529 836.842 192.272H843.729C842.631 186.134 836.892 179.197 827.76 179.197C817.679 179.197 809.595 187.382 809.595 197.462C809.595 207.543 817.679 215.727 827.76 215.727ZM872.115 204.399C872.165 203.95 872.215 203.201 872.215 202.453C872.215 195.266 866.925 189.378 860.238 189.378C853.152 189.378 847.513 195.117 847.513 202.552C847.513 210.138 853.002 215.727 860.438 215.727C868.672 215.727 871.466 209.24 871.766 206.994H865.129C864.63 208.391 863.033 209.888 860.438 209.888C856.595 209.888 854.799 207.443 854.399 204.399H872.115ZM860.238 195.217C863.232 195.217 864.929 197.213 865.478 199.957H854.599C855.198 197.213 857.094 195.217 860.238 195.217ZM890.75 189.378C887.805 189.378 885.31 190.575 883.763 193.121V189.677H877.126V215.428H883.763V202.652C883.763 197.911 886.208 195.865 890.051 195.865C891.698 195.865 892.995 196.115 893.594 196.215V189.577C892.995 189.527 892.047 189.378 890.75 189.378ZM909.22 209.639C907.373 209.639 906.076 208.89 906.076 206.894V195.466H912.164V189.677H906.076V182.341H899.439V189.677H895.247V195.466H899.439V207.044C899.439 213.082 902.632 215.727 907.723 215.727C909.17 215.727 910.767 215.428 912.164 215.029V209.14C911.266 209.389 910.218 209.639 909.22 209.639ZM920.479 186.833C922.875 186.833 925.021 184.836 925.021 182.341C925.021 179.896 922.975 177.95 920.479 177.95C917.984 177.95 916.038 179.896 916.038 182.341C916.038 184.836 917.984 186.833 920.479 186.833ZM923.773 189.677H917.136V215.428H923.773V189.677ZM939.37 189.677V188.08C939.37 185.984 940.767 185.286 942.514 185.286C943.661 185.286 944.759 185.585 945.059 185.685V179.846C944.51 179.646 942.663 179.197 940.418 179.197C935.477 179.197 932.732 182.89 932.732 188.03V189.677H928.59V195.466H932.732V215.428H939.37V195.466H945.458V189.677H939.37ZM953.18 186.833C955.576 186.833 957.721 184.836 957.721 182.341C957.721 179.896 955.675 177.95 953.18 177.95C950.685 177.95 948.739 179.896 948.739 182.341C948.739 184.836 950.685 186.833 953.18 186.833ZM956.474 189.677H949.837V215.428H956.474V189.677ZM986.154 204.399C986.204 203.95 986.254 203.201 986.254 202.453C986.254 195.266 980.964 189.378 974.277 189.378C967.19 189.378 961.551 195.117 961.551 202.552C961.551 210.138 967.041 215.727 974.476 215.727C982.711 215.727 985.505 209.24 985.805 206.994H979.167C978.668 208.391 977.071 209.888 974.476 209.888C970.634 209.888 968.837 207.443 968.438 204.399H986.154ZM974.277 195.217C977.271 195.217 978.968 197.213 979.517 199.957H968.638C969.236 197.213 971.133 195.217 974.277 195.217ZM1008.87 179.497V193.17C1007.22 190.975 1004.48 189.378 1001.43 189.378C995.395 189.378 990.305 194.817 990.305 202.552C990.305 210.288 995.395 215.727 1001.43 215.727C1004.48 215.727 1007.12 214.629 1008.87 211.934V215.428H1015.51V179.497H1008.87ZM1002.93 209.14C999.587 209.14 996.892 206.195 996.892 202.552C996.892 198.909 999.587 195.965 1002.93 195.965C1006.32 195.965 1008.87 198.909 1008.87 202.552C1008.87 206.195 1006.32 209.14 1002.93 209.14ZM1054.29 192.971C1052.39 190.775 1049.75 189.378 1046.75 189.378C1040.62 189.378 1035.73 195.266 1035.73 202.552C1035.73 209.838 1040.62 215.727 1046.75 215.727C1049.75 215.727 1052.34 214.33 1054.29 212.134V215.428H1060.93V189.677H1054.29V192.971ZM1048.35 209.14C1045.01 209.14 1042.31 206.195 1042.31 202.552C1042.31 198.909 1045.01 196.015 1048.35 196.015C1051.69 196.015 1054.29 198.909 1054.29 202.552C1054.29 206.195 1051.69 209.14 1048.35 209.14ZM1065.93 206.744C1065.98 210.936 1069.47 215.727 1076.06 215.727C1081.7 215.727 1085.94 212.633 1086.04 207.343C1086.14 203.7 1083.6 200.856 1078.56 199.708L1075.06 198.909C1073.77 198.61 1073.12 197.961 1073.12 196.913C1073.12 195.616 1074.26 194.668 1076.11 194.668C1077.96 194.668 1079.3 195.965 1079.35 197.812H1085.24C1085.24 193.67 1081.7 189.378 1076.16 189.378C1070.57 189.378 1066.58 192.522 1066.58 197.013C1066.58 200.706 1068.53 203.451 1073.37 204.648L1076.51 205.397C1078.51 205.896 1079.5 206.495 1079.5 207.792C1079.5 209.19 1078.11 210.038 1076.36 210.038C1074.31 210.038 1072.62 208.84 1072.57 206.744H1065.93ZM1122.96 192.971C1121.06 190.775 1118.42 189.378 1115.42 189.378C1109.28 189.378 1104.39 195.266 1104.39 202.552C1104.39 209.838 1109.28 215.727 1115.42 215.727C1118.42 215.727 1121.01 214.33 1122.96 212.134V215.428H1129.59V189.677H1122.96V192.971ZM1117.02 209.14C1113.67 209.14 1110.98 206.195 1110.98 202.552C1110.98 198.909 1113.67 196.015 1117.02 196.015C1120.36 196.015 1122.96 198.909 1122.96 202.552C1122.96 206.195 1120.36 209.14 1117.02 209.14ZM498.954 241.497V277.428H512.977C522.808 277.428 530.943 269.593 530.943 259.462C530.943 249.332 522.759 241.497 512.977 241.497H498.954ZM505.592 270.79V248.134H512.977C519.215 248.134 524.306 253.224 524.306 259.462C524.306 265.7 519.215 270.79 512.977 270.79H505.592ZM553.006 254.971C551.11 252.775 548.465 251.378 545.471 251.378C539.333 251.378 534.442 257.266 534.442 264.552C534.442 271.838 539.333 277.727 545.471 277.727C548.465 277.727 551.06 276.33 553.006 274.134V277.428H559.644V251.677H553.006V254.971ZM547.068 271.14C543.724 271.14 541.029 268.195 541.029 264.552C541.029 260.909 543.724 258.015 547.068 258.015C550.411 258.015 553.006 260.909 553.006 264.552C553.006 268.195 550.411 271.14 547.068 271.14ZM577.971 271.639C576.125 271.639 574.827 270.89 574.827 268.894V257.466H580.916V251.677H574.827V244.341H568.19V251.677H563.998V257.466H568.19V269.044C568.19 275.082 571.384 277.727 576.474 277.727C577.921 277.727 579.518 277.428 580.916 277.029V271.14C580.017 271.389 578.969 271.639 577.971 271.639ZM602.472 254.971C600.575 252.775 597.931 251.378 594.936 251.378C588.798 251.378 583.908 257.266 583.908 264.552C583.908 271.838 588.798 277.727 594.936 277.727C597.931 277.727 600.526 276.33 602.472 274.134V277.428H609.109V251.677H602.472V254.971ZM596.533 271.14C593.19 271.14 590.495 268.195 590.495 264.552C590.495 260.909 593.19 258.015 596.533 258.015C599.877 258.015 602.472 260.909 602.472 264.552C602.472 268.195 599.877 271.14 596.533 271.14ZM629.182 264.852C629.232 272.837 635.27 277.727 642.506 277.727C649.643 277.727 654.683 273.286 654.683 266.898C654.683 261.359 651.339 257.965 644.602 256.268L640.51 255.22C637.815 254.522 637.017 253.025 637.017 251.577C637.017 249.631 638.763 247.535 641.858 247.535C644.902 247.535 646.998 249.731 646.998 252.725H653.535C653.535 246.537 649.144 241.197 642.157 241.197C635.769 241.197 630.18 245.439 630.18 251.527C630.18 256.368 633.623 260.161 639.462 261.608L643.654 262.656C646.299 263.305 647.846 264.902 647.846 266.998C647.846 269.144 646.099 271.339 642.506 271.339C638.564 271.339 635.919 268.994 635.869 264.852H629.182ZM682.783 261.259C682.483 257.217 678.641 251.378 670.906 251.378C663.819 251.378 658.13 257.266 658.13 264.552C658.13 271.838 663.819 277.727 670.906 277.727C677.892 277.727 682.483 271.639 682.683 267.846H676.096C675.647 269.842 673.451 271.439 670.906 271.439C667.213 271.439 664.718 268.146 664.718 264.552C664.718 260.959 667.013 257.666 670.906 257.666C673.251 257.666 675.397 259.063 676.046 261.259H682.783ZM691.232 248.833C693.628 248.833 695.773 246.836 695.773 244.341C695.773 241.896 693.727 239.95 691.232 239.95C688.737 239.95 686.791 241.896 686.791 244.341C686.791 246.836 688.737 248.833 691.232 248.833ZM694.526 251.677H687.889V277.428H694.526V251.677ZM724.206 266.399C724.256 265.95 724.306 265.201 724.306 264.453C724.306 257.266 719.016 251.378 712.329 251.378C705.242 251.378 699.603 257.117 699.603 264.552C699.603 272.138 705.093 277.727 712.528 277.727C720.763 277.727 723.557 271.24 723.857 268.994H717.219C716.72 270.391 715.123 271.888 712.528 271.888C708.686 271.888 706.889 269.443 706.49 266.399H724.206ZM712.329 257.217C715.323 257.217 717.02 259.213 717.569 261.957H706.69C707.288 259.213 709.185 257.217 712.329 257.217ZM742.791 251.378C739.846 251.378 737.151 252.775 735.654 255.071V251.677H729.217V277.428H735.854V263.105C735.854 260.061 738 258.015 740.745 258.015C743.439 258.015 745.585 260.011 745.585 263.055V277.428H752.222V262.257C752.222 254.871 748.53 251.378 742.791 251.378ZM769.254 271.639C767.408 271.639 766.11 270.89 766.11 268.894V257.466H772.199V251.677H766.11V244.341H759.473V251.677H755.281V257.466H759.473V269.044C759.473 275.082 762.667 277.727 767.757 277.727C769.204 277.727 770.801 277.428 772.199 277.029V271.14C771.3 271.389 770.252 271.639 769.254 271.639ZM780.514 248.833C782.909 248.833 785.055 246.836 785.055 244.341C785.055 241.896 783.009 239.95 780.514 239.95C778.019 239.95 776.072 241.896 776.072 244.341C776.072 246.836 778.019 248.833 780.514 248.833ZM783.807 251.677H777.17V277.428H783.807V251.677ZM788.874 268.744C788.924 272.936 792.418 277.727 799.005 277.727C804.644 277.727 808.886 274.633 808.986 269.343C809.086 265.7 806.54 262.856 801.5 261.708L798.007 260.909C796.709 260.61 796.061 259.961 796.061 258.913C796.061 257.616 797.208 256.668 799.055 256.668C800.901 256.668 802.249 257.965 802.299 259.812H808.187C808.187 255.67 804.644 251.378 799.105 251.378C793.515 251.378 789.523 254.522 789.523 259.013C789.523 262.706 791.469 265.451 796.31 266.648L799.454 267.397C801.45 267.896 802.448 268.495 802.448 269.792C802.448 271.19 801.051 272.038 799.304 272.038C797.258 272.038 795.561 270.84 795.512 268.744H788.874ZM824.763 271.639C822.916 271.639 821.619 270.89 821.619 268.894V257.466H827.707V251.677H821.619V244.341H814.982V251.677H810.79V257.466H814.982V269.044C814.982 275.082 818.175 277.727 823.266 277.727C824.713 277.727 826.31 277.428 827.707 277.029V271.14C826.809 271.389 825.761 271.639 824.763 271.639ZM862.269 241.497H847.747V277.428H854.384V264.652H862.319C868.956 264.652 873.797 258.913 873.797 253.075C873.797 247.286 868.956 241.547 862.269 241.497ZM854.384 258.065V248.134H862.169C865.164 248.134 867.11 250.629 867.11 253.075C867.11 255.57 865.164 258.065 862.169 258.065H854.384ZM891.968 251.378C889.024 251.378 886.529 252.575 884.982 255.121V251.677H878.344V277.428H884.982V264.652C884.982 259.911 887.427 257.865 891.269 257.865C892.916 257.865 894.214 258.115 894.813 258.215V251.577C894.214 251.527 893.266 251.378 891.968 251.378ZM909.51 277.727H909.56C916.596 277.727 922.285 271.789 922.285 264.552C922.285 257.316 916.596 251.378 909.56 251.378H909.51C902.423 251.378 896.734 257.266 896.734 264.552C896.734 271.838 902.423 277.727 909.51 277.727ZM909.51 271.14C906.017 271.14 903.322 268.146 903.322 264.552C903.322 260.959 906.017 258.015 909.51 257.965H909.56C912.953 257.965 915.648 260.959 915.648 264.552C915.648 268.146 913.003 271.14 909.56 271.14H909.51ZM935.958 251.677V250.08C935.958 247.984 937.356 247.286 939.102 247.286C940.25 247.286 941.348 247.585 941.647 247.685V241.846C941.098 241.646 939.252 241.197 937.006 241.197C932.066 241.197 929.321 244.89 929.321 250.03V251.677H925.179V257.466H929.321V277.428H935.958V257.466H942.046V251.677H935.958ZM968.268 266.399C968.318 265.95 968.368 265.201 968.368 264.453C968.368 257.266 963.078 251.378 956.391 251.378C949.305 251.378 943.666 257.117 943.666 264.552C943.666 272.138 949.155 277.727 956.591 277.727C964.825 277.727 967.62 271.24 967.919 268.994H961.282C960.783 270.391 959.186 271.888 956.591 271.888C952.748 271.888 950.952 269.443 950.552 266.399H968.268ZM956.391 257.217C959.385 257.217 961.082 259.213 961.631 261.957H950.752C951.351 259.213 953.247 257.217 956.391 257.217ZM971.97 268.744C972.02 272.936 975.513 277.727 982.1 277.727C987.74 277.727 991.981 274.633 992.081 269.343C992.181 265.7 989.636 262.856 984.596 261.708L981.102 260.909C979.805 260.61 979.156 259.961 979.156 258.913C979.156 257.616 980.304 256.668 982.15 256.668C983.997 256.668 985.344 257.965 985.394 259.812H991.283C991.283 255.67 987.74 251.378 982.2 251.378C976.611 251.378 972.619 254.522 972.619 259.013C972.619 262.706 974.565 265.451 979.406 266.648L982.55 267.397C984.546 267.896 985.544 268.495 985.544 269.792C985.544 271.19 984.146 272.038 982.4 272.038C980.354 272.038 978.657 270.84 978.607 268.744H971.97ZM995.362 268.744C995.412 272.936 998.906 277.727 1005.49 277.727C1011.13 277.727 1015.37 274.633 1015.47 269.343C1015.57 265.7 1013.03 262.856 1007.99 261.708L1004.49 260.909C1003.2 260.61 1002.55 259.961 1002.55 258.913C1002.55 257.616 1003.7 256.668 1005.54 256.668C1007.39 256.668 1008.74 257.965 1008.79 259.812H1014.68C1014.68 255.67 1011.13 251.378 1005.59 251.378C1000 251.378 996.011 254.522 996.011 259.013C996.011 262.706 997.957 265.451 1002.8 266.648L1005.94 267.397C1007.94 267.896 1008.94 268.495 1008.94 269.792C1008.94 271.19 1007.54 272.038 1005.79 272.038C1003.75 272.038 1002.05 270.84 1002 268.744H995.362ZM1023.85 248.833C1026.24 248.833 1028.39 246.836 1028.39 244.341C1028.39 241.896 1026.34 239.95 1023.85 239.95C1021.35 239.95 1019.4 241.896 1019.4 244.341C1019.4 246.836 1021.35 248.833 1023.85 248.833ZM1027.14 251.677H1020.5V277.428H1027.14V251.677ZM1044.99 277.727H1045.04C1052.08 277.727 1057.77 271.789 1057.77 264.552C1057.77 257.316 1052.08 251.378 1045.04 251.378H1044.99C1037.91 251.378 1032.22 257.266 1032.22 264.552C1032.22 271.838 1037.91 277.727 1044.99 277.727ZM1044.99 271.14C1041.5 271.14 1038.8 268.146 1038.8 264.552C1038.8 260.959 1041.5 258.015 1044.99 257.965H1045.04C1048.44 257.965 1051.13 260.959 1051.13 264.552C1051.13 268.146 1048.48 271.14 1045.04 271.14H1044.99ZM1076.23 251.378C1073.29 251.378 1070.59 252.775 1069.1 255.071V251.677H1062.66V277.428H1069.3V263.105C1069.3 260.061 1071.44 258.015 1074.19 258.015C1076.88 258.015 1079.03 260.011 1079.03 263.055V277.428H1085.66V262.257C1085.66 254.871 1081.97 251.378 1076.23 251.378ZM1109.26 254.971C1107.37 252.775 1104.72 251.378 1101.73 251.378C1095.59 251.378 1090.7 257.266 1090.7 264.552C1090.7 271.838 1095.59 277.727 1101.73 277.727C1104.72 277.727 1107.32 276.33 1109.26 274.134V277.428H1115.9V251.677H1109.26V254.971ZM1103.32 271.14C1099.98 271.14 1097.29 268.195 1097.29 264.552C1097.29 260.909 1099.98 258.015 1103.32 258.015C1106.67 258.015 1109.26 260.909 1109.26 264.552C1109.26 268.195 1106.67 271.14 1103.32 271.14ZM1122.85 241.497V277.428H1129.49V241.497H1122.85Z" fill="white"/>
<path d="M949.166 316.047C950.4 315.361 951.291 314.035 951.291 312.527C951.291 310.104 949.12 308.115 946.583 308.115H940.023V324.572H947.246C949.714 324.572 951.931 322.584 951.931 320.161C951.954 318.424 950.948 316.801 949.166 316.07V316.047ZM946.583 310.492C947.886 310.492 948.914 311.521 948.914 312.801C948.914 313.967 947.954 314.995 946.674 315.018H942.4V310.492H946.583ZM942.4 322.195V317.418H947.246C948.526 317.418 949.554 318.538 949.554 319.818C949.554 321.121 948.526 322.195 947.246 322.195H942.4ZM962.073 312.778V319.635C962.073 321.098 960.885 322.355 959.376 322.355C957.891 322.355 956.702 321.121 956.702 319.635V312.778H954.325V319.909C954.325 322.584 955.925 324.709 958.531 324.709C959.993 324.709 961.273 323.932 962.073 322.972V324.435C962.073 326.561 960.885 327.955 958.988 327.955C957.182 327.955 956.176 327.018 955.993 325.555H953.502C953.639 327.909 955.513 330.195 958.942 330.195C962.142 330.195 964.45 327.795 964.45 324.344V312.778H962.073Z" fill="white"/>
<g clip-path="url(#clip1_7908_116564)">
<path fill-rule="evenodd" clip-rule="evenodd" d="M1017.53 323.657C1014.75 323.657 1012.49 321.391 1012.49 318.595C1012.49 315.8 1014.75 313.534 1017.53 313.534C1020.32 313.534 1022.57 315.8 1022.57 318.595C1022.57 319.938 1022.04 321.225 1021.1 322.174C1020.15 323.124 1018.87 323.657 1017.53 323.657ZM1022.58 305.326V313.195C1019.66 310.435 1015.07 310.531 1012.26 313.411C1009.45 316.291 1009.45 320.898 1012.26 323.778C1015.07 326.658 1019.66 326.754 1022.58 323.994V325.625H1024.91V305.326H1022.58ZM1087.45 323.657C1084.67 323.657 1082.41 321.391 1082.41 318.595C1082.41 315.8 1084.67 313.534 1087.45 313.534C1090.23 313.534 1092.49 315.8 1092.49 318.595C1092.49 319.938 1091.96 321.225 1091.02 322.174C1090.07 323.124 1088.79 323.657 1087.45 323.657ZM1094.83 318.595V311.265H1092.5V313.195C1089.57 310.435 1084.99 310.531 1082.18 313.411C1079.37 316.291 1079.37 320.898 1082.18 323.778C1084.99 326.658 1089.57 326.754 1092.5 323.994V325.625H1094.83V318.595H1094.83ZM1113.41 311.81C1113.61 311.466 1113.99 311.256 1114.39 311.257H1114.84C1115.79 311.257 1116.56 312.032 1116.56 312.988V325.625H1114.18V314.919C1113.09 316.697 1109.16 323.141 1107.98 325.074C1107.77 325.417 1107.4 325.626 1107 325.625H1106.52C1105.88 325.625 1105.37 325.109 1105.37 324.472V314.892C1104.08 316.974 1100.14 323.447 1098.9 325.517L1098.83 325.625H1096.55V311.261H1098.93V311.291L1098.87 321.199L1104.57 311.813C1104.78 311.469 1105.15 311.26 1105.55 311.26H1106.01C1106.96 311.26 1107.73 312.032 1107.73 312.986C1107.73 315.627 1107.74 320.437 1107.74 321.137L1113.41 311.81ZM1079.84 322.957C1077.94 325.575 1074.57 326.652 1071.52 325.616C1068.46 324.581 1066.43 321.673 1066.5 318.437C1066.57 315.2 1068.73 312.385 1071.83 311.486C1074.92 310.587 1078.24 311.812 1080.02 314.511L1077.79 315.677C1076.58 313.972 1074.44 313.218 1072.44 313.798C1070.44 314.378 1069.02 316.165 1068.91 318.252C1068.79 320.34 1070 322.272 1071.93 323.07C1073.85 323.867 1076.07 323.354 1077.45 321.792L1079.84 322.957ZM1125.46 323.668C1122.8 323.667 1120.6 321.582 1120.44 318.911V318.305C1120.6 315.554 1122.93 313.44 1125.67 313.551C1128.41 313.661 1130.56 315.954 1130.51 318.71C1130.45 321.465 1128.21 323.67 1125.47 323.67L1125.46 323.668ZM1125.47 311.201C1123.6 311.198 1121.8 311.91 1120.44 313.192V311.265H1118.11V331.489H1120.44V324.023C1122.85 326.288 1126.48 326.66 1129.3 324.934C1132.13 323.207 1133.46 319.804 1132.57 316.606C1131.68 313.409 1128.77 311.199 1125.47 311.2V311.201ZM1046.49 313.507V322.34C1046.49 322.864 1046.92 323.289 1047.44 323.289H1050.15V325.625H1047.44C1045.63 325.624 1044.17 324.154 1044.17 322.34L1044.16 313.507H1041.65V311.231H1044.16V307.304H1046.49V311.24H1050.63V313.507H1046.49ZM1057.79 323.656C1055 323.656 1052.75 321.389 1052.75 318.594C1052.75 315.798 1055 313.532 1057.79 313.532C1060.57 313.532 1062.83 315.798 1062.83 318.594C1062.83 319.936 1062.3 321.224 1061.35 322.173C1060.41 323.122 1059.12 323.656 1057.79 323.656ZM1062.83 311.264V313.195C1059.91 310.435 1055.32 310.531 1052.51 313.411C1049.7 316.291 1049.7 320.898 1052.51 323.778C1055.32 326.658 1059.91 326.754 1062.83 323.994V325.625H1065.16V311.261L1062.83 311.264ZM1033.22 323.657C1030.44 323.657 1028.18 321.391 1028.18 318.595C1028.18 315.8 1030.44 313.534 1033.22 313.534C1036.01 313.534 1038.26 315.8 1038.26 318.595C1038.26 319.938 1037.73 321.226 1036.79 322.175C1035.84 323.124 1034.56 323.657 1033.22 323.657ZM1038.27 311.265V313.195C1035.35 310.435 1030.76 310.531 1027.95 313.411C1025.14 316.291 1025.14 320.898 1027.95 323.778C1030.76 326.658 1035.35 326.754 1038.27 323.994V325.625H1040.6V311.261L1038.27 311.265Z" fill="white"/>
<path fill-rule="evenodd" clip-rule="evenodd" d="M990.215 307.139V314.546L982.388 319.028V302.629L990.215 307.139ZM992.747 322.7V316.025L1003.23 310.019L1000.68 308.552L992.747 313.096V306.398C992.746 305.942 992.504 305.522 992.111 305.294L982.564 299.799C982.538 299.783 982.513 299.77 982.487 299.757C981.92 299.48 981.251 299.516 980.716 299.852C980.182 300.189 979.858 300.778 979.859 301.411V320.241C979.857 320.876 980.181 321.466 980.715 321.803C981.25 322.141 981.921 322.177 982.489 321.9L982.561 321.863L990.209 317.478V323.451C990.211 323.908 990.454 324.329 990.848 324.556L1000.66 330.149L1003.21 328.681L992.747 322.7Z" fill="#03EF62"/>
</g>
<g filter="url(#filter0_dd_7908_116564)">
<path d="M1192.4 229.598C1192.4 167.633 1242.63 117.4 1304.6 117.4C1366.56 117.4 1416.8 167.633 1416.8 229.598V372.396C1416.8 378.029 1412.23 382.595 1406.6 382.595H1202.6C1196.97 382.595 1192.4 378.029 1192.4 372.396V229.598Z" fill="#05192D" stroke="#FCCE0D" stroke-width="6.79988"/>
<circle cx="1304.6" cy="219.401" r="84.9985" stroke="url(#paint7_linear_7908_116564)" stroke-width="3.39994"/>
<circle cx="1304.6" cy="219.399" r="67.9988" stroke="url(#paint8_linear_7908_116564)" stroke-width="3.39994"/>
<circle cx="1304.6" cy="215.998" r="47.5992" fill="url(#paint9_linear_7908_116564)"/>
<g filter="url(#filter1_d_7908_116564)">
<circle cx="1304.6" cy="215.994" r="33.9994" fill="white"/>
</g>
<path fill-rule="evenodd" clip-rule="evenodd" d="M1304.6 197.863C1311.48 197.863 1317.06 203.445 1317.06 210.33C1317.06 214.201 1315.3 217.66 1312.53 219.947V232.191C1312.53 233.765 1310.98 234.832 1309.54 234.339L1309.3 234.243L1304.59 232.029L1299.9 234.242C1298.47 234.913 1296.85 233.963 1296.68 232.449L1296.66 232.191V219.947C1293.9 217.66 1292.13 214.201 1292.13 210.33C1292.13 203.445 1297.71 197.863 1304.6 197.863ZM1301.2 222.327V228.616L1303.63 227.475C1304.15 227.228 1304.74 227.193 1305.29 227.369L1305.56 227.474L1308 228.62V222.327C1306.92 222.633 1305.78 222.796 1304.6 222.796C1303.42 222.796 1302.28 222.633 1301.2 222.327ZM1304.6 202.396C1300.22 202.396 1296.66 205.948 1296.66 210.329C1296.66 214.711 1300.22 218.262 1304.6 218.262C1308.98 218.262 1312.53 214.711 1312.53 210.329C1312.53 205.948 1308.98 202.396 1304.6 202.396Z" fill="#05192D"/>
<path d="M1189 345.201H1420.2V372.401C1420.2 379.912 1414.11 386 1406.6 386H1202.6C1195.09 386 1189 379.912 1189 372.401V345.201Z" fill="#FCCE0D"/>
<path d="M1220.2 356.916H1214.26V371.604H1216.97V366.381H1220.22C1222.93 366.381 1224.91 364.035 1224.91 361.648C1224.91 359.282 1222.93 356.936 1220.2 356.916ZM1216.97 363.688V359.629H1220.16C1221.38 359.629 1222.18 360.649 1222.18 361.648C1222.18 362.668 1221.38 363.688 1220.16 363.688H1216.97ZM1240.4 371.604L1237.53 365.932C1239.08 365.157 1240.26 363.505 1240.26 361.669C1240.26 359.139 1238.02 356.916 1235.65 356.916H1229.63V371.604H1232.34V366.381H1234.71L1237.34 371.604H1240.4ZM1235.65 359.629C1236.71 359.629 1237.55 360.608 1237.55 361.669C1237.55 362.73 1236.71 363.688 1235.65 363.688H1232.34V359.629H1235.65ZM1251.79 371.726C1255.91 371.726 1259.24 368.38 1259.24 364.26C1259.24 360.139 1255.91 356.793 1251.79 356.793C1247.67 356.793 1244.37 360.139 1244.37 364.26C1244.37 368.38 1247.67 371.726 1251.79 371.726ZM1251.79 369.013C1249.16 369.013 1247.08 366.891 1247.08 364.26C1247.08 361.628 1249.16 359.507 1251.79 359.507C1254.42 359.507 1256.52 361.628 1256.52 364.26C1256.52 366.891 1254.42 369.013 1251.79 369.013ZM1264.28 356.916V371.604H1266.99V365.708H1273.56V363.015H1266.99V359.629H1274.29V356.916H1264.28ZM1279.21 356.916V371.604H1289.47V368.89H1281.92V365.606H1288.69V362.913H1281.92V359.629H1289.47V356.916H1279.21ZM1293.98 366.463C1294 369.727 1296.47 371.726 1299.43 371.726C1302.35 371.726 1304.41 369.91 1304.41 367.299C1304.41 365.035 1303.04 363.648 1300.29 362.954L1298.61 362.526C1297.51 362.24 1297.19 361.628 1297.19 361.036C1297.19 360.241 1297.9 359.384 1299.17 359.384C1300.41 359.384 1301.27 360.282 1301.27 361.506H1303.94C1303.94 358.976 1302.14 356.793 1299.29 356.793C1296.68 356.793 1294.39 358.527 1294.39 361.016C1294.39 362.995 1295.8 364.545 1298.19 365.137L1299.9 365.565C1300.98 365.83 1301.61 366.483 1301.61 367.34C1301.61 368.217 1300.9 369.115 1299.43 369.115C1297.82 369.115 1296.74 368.156 1296.72 366.463H1293.98ZM1308.54 366.463C1308.56 369.727 1311.03 371.726 1313.98 371.726C1316.9 371.726 1318.96 369.91 1318.96 367.299C1318.96 365.035 1317.59 363.648 1314.84 362.954L1313.17 362.526C1312.07 362.24 1311.74 361.628 1311.74 361.036C1311.74 360.241 1312.45 359.384 1313.72 359.384C1314.96 359.384 1315.82 360.282 1315.82 361.506H1318.49C1318.49 358.976 1316.7 356.793 1313.84 356.793C1311.23 356.793 1308.95 358.527 1308.95 361.016C1308.95 362.995 1310.35 364.545 1312.74 365.137L1314.45 365.565C1315.53 365.83 1316.17 366.483 1316.17 367.34C1316.17 368.217 1315.45 369.115 1313.98 369.115C1312.37 369.115 1311.29 368.156 1311.27 366.463H1308.54ZM1323.78 356.916V371.604H1326.5V356.916H1323.78ZM1338.95 371.726C1343.07 371.726 1346.4 368.38 1346.4 364.26C1346.4 360.139 1343.07 356.793 1338.95 356.793C1334.83 356.793 1331.53 360.139 1331.53 364.26C1331.53 368.38 1334.83 371.726 1338.95 371.726ZM1338.95 369.013C1336.32 369.013 1334.24 366.891 1334.24 364.26C1334.24 361.628 1336.32 359.507 1338.95 359.507C1341.58 359.507 1343.69 361.628 1343.69 364.26C1343.69 366.891 1341.58 369.013 1338.95 369.013ZM1361.07 364.668V367.483H1361.05C1360.45 366.381 1360.01 365.586 1359.43 364.668L1354.6 356.916H1351.42V371.604H1354.13V363.831V361.077H1354.15C1354.72 362.118 1355.25 363.036 1355.76 363.852L1360.64 371.604H1363.78V356.916H1361.07V364.668ZM1382.59 371.604L1376.9 356.916H1373.94L1368.23 371.604H1371.17L1372.62 367.85H1378.21L1379.65 371.604H1382.59ZM1374.11 364.015C1374.62 362.75 1375 361.669 1375.39 360.486H1375.41C1375.84 361.669 1376.23 362.75 1376.72 364.015L1377.23 365.341H1373.6L1374.11 364.015ZM1389.75 356.916H1387.04V371.604H1396.07V368.89H1389.75V356.916Z" fill="#05192D"/>
<g clip-path="url(#clip2_7908_116564)">
<path fill-rule="evenodd" clip-rule="evenodd" d="M1263.29 278.503V283.109L1258.53 285.897V275.698L1263.29 278.503ZM1264.82 288.181V284.029L1271.19 280.294L1269.64 279.382L1264.82 282.208V278.042C1264.82 277.759 1264.68 277.497 1264.44 277.355L1258.64 273.938C1258.63 273.928 1258.61 273.92 1258.59 273.912C1258.25 273.74 1257.84 273.762 1257.52 273.971C1257.19 274.18 1257 274.547 1257 274.941V286.652C1257 287.046 1257.19 287.413 1257.52 287.623C1257.84 287.833 1258.25 287.856 1258.6 287.683L1258.64 287.66L1263.28 284.933V288.648C1263.28 288.932 1263.43 289.194 1263.67 289.335L1269.63 292.813L1271.18 291.9L1264.82 288.181Z" fill="#03EF62"/>
</g>
<path d="M1284.23 290.358C1287.34 290.358 1289.54 288.362 1290.15 285.792H1288.11C1287.52 287.437 1285.99 288.436 1284.23 288.436C1281.55 288.436 1279.48 286.272 1279.48 283.591C1279.48 280.91 1281.55 278.747 1284.23 278.747C1285.84 278.747 1287.56 279.838 1288.06 281.373H1290.09C1289.54 278.969 1287.26 276.824 1284.23 276.824C1280.5 276.824 1277.56 279.857 1277.56 283.591C1277.56 287.326 1280.5 290.358 1284.23 290.358Z" fill="white"/>
<path d="M1300.61 286.069C1300.63 285.866 1300.65 285.625 1300.65 285.366C1300.65 282.759 1298.76 280.596 1296.21 280.596C1293.58 280.596 1291.64 282.759 1291.64 285.477C1291.64 288.251 1293.55 290.358 1296.3 290.358C1299.24 290.358 1300.33 288.103 1300.48 287.197H1298.5C1298.32 287.751 1297.63 288.62 1296.3 288.62C1294.67 288.62 1293.79 287.493 1293.62 286.069H1300.61ZM1296.21 282.334C1297.63 282.334 1298.48 283.351 1298.69 284.627H1293.67C1293.92 283.333 1294.78 282.334 1296.21 282.334Z" fill="white"/>
<path d="M1307.14 280.596C1305.98 280.596 1305.11 281.132 1304.61 281.964V280.707H1302.69V290.247H1304.61V285.126C1304.61 283.296 1305.63 282.482 1307.07 282.482C1307.49 282.482 1307.84 282.537 1308.07 282.574V280.652C1307.84 280.633 1307.59 280.596 1307.14 280.596Z" fill="white"/>
<path d="M1313.48 288.565C1312.78 288.565 1312.31 288.251 1312.31 287.456V282.39H1314.76V280.707H1312.31V278.008H1310.39V280.707H1308.77V282.39H1310.39V287.493C1310.39 289.434 1311.45 290.358 1313.13 290.358C1313.79 290.358 1314.42 290.137 1314.76 290.007V288.214C1314.52 288.325 1313.98 288.565 1313.48 288.565Z" fill="white"/>
<path d="M1317.69 279.357C1318.47 279.357 1319.12 278.747 1319.12 277.971C1319.12 277.194 1318.49 276.584 1317.69 276.584C1316.92 276.584 1316.31 277.194 1316.31 277.971C1316.31 278.747 1316.92 279.357 1317.69 279.357ZM1318.64 280.707H1316.71V290.247H1318.64V280.707Z" fill="white"/>
<path d="M1324.07 280.707V279.82C1324.07 279.006 1324.63 278.636 1325.31 278.636C1325.77 278.636 1326.2 278.747 1326.46 278.858V277.083C1326.16 276.972 1325.51 276.824 1324.79 276.824C1323.17 276.824 1322.15 278.045 1322.15 279.783V280.707H1320.61V282.39H1322.15V290.247H1324.07V282.39H1326.53V280.707H1324.07Z" fill="white"/>
<path d="M1329.29 279.357C1330.06 279.357 1330.71 278.747 1330.71 277.971C1330.71 277.194 1330.08 276.584 1329.29 276.584C1328.51 276.584 1327.9 277.194 1327.9 277.971C1327.9 278.747 1328.51 279.357 1329.29 279.357ZM1330.23 280.707H1328.31V290.247H1330.23V280.707Z" fill="white"/>
<path d="M1341.38 286.069C1341.4 285.866 1341.42 285.625 1341.42 285.366C1341.42 282.759 1339.53 280.596 1336.98 280.596C1334.35 280.596 1332.41 282.759 1332.41 285.477C1332.41 288.251 1334.32 290.358 1337.07 290.358C1340.01 290.358 1341.1 288.103 1341.25 287.197H1339.27C1339.09 287.751 1338.4 288.62 1337.07 288.62C1335.44 288.62 1334.56 287.493 1334.39 286.069H1341.38ZM1336.98 282.334C1338.4 282.334 1339.25 283.351 1339.46 284.627H1334.44C1334.69 283.333 1335.55 282.334 1336.98 282.334Z" fill="white"/>
<path d="M1350.27 276.935V282.168C1349.66 281.262 1348.55 280.596 1347.26 280.596C1345.02 280.596 1343.08 282.667 1343.08 285.477C1343.08 288.288 1345.02 290.358 1347.26 290.358C1348.55 290.358 1349.59 289.859 1350.27 288.787V290.247H1352.2V276.935H1350.27ZM1347.7 288.491C1346.13 288.491 1345 287.141 1345 285.477C1345 283.813 1346.13 282.482 1347.7 282.482C1349.28 282.482 1350.27 283.813 1350.27 285.477C1350.27 287.141 1349.28 288.491 1347.7 288.491Z" fill="white"/>
<path d="M1215.57 303.563V323.146H1223.21C1228.57 323.146 1233 318.876 1233 313.355C1233 307.833 1228.54 303.563 1223.21 303.563H1215.57ZM1219.19 319.529V307.18H1223.21C1226.61 307.18 1229.39 309.955 1229.39 313.355C1229.39 316.755 1226.61 319.529 1223.21 319.529H1219.19ZM1245.03 310.907C1244 309.71 1242.56 308.948 1240.92 308.948C1237.58 308.948 1234.91 312.158 1234.91 316.129C1234.91 320.1 1237.58 323.31 1240.92 323.31C1242.56 323.31 1243.97 322.548 1245.03 321.351V323.146H1248.65V309.112H1245.03V310.907ZM1241.79 319.719C1239.97 319.719 1238.5 318.115 1238.5 316.129C1238.5 314.143 1239.97 312.566 1241.79 312.566C1243.62 312.566 1245.03 314.143 1245.03 316.129C1245.03 318.115 1243.62 319.719 1241.79 319.719ZM1258.64 319.991C1257.63 319.991 1256.92 319.583 1256.92 318.495V312.267H1260.24V309.112H1256.92V305.113H1253.31V309.112H1251.02V312.267H1253.31V318.577C1253.31 321.868 1255.05 323.31 1257.82 323.31C1258.61 323.31 1259.48 323.146 1260.24 322.929V319.719C1259.75 319.855 1259.18 319.991 1258.64 319.991ZM1271.99 310.907C1270.96 309.71 1269.52 308.948 1267.88 308.948C1264.54 308.948 1261.87 312.158 1261.87 316.129C1261.87 320.1 1264.54 323.31 1267.88 323.31C1269.52 323.31 1270.93 322.548 1271.99 321.351V323.146H1275.61V309.112H1271.99V310.907ZM1268.75 319.719C1266.93 319.719 1265.46 318.115 1265.46 316.129C1265.46 314.143 1266.93 312.566 1268.75 312.566C1270.58 312.566 1271.99 314.143 1271.99 316.129C1271.99 318.115 1270.58 319.719 1268.75 319.719ZM1286.55 316.292C1286.58 320.644 1289.87 323.31 1293.81 323.31C1297.7 323.31 1300.45 320.889 1300.45 317.407C1300.45 314.388 1298.63 312.539 1294.95 311.614L1292.72 311.043C1291.25 310.662 1290.82 309.846 1290.82 309.057C1290.82 307.996 1291.77 306.854 1293.46 306.854C1295.12 306.854 1296.26 308.051 1296.26 309.683H1299.82C1299.82 306.31 1297.43 303.4 1293.62 303.4C1290.14 303.4 1287.09 305.712 1287.09 309.03C1287.09 311.668 1288.97 313.735 1292.15 314.524L1294.44 315.095C1295.88 315.449 1296.72 316.319 1296.72 317.462C1296.72 318.631 1295.77 319.828 1293.81 319.828C1291.66 319.828 1290.22 318.55 1290.19 316.292H1286.55ZM1315.76 314.334C1315.6 312.131 1313.51 308.948 1309.29 308.948C1305.43 308.948 1302.33 312.158 1302.33 316.129C1302.33 320.1 1305.43 323.31 1309.29 323.31C1313.1 323.31 1315.6 319.991 1315.71 317.924H1312.12C1311.87 319.012 1310.68 319.883 1309.29 319.883C1307.28 319.883 1305.92 318.087 1305.92 316.129C1305.92 314.171 1307.17 312.375 1309.29 312.375C1310.57 312.375 1311.74 313.137 1312.09 314.334H1315.76ZM1320.37 307.561C1321.67 307.561 1322.84 306.473 1322.84 305.113C1322.84 303.78 1321.73 302.72 1320.37 302.72C1319.01 302.72 1317.95 303.78 1317.95 305.113C1317.95 306.473 1319.01 307.561 1320.37 307.561ZM1322.16 309.112H1318.55V323.146H1322.16V309.112ZM1338.34 317.135C1338.37 316.891 1338.39 316.483 1338.39 316.075C1338.39 312.158 1335.51 308.948 1331.87 308.948C1328 308.948 1324.93 312.076 1324.93 316.129C1324.93 320.263 1327.92 323.31 1331.98 323.31C1336.46 323.31 1337.99 319.774 1338.15 318.55H1334.53C1334.26 319.311 1333.39 320.127 1331.98 320.127C1329.88 320.127 1328.9 318.795 1328.68 317.135H1338.34ZM1331.87 312.131C1333.5 312.131 1334.42 313.219 1334.72 314.715H1328.79C1329.12 313.219 1330.15 312.131 1331.87 312.131ZM1348.47 308.948C1346.86 308.948 1345.4 309.71 1344.58 310.961V309.112H1341.07V323.146H1344.69V315.34C1344.69 313.681 1345.86 312.566 1347.35 312.566C1348.82 312.566 1349.99 313.654 1349.99 315.313V323.146H1353.61V314.878C1353.61 310.852 1351.6 308.948 1348.47 308.948ZM1362.89 319.991C1361.89 319.991 1361.18 319.583 1361.18 318.495V312.267H1364.5V309.112H1361.18V305.113H1357.56V309.112H1355.28V312.267H1357.56V318.577C1357.56 321.868 1359.3 323.31 1362.08 323.31C1362.87 323.31 1363.74 323.146 1364.5 322.929V319.719C1364.01 319.855 1363.44 319.991 1362.89 319.991ZM1369.03 307.561C1370.34 307.561 1371.51 306.473 1371.51 305.113C1371.51 303.78 1370.39 302.72 1369.03 302.72C1367.67 302.72 1366.61 303.78 1366.61 305.113C1366.61 306.473 1367.67 307.561 1369.03 307.561ZM1370.83 309.112H1367.21V323.146H1370.83V309.112ZM1373.59 318.414C1373.61 320.699 1375.52 323.31 1379.11 323.31C1382.18 323.31 1384.49 321.623 1384.55 318.74C1384.6 316.755 1383.22 315.204 1380.47 314.579L1378.56 314.143C1377.86 313.98 1377.5 313.627 1377.5 313.055C1377.5 312.348 1378.13 311.831 1379.14 311.831C1380.14 311.831 1380.88 312.539 1380.9 313.545H1384.11C1384.11 311.287 1382.18 308.948 1379.16 308.948C1376.12 308.948 1373.94 310.662 1373.94 313.11C1373.94 315.123 1375 316.619 1377.64 317.271L1379.35 317.679C1380.44 317.951 1380.98 318.278 1380.98 318.985C1380.98 319.747 1380.22 320.209 1379.27 320.209C1378.16 320.209 1377.23 319.556 1377.2 318.414H1373.59ZM1393.15 319.991C1392.14 319.991 1391.43 319.583 1391.43 318.495V312.267H1394.75V309.112H1391.43V305.113H1387.82V309.112H1385.53V312.267H1387.82V318.577C1387.82 321.868 1389.56 323.31 1392.33 323.31C1393.12 323.31 1393.99 323.146 1394.75 322.929V319.719C1394.26 319.855 1393.69 319.991 1393.15 319.991Z" fill="white"/>
</g>
</g>
<defs>
<filter id="filter0_dd_7908_116564" x="1178.8" y="107.2" width="251.595" height="292.4" filterUnits="userSpaceOnUse" color-interpolation-filters="sRGB">
<feFlood flood-opacity="0" result="BackgroundImageFix"/>
<feColorMatrix in="SourceAlpha" type="matrix" values="0 0 0 0 0 0 0 0 0 0 0 0 0 0 0 0 0 0 127 0" result="hardAlpha"/>
<feMorphology radius="3.39994" operator="erode" in="SourceAlpha" result="effect1_dropShadow_7908_116564"/>
<feOffset dy="3.39994"/>
<feGaussianBlur stdDeviation="6.79988"/>
<feColorMatrix type="matrix" values="0 0 0 0 0.0196078 0 0 0 0 0.0980392 0 0 0 0 0.176471 0 0 0 0.3 0"/>
<feBlend mode="normal" in2="BackgroundImageFix" result="effect1_dropShadow_7908_116564"/>
<feColorMatrix in="SourceAlpha" type="matrix" values="0 0 0 0 0 0 0 0 0 0 0 0 0 0 0 0 0 0 127 0" result="hardAlpha"/>
<feOffset/>
<feGaussianBlur stdDeviation="1.69997"/>
<feColorMatrix type="matrix" values="0 0 0 0 0.0196078 0 0 0 0 0.0980392 0 0 0 0 0.176471 0 0 0 0.3 0"/>
<feBlend mode="normal" in2="effect1_dropShadow_7908_116564" result="effect2_dropShadow_7908_116564"/>
<feBlend mode="normal" in="SourceGraphic" in2="effect2_dropShadow_7908_116564" result="shape"/>
</filter>
<filter id="filter1_d_7908_116564" x="1211.97" y="170.268" width="185.256" height="185.255" filterUnits="userSpaceOnUse" color-interpolation-filters="sRGB">
<feFlood flood-opacity="0" result="BackgroundImageFix"/>
<feColorMatrix in="SourceAlpha" type="matrix" values="0 0 0 0 0 0 0 0 0 0 0 0 0 0 0 0 0 0 127 0" result="hardAlpha"/>
<feOffset dy="46.9028"/>
<feGaussianBlur stdDeviation="29.3142"/>
<feComposite in2="hardAlpha" operator="out"/>
<feColorMatrix type="matrix" values="0 0 0 0 0 0 0 0 0 0.0313726 0 0 0 0 0.12549 0 0 0 1 0"/>
<feBlend mode="normal" in2="BackgroundImageFix" result="effect1_dropShadow_7908_116564"/>
<feBlend mode="normal" in="SourceGraphic" in2="effect1_dropShadow_7908_116564" result="shape"/>
</filter>
<linearGradient id="paint0_linear_7908_116564" x1="27.8077" y1="56.1188" x2="112.331" y2="412.722" gradientUnits="userSpaceOnUse">
<stop stop-color="#FCCE0D"/>
<stop offset="1" stop-color="#05192D"/>
</linearGradient>
<linearGradient id="paint1_linear_7908_116564" x1="12.0842" y1="-4.76364" x2="282.1" y2="-57.4259" gradientUnits="userSpaceOnUse">
<stop stop-color="#FCCE0D"/>
<stop offset="1" stop-color="#05192D"/>
</linearGradient>
<linearGradient id="paint2_linear_7908_116564" x1="47.101" y1="132.388" x2="362.759" y2="132.388" gradientUnits="userSpaceOnUse">
<stop stop-color="#FCCE0D"/>
<stop offset="1" stop-color="#05192D"/>
</linearGradient>
<linearGradient id="paint3_linear_7908_116564" x1="588.174" y1="-150.88" x2="511.045" y2="105.124" gradientUnits="userSpaceOnUse">
<stop stop-color="#FCCE0D"/>
<stop offset="1" stop-color="#05192D"/>
</linearGradient>
<linearGradient id="paint4_linear_7908_116564" x1="8.40076" y1="136.093" x2="-31.9229" y2="-135.252" gradientUnits="userSpaceOnUse">
<stop stop-color="#FCCE0D"/>
<stop offset="1" stop-color="#05192D"/>
</linearGradient>
<linearGradient id="paint5_linear_7908_116564" x1="293.4" y1="601.639" x2="689.093" y2="763.17" gradientUnits="userSpaceOnUse">
<stop stop-color="#FCCE0D"/>
<stop offset="1" stop-color="#05192D"/>
</linearGradient>
<linearGradient id="paint6_linear_7908_116564" x1="295.673" y1="446.596" x2="313.688" y2="268.292" gradientUnits="userSpaceOnUse">
<stop stop-color="#FCCE0D"/>
<stop offset="1" stop-color="#05192D"/>
</linearGradient>
<linearGradient id="paint7_linear_7908_116564" x1="1304.6" y1="134.402" x2="1304.6" y2="256.588" gradientUnits="userSpaceOnUse">
<stop stop-color="#FCCE0D"/>
<stop offset="1" stop-color="#05192D"/>
</linearGradient>
<linearGradient id="paint8_linear_7908_116564" x1="1304.6" y1="151.4" x2="1304.6" y2="249.149" gradientUnits="userSpaceOnUse">
<stop stop-color="#FCCE0D"/>
<stop offset="1" stop-color="#05192D"/>
</linearGradient>
<linearGradient id="paint9_linear_7908_116564" x1="1304.6" y1="168.398" x2="1304.6" y2="263.597" gradientUnits="userSpaceOnUse">
<stop stop-color="#FCCE0D"/>
<stop offset="1" stop-color="#FCCE0D" stop-opacity="0.58"/>
</linearGradient>
<clipPath id="clip0_7908_116564">
<rect width="1500" height="500" fill="white"/>
</clipPath>
<clipPath id="clip1_7908_116564">
<rect width="153.141" height="31.9997" fill="white" transform="translate(979.859 299.572)"/>
</clipPath>
<clipPath id="clip2_7908_116564">
<rect width="14.5116" height="19.3488" fill="white" transform="translate(1257 273.797)"/>
</clipPath>
</defs>
</svg>
