<svg width="851" height="315" viewBox="0 0 851 315" fill="none" xmlns="http://www.w3.org/2000/svg">
<g clip-path="url(#clip0_10078_202103)">
<rect width="851" height="315" fill="#05192D"/>
<mask id="mask0_10078_202103" style="mask-type:alpha" maskUnits="userSpaceOnUse" x="0" y="0" width="851" height="315">
<rect width="851" height="315" fill="#05192D"/>
</mask>
<g mask="url(#mask0_10078_202103)">
<path d="M-1.01978 187.996V187.996C17.9092 187.996 33.2542 172.651 33.2542 153.722L33.2542 -2.74617L-1.01979 -2.74616" stroke="url(#paint0_linear_10078_202103)" stroke-width="1.22872"/>
<rect x="-4" y="-3.00195" width="161.297" height="64.0612" stroke="url(#paint1_linear_10078_202103)" stroke-width="1.22872"/>
<circle cx="157.869" cy="61.63" r="44.0421" stroke="url(#paint2_linear_10078_202103)" stroke-width="1.22872"/>
<path d="M283 20.9451C283 42.6408 300.588 60.2285 322.283 60.2285L538.762 60.2286L538.762 -3.39394L283 -3.39399L283 20.9451Z" stroke="url(#paint3_linear_10078_202103)" stroke-width="1.22761"/>
<rect width="114.318" height="119.61" rx="57.1589" transform="matrix(1 9.20383e-08 8.30387e-08 -1 481.682 60.2285)" stroke="url(#paint4_linear_10078_202103)" stroke-width="1.22761"/>
<path d="M462.03 288.935C462.03 272.909 449.038 259.918 433.013 259.918L115 259.918L115 336.171L462.03 336.171L462.03 288.935Z" stroke="url(#paint5_linear_10078_202103)" stroke-width="1.20904"/>
<path d="M239.729 222.523C239.729 198.485 220.242 178.998 196.204 178.998L115 178.998L115 286.524L239.729 286.524L239.729 222.523Z" stroke="url(#paint6_linear_10078_202103)" stroke-width="1.20904"/>
</g>
<path d="M452.513 136.558C457.648 136.558 461.014 133.049 461.67 129.169H457.733C457.02 131.423 454.909 132.764 452.513 132.764C448.833 132.764 445.923 129.797 445.923 126.117C445.923 122.437 448.833 119.47 452.513 119.47C454.795 119.47 457.077 121.011 457.705 123.15H461.642C461.014 119.641 457.733 115.676 452.513 115.676C446.75 115.676 442.129 120.354 442.129 126.117C442.129 131.879 446.75 136.558 452.513 136.558ZM477.868 130.082C477.897 129.825 477.925 129.398 477.925 128.97C477.925 124.862 474.901 121.496 471.079 121.496C467.028 121.496 463.804 124.776 463.804 129.027C463.804 133.363 466.942 136.558 471.193 136.558C475.9 136.558 477.497 132.849 477.668 131.566H473.874C473.589 132.364 472.676 133.22 471.193 133.22C468.996 133.22 467.969 131.822 467.741 130.082H477.868ZM471.079 124.833C472.79 124.833 473.76 125.974 474.074 127.543H467.855C468.197 125.974 469.281 124.833 471.079 124.833ZM488.52 121.496C486.837 121.496 485.411 122.18 484.527 123.635V121.667H480.732V136.387H484.527V129.084C484.527 126.374 485.924 125.204 488.121 125.204C489.062 125.204 489.804 125.347 490.146 125.404V121.61C489.804 121.581 489.262 121.496 488.52 121.496ZM499.078 133.078C498.023 133.078 497.281 132.65 497.281 131.509V124.976H500.762V121.667H497.281V117.473H493.487V121.667H491.091V124.976H493.487V131.594C493.487 135.046 495.313 136.558 498.223 136.558C499.05 136.558 499.963 136.387 500.762 136.159V132.792C500.248 132.935 499.649 133.078 499.078 133.078ZM505.515 120.041C506.884 120.041 508.111 118.9 508.111 117.473C508.111 116.075 506.941 114.963 505.515 114.963C504.089 114.963 502.976 116.075 502.976 117.473C502.976 118.9 504.089 120.041 505.515 120.041ZM507.398 121.667H503.604V136.387H507.398V121.667ZM516.313 121.667V120.754C516.313 119.556 517.112 119.156 518.111 119.156C518.767 119.156 519.394 119.327 519.565 119.385V116.047C519.252 115.933 518.196 115.676 516.912 115.676C514.088 115.676 512.519 117.787 512.519 120.725V121.667H510.151V124.976H512.519V136.387H516.313V124.976H519.794V121.667H516.313ZM524.208 120.041C525.577 120.041 526.804 118.9 526.804 117.473C526.804 116.075 525.634 114.963 524.208 114.963C522.782 114.963 521.669 116.075 521.669 117.473C521.669 118.9 522.782 120.041 524.208 120.041ZM526.091 121.667H522.297V136.387H526.091V121.667ZM543.057 130.082C543.086 129.825 543.114 129.398 543.114 128.97C543.114 124.862 540.09 121.496 536.268 121.496C532.217 121.496 528.993 124.776 528.993 129.027C528.993 133.363 532.131 136.558 536.382 136.558C541.089 136.558 542.686 132.849 542.857 131.566H539.063C538.778 132.364 537.865 133.22 536.382 133.22C534.185 133.22 533.158 131.822 532.93 130.082H543.057ZM536.268 124.833C537.979 124.833 538.949 125.974 539.263 127.543H533.044C533.386 125.974 534.47 124.833 536.268 124.833ZM556.042 115.847V123.664C555.1 122.408 553.531 121.496 551.791 121.496C548.34 121.496 545.43 124.605 545.43 129.027C545.43 133.448 548.34 136.558 551.791 136.558C553.531 136.558 555.043 135.93 556.042 134.39V136.387H559.836V115.847H556.042ZM552.647 132.792C550.736 132.792 549.195 131.109 549.195 129.027C549.195 126.944 550.736 125.261 552.647 125.261C554.587 125.261 556.042 126.944 556.042 129.027C556.042 131.109 554.587 132.792 552.647 132.792ZM582.006 123.55C580.922 122.294 579.41 121.496 577.698 121.496C574.19 121.496 571.394 124.862 571.394 129.027C571.394 133.192 574.19 136.558 577.698 136.558C579.41 136.558 580.893 135.759 582.006 134.504V136.387H585.8V121.667H582.006V123.55ZM578.611 132.792C576.7 132.792 575.16 131.109 575.16 129.027C575.16 126.944 576.7 125.29 578.611 125.29C580.523 125.29 582.006 126.944 582.006 129.027C582.006 131.109 580.523 132.792 578.611 132.792ZM588.66 131.423C588.689 133.819 590.686 136.558 594.451 136.558C597.675 136.558 600.1 134.789 600.157 131.765C600.214 129.683 598.759 128.057 595.878 127.401L593.881 126.944C593.139 126.773 592.768 126.402 592.768 125.803C592.768 125.061 593.424 124.519 594.48 124.519C595.535 124.519 596.305 125.261 596.334 126.317H599.7C599.7 123.949 597.675 121.496 594.508 121.496C591.313 121.496 589.031 123.293 589.031 125.86C589.031 127.971 590.144 129.54 592.911 130.225L594.708 130.653C595.849 130.938 596.42 131.28 596.42 132.022C596.42 132.821 595.621 133.306 594.622 133.306C593.453 133.306 592.483 132.621 592.454 131.423H588.66ZM621.259 123.55C620.175 122.294 618.663 121.496 616.951 121.496C613.442 121.496 610.647 124.862 610.647 129.027C610.647 133.192 613.442 136.558 616.951 136.558C618.663 136.558 620.146 135.759 621.259 134.504V136.387H625.053V121.667H621.259V123.55ZM617.864 132.792C615.953 132.792 614.412 131.109 614.412 129.027C614.412 126.944 615.953 125.29 617.864 125.29C619.775 125.29 621.259 126.944 621.259 129.027C621.259 131.109 619.775 132.792 617.864 132.792ZM291.466 151.847V172.387H299.482C305.102 172.387 309.752 167.908 309.752 162.117C309.752 156.326 305.074 151.847 299.482 151.847H291.466ZM295.26 168.593V155.641H299.482C303.048 155.641 305.958 158.551 305.958 162.117C305.958 165.683 303.048 168.593 299.482 168.593H295.26ZM322.364 159.55C321.28 158.294 319.768 157.496 318.057 157.496C314.548 157.496 311.752 160.862 311.752 165.027C311.752 169.192 314.548 172.558 318.057 172.558C319.768 172.558 321.252 171.759 322.364 170.504V172.387H326.159V157.667H322.364V159.55ZM318.97 168.792C317.058 168.792 315.518 167.109 315.518 165.027C315.518 162.944 317.058 161.29 318.97 161.29C320.881 161.29 322.364 162.944 322.364 165.027C322.364 167.109 320.881 168.792 318.97 168.792ZM336.635 169.078C335.58 169.078 334.838 168.65 334.838 167.509V160.976H338.318V157.667H334.838V153.473H331.044V157.667H328.648V160.976H331.044V167.594C331.044 171.046 332.87 172.558 335.78 172.558C336.607 172.558 337.52 172.387 338.318 172.159V168.792C337.805 168.935 337.206 169.078 336.635 169.078ZM350.641 159.55C349.557 158.294 348.045 157.496 346.333 157.496C342.824 157.496 340.029 160.862 340.029 165.027C340.029 169.192 342.824 172.558 346.333 172.558C348.045 172.558 349.528 171.759 350.641 170.504V172.387H354.435V157.667H350.641V159.55ZM347.246 168.792C345.335 168.792 343.794 167.109 343.794 165.027C343.794 162.944 345.335 161.29 347.246 161.29C349.157 161.29 350.641 162.944 350.641 165.027C350.641 167.109 349.157 168.792 347.246 168.792ZM366.879 151.847V172.387H381.228V168.593H370.673V164H380.144V160.234H370.673V155.641H381.228V151.847H366.879ZM392.268 157.496C390.585 157.496 389.045 158.294 388.189 159.607V157.667H384.509V172.387H388.303V164.199C388.303 162.459 389.53 161.29 391.099 161.29C392.639 161.29 393.866 162.431 393.866 164.171V172.387H397.66V163.714C397.66 159.492 395.549 157.496 392.268 157.496ZM411.355 157.667V159.607C410.271 158.266 408.845 157.496 406.991 157.496C403.539 157.496 400.715 160.862 400.715 165.027C400.715 169.192 403.539 172.558 406.991 172.558C408.674 172.558 410.214 171.816 411.355 170.475V171.873C411.355 174.098 409.815 175.867 407.704 175.867C405.821 175.867 404.537 174.926 404.166 173.385H400.23C400.401 176.124 403.082 179.404 407.59 179.404C411.897 179.404 415.149 176.209 415.149 171.873V157.667H411.355ZM407.961 168.821C406.021 168.821 404.509 167.109 404.509 165.027C404.509 162.944 406.021 161.29 407.961 161.29C409.872 161.29 411.355 162.944 411.355 165.027C411.355 167.109 409.872 168.821 407.961 168.821ZM420.909 156.041C422.278 156.041 423.505 154.9 423.505 153.473C423.505 152.075 422.335 150.963 420.909 150.963C419.482 150.963 418.37 152.075 418.37 153.473C418.37 154.9 419.482 156.041 420.909 156.041ZM422.791 157.667H418.997V172.387H422.791V157.667ZM434.474 157.496C432.791 157.496 431.251 158.294 430.395 159.607V157.667H426.715V172.387H430.509V164.199C430.509 162.459 431.735 161.29 433.304 161.29C434.845 161.29 436.072 162.431 436.072 164.171V172.387H439.866V163.714C439.866 159.492 437.755 157.496 434.474 157.496ZM456.807 166.082C456.836 165.825 456.864 165.398 456.864 164.97C456.864 160.862 453.84 157.496 450.018 157.496C445.967 157.496 442.743 160.776 442.743 165.027C442.743 169.363 445.881 172.558 450.132 172.558C454.839 172.558 456.436 168.849 456.607 167.566H452.813C452.528 168.364 451.615 169.22 450.132 169.22C447.935 169.22 446.908 167.822 446.68 166.082H456.807ZM450.018 160.833C451.729 160.833 452.699 161.974 453.013 163.543H446.794C447.136 161.974 448.22 160.833 450.018 160.833ZM473.244 166.082C473.272 165.825 473.301 165.398 473.301 164.97C473.301 160.862 470.277 157.496 466.454 157.496C462.403 157.496 459.18 160.776 459.18 165.027C459.18 169.363 462.318 172.558 466.568 172.558C471.275 172.558 472.873 168.849 473.044 167.566H469.25C468.965 168.364 468.052 169.22 466.568 169.22C464.372 169.22 463.345 167.822 463.116 166.082H473.244ZM466.454 160.833C468.166 160.833 469.136 161.974 469.449 163.543H463.231C463.573 161.974 464.657 160.833 466.454 160.833ZM483.896 157.496C482.213 157.496 480.786 158.18 479.902 159.635V157.667H476.108V172.387H479.902V165.084C479.902 162.374 481.3 161.204 483.496 161.204C484.438 161.204 485.18 161.347 485.522 161.404V157.61C485.18 157.581 484.638 157.496 483.896 157.496ZM514.65 172.387L506.691 151.847H502.555L494.567 172.387H498.675L500.701 167.138H508.517L510.542 172.387H514.65ZM502.783 161.775C503.496 160.006 504.038 158.494 504.58 156.839H504.609C505.208 158.494 505.75 160.006 506.434 161.775L507.148 163.629H502.07L502.783 161.775ZM515.838 167.423C515.866 169.819 517.863 172.558 521.629 172.558C524.853 172.558 527.277 170.789 527.334 167.765C527.391 165.683 525.937 164.057 523.055 163.401L521.058 162.944C520.317 162.773 519.946 162.402 519.946 161.803C519.946 161.061 520.602 160.519 521.658 160.519C522.713 160.519 523.483 161.261 523.512 162.317H526.878C526.878 159.949 524.853 157.496 521.686 157.496C518.491 157.496 516.209 159.293 516.209 161.86C516.209 163.971 517.321 165.54 520.089 166.225L521.886 166.653C523.027 166.938 523.597 167.28 523.597 168.022C523.597 168.821 522.799 169.306 521.8 169.306C520.631 169.306 519.661 168.621 519.632 167.423H515.838ZM529.21 167.423C529.239 169.819 531.235 172.558 535.001 172.558C538.225 172.558 540.649 170.789 540.707 167.765C540.764 165.683 539.309 164.057 536.427 163.401L534.431 162.944C533.689 162.773 533.318 162.402 533.318 161.803C533.318 161.061 533.974 160.519 535.03 160.519C536.085 160.519 536.855 161.261 536.884 162.317H540.25C540.25 159.949 538.225 157.496 535.058 157.496C531.863 157.496 529.581 159.293 529.581 161.86C529.581 163.971 530.693 165.54 533.461 166.225L535.258 166.653C536.399 166.938 536.969 167.28 536.969 168.022C536.969 168.821 536.171 169.306 535.172 169.306C534.003 169.306 533.033 168.621 533.004 167.423H529.21ZM550.142 172.558H550.17C554.193 172.558 557.445 169.163 557.445 165.027C557.445 160.89 554.193 157.496 550.17 157.496H550.142C546.091 157.496 542.839 160.862 542.839 165.027C542.839 169.192 546.091 172.558 550.142 172.558ZM550.142 168.792C548.145 168.792 546.604 167.081 546.604 165.027C546.604 162.973 548.145 161.29 550.142 161.261H550.17C552.11 161.261 553.651 162.973 553.651 165.027C553.651 167.081 552.139 168.792 550.17 168.792H550.142ZM573.841 163.144C573.67 160.833 571.474 157.496 567.052 157.496C563.001 157.496 559.749 160.862 559.749 165.027C559.749 169.192 563.001 172.558 567.052 172.558C571.046 172.558 573.67 169.078 573.784 166.91H570.019C569.762 168.051 568.507 168.963 567.052 168.963C564.941 168.963 563.515 167.081 563.515 165.027C563.515 162.973 564.827 161.09 567.052 161.09C568.393 161.09 569.619 161.889 569.99 163.144H573.841ZM578.671 156.041C580.041 156.041 581.267 154.9 581.267 153.473C581.267 152.075 580.098 150.963 578.671 150.963C577.245 150.963 576.133 152.075 576.133 153.473C576.133 154.9 577.245 156.041 578.671 156.041ZM580.554 157.667H576.76V172.387H580.554V157.667ZM594.069 159.55C592.985 158.294 591.473 157.496 589.761 157.496C586.252 157.496 583.457 160.862 583.457 165.027C583.457 169.192 586.252 172.558 589.761 172.558C591.473 172.558 592.956 171.759 594.069 170.504V172.387H597.863V157.667H594.069V159.55ZM590.674 168.792C588.763 168.792 587.222 167.109 587.222 165.027C587.222 162.944 588.763 161.29 590.674 161.29C592.585 161.29 594.069 162.944 594.069 165.027C594.069 167.109 592.585 168.792 590.674 168.792ZM608.34 169.078C607.284 169.078 606.542 168.65 606.542 167.509V160.976H610.023V157.667H606.542V153.473H602.748V157.667H600.352V160.976H602.748V167.594C602.748 171.046 604.574 172.558 607.484 172.558C608.311 172.558 609.224 172.387 610.023 172.159V168.792C609.509 168.935 608.91 169.078 608.34 169.078ZM625.797 166.082C625.825 165.825 625.854 165.398 625.854 164.97C625.854 160.862 622.83 157.496 619.007 157.496C614.957 157.496 611.733 160.776 611.733 165.027C611.733 169.363 614.871 172.558 619.122 172.558C623.829 172.558 625.426 168.849 625.597 167.566H621.803C621.518 168.364 620.605 169.22 619.122 169.22C616.925 169.22 615.898 167.822 615.67 166.082H625.797ZM619.007 160.833C620.719 160.833 621.689 161.974 622.003 163.543H615.784C616.126 161.974 617.21 160.833 619.007 160.833Z" fill="white"/>
<path d="M521.916 195.74C522.622 195.348 523.131 194.59 523.131 193.728C523.131 192.343 521.89 191.206 520.44 191.206H516.69V200.613H520.819C522.23 200.613 523.497 199.477 523.497 198.092C523.51 197.099 522.935 196.171 521.916 195.753V195.74ZM520.44 192.565C521.184 192.565 521.772 193.153 521.772 193.884C521.772 194.551 521.224 195.139 520.492 195.152H518.049V192.565H520.44ZM518.049 199.254V196.524H520.819C521.55 196.524 522.138 197.164 522.138 197.896C522.138 198.64 521.55 199.254 520.819 199.254H518.049ZM529.295 193.871V197.791C529.295 198.627 528.615 199.346 527.753 199.346C526.904 199.346 526.224 198.64 526.224 197.791V193.871H524.865V197.948C524.865 199.477 525.78 200.692 527.27 200.692C528.106 200.692 528.837 200.247 529.295 199.699V200.535C529.295 201.75 528.615 202.547 527.531 202.547C526.499 202.547 525.924 202.011 525.819 201.175H524.395C524.473 202.521 525.545 203.827 527.505 203.827C529.334 203.827 530.654 202.456 530.654 200.483V193.871H529.295Z" fill="white"/>
<g clip-path="url(#clip1_10078_202103)">
<path fill-rule="evenodd" clip-rule="evenodd" d="M560.995 199.381C559.403 199.381 558.113 198.086 558.113 196.488C558.113 194.89 559.403 193.594 560.995 193.594C562.586 193.594 563.876 194.89 563.876 196.488C563.876 197.255 563.573 197.991 563.032 198.533C562.492 199.076 561.759 199.381 560.995 199.381ZM563.881 188.902V193.401C562.208 191.823 559.586 191.878 557.98 193.524C556.375 195.17 556.375 197.804 557.98 199.45C559.586 201.097 562.208 201.151 563.881 199.574V200.506H565.213V188.902H563.881ZM600.962 199.381C599.371 199.381 598.081 198.086 598.081 196.488C598.081 194.89 599.371 193.594 600.962 193.594C602.554 193.594 603.844 194.89 603.844 196.488C603.844 197.255 603.54 197.991 603 198.533C602.459 199.076 601.726 199.381 600.962 199.381ZM605.179 196.488V192.297H603.848V193.401C602.175 191.823 599.553 191.878 597.947 193.524C596.341 195.17 596.341 197.804 597.947 199.45C599.553 201.097 602.175 201.151 603.848 199.574V200.506H605.18V196.488H605.179ZM615.799 192.609C615.918 192.412 616.131 192.292 616.36 192.293H616.616C617.161 192.293 617.602 192.735 617.602 193.282V200.506H616.242V194.386C615.616 195.402 613.371 199.086 612.699 200.191C612.579 200.387 612.367 200.506 612.138 200.506H611.861C611.498 200.506 611.204 200.211 611.204 199.847V194.371C610.47 195.561 608.215 199.261 607.505 200.444L607.468 200.506H606.165V192.295H607.523V192.312L607.492 197.976L610.75 192.61C610.869 192.414 611.082 192.294 611.311 192.294H611.569C612.112 192.294 612.553 192.736 612.555 193.281C612.555 194.791 612.562 197.54 612.562 197.94L615.799 192.609ZM596.61 198.981C595.526 200.477 593.599 201.093 591.853 200.501C590.107 199.909 588.946 198.247 588.987 196.397C589.028 194.547 590.26 192.937 592.031 192.423C593.801 191.909 595.699 192.61 596.717 194.153L595.44 194.819C594.751 193.844 593.524 193.414 592.38 193.745C591.236 194.077 590.426 195.098 590.361 196.291C590.295 197.485 590.989 198.589 592.089 199.045C593.189 199.501 594.457 199.208 595.248 198.315L596.61 198.981ZM622.692 199.387C621.168 199.387 619.909 198.195 619.818 196.668V196.322C619.912 194.749 621.241 193.541 622.809 193.604C624.377 193.667 625.606 194.978 625.575 196.553C625.543 198.128 624.263 199.389 622.694 199.388L622.692 199.387ZM622.694 192.261C621.626 192.259 620.597 192.666 619.818 193.399V192.297H618.486V203.858H619.818V199.59C621.2 200.885 623.272 201.098 624.886 200.111C626.501 199.124 627.265 197.178 626.754 195.351C626.244 193.523 624.584 192.26 622.694 192.26V192.261ZM577.55 193.579V198.628C577.55 198.928 577.792 199.17 578.09 199.17H579.641V200.506H578.091C577.058 200.505 576.222 199.665 576.221 198.628L576.216 193.579H574.78V192.278H576.216V190.033H577.549V192.283H579.913V193.579H577.55ZM584.005 199.38C582.414 199.38 581.124 198.085 581.124 196.487C581.124 194.889 582.414 193.593 584.005 193.593C585.597 193.593 586.887 194.889 586.887 196.487C586.887 197.254 586.583 197.99 586.043 198.533C585.502 199.075 584.77 199.38 584.005 199.38ZM586.891 192.297V193.401C585.218 191.823 582.596 191.878 580.99 193.524C579.384 195.17 579.384 197.804 580.99 199.45C582.596 201.097 585.218 201.151 586.891 199.574V200.506H588.223V192.295L586.891 192.297ZM569.964 199.381C568.372 199.381 567.082 198.086 567.082 196.488C567.082 194.89 568.372 193.594 569.964 193.594C571.555 193.594 572.845 194.89 572.845 196.488C572.846 197.255 572.542 197.991 572.002 198.534C571.461 199.076 570.728 199.381 569.964 199.381ZM572.849 192.297V193.401C571.177 191.823 568.555 191.878 566.949 193.524C565.343 195.17 565.343 197.804 566.949 199.45C568.555 201.097 571.177 201.151 572.849 199.574V200.506H574.18V192.295L572.849 192.297Z" fill="white"/>
<path fill-rule="evenodd" clip-rule="evenodd" d="M545.379 189.939V194.173L540.905 196.735V187.361L545.379 189.939ZM546.826 198.834V195.018L552.817 191.585L551.36 190.747L546.826 193.344V189.515C546.825 189.255 546.687 189.015 546.463 188.884L541.005 185.743C540.99 185.734 540.976 185.726 540.961 185.719C540.637 185.561 540.254 185.581 539.949 185.773C539.643 185.966 539.458 186.303 539.459 186.665V197.429C539.457 197.791 539.643 198.129 539.948 198.321C540.254 198.514 540.637 198.535 540.962 198.377L541.003 198.355L545.375 195.849V199.264C545.376 199.524 545.515 199.765 545.74 199.895L551.351 203.092L552.809 202.253L546.826 198.834Z" fill="#03EF62"/>
</g>
<g filter="url(#filter0_dd_10078_202103)">
<path d="M660.95 145.299C660.95 109.76 689.76 80.95 725.3 80.95C760.839 80.95 789.649 109.76 789.649 145.299V227.199C789.649 230.43 787.03 233.049 783.799 233.049H666.8C663.569 233.049 660.95 230.43 660.95 227.199V145.299Z" fill="#05192D" stroke="#974DFF" stroke-width="3.89997"/>
<circle cx="725.299" cy="143.348" r="46.7996" stroke="url(#paint7_linear_10078_202103)" stroke-width="1.94998"/>
<circle cx="725.3" cy="137.499" r="27.2998" fill="url(#paint8_linear_10078_202103)"/>
<g filter="url(#filter1_d_10078_202103)">
<circle cx="725.3" cy="137.5" r="19.4998" fill="white"/>
</g>
<path fill-rule="evenodd" clip-rule="evenodd" d="M725.299 127.1C729.248 127.1 732.449 130.301 732.449 134.25C732.449 136.47 731.437 138.454 729.849 139.765V146.788C729.849 147.691 728.96 148.303 728.134 148.02L727.997 147.965L725.297 146.695L722.603 147.964C721.786 148.349 720.854 147.805 720.758 146.936L720.749 146.788V139.765C719.162 138.454 718.15 136.47 718.15 134.25C718.15 130.301 721.351 127.1 725.299 127.1ZM723.349 141.13V144.738L724.742 144.083C725.043 143.942 725.384 143.922 725.696 144.022L725.849 144.083L727.249 144.74V141.13C726.63 141.306 725.975 141.399 725.299 141.399C724.623 141.399 723.969 141.306 723.349 141.13ZM725.299 129.699C722.787 129.699 720.749 131.736 720.749 134.249C720.749 136.762 722.787 138.799 725.299 138.799C727.812 138.799 729.849 136.762 729.849 134.249C729.849 131.736 727.812 129.699 725.299 129.699Z" fill="#05192D"/>
<path d="M659 211.6H791.599V227.199C791.599 231.507 788.107 234.999 783.799 234.999H666.8C662.492 234.999 659 231.507 659 227.199V211.6Z" fill="#974DFF"/>
<path d="M694.765 226.549L691.5 218.125H689.804L686.528 226.549H688.213L689.043 224.396H692.249L693.08 226.549H694.765ZM689.897 222.196C690.19 221.471 690.412 220.851 690.635 220.172H690.646C690.892 220.851 691.114 221.471 691.395 222.196L691.688 222.957H689.605L689.897 222.196ZM696.803 223.6C696.814 225.472 698.23 226.619 699.927 226.619C701.6 226.619 702.781 225.578 702.781 224.08C702.781 222.781 701.997 221.986 700.418 221.588L699.459 221.342C698.827 221.179 698.64 220.828 698.64 220.488C698.64 220.032 699.049 219.541 699.775 219.541C700.488 219.541 700.98 220.055 700.98 220.757H702.512C702.512 219.307 701.483 218.055 699.845 218.055C698.347 218.055 697.037 219.049 697.037 220.477C697.037 221.611 697.844 222.501 699.213 222.84L700.196 223.086C700.816 223.238 701.179 223.612 701.179 224.104C701.179 224.607 700.769 225.121 699.927 225.121C699.002 225.121 698.382 224.572 698.371 223.6H696.803ZM705.15 223.6C705.161 225.472 706.577 226.619 708.273 226.619C709.947 226.619 711.128 225.578 711.128 224.08C711.128 222.781 710.344 221.986 708.765 221.588L707.805 221.342C707.174 221.179 706.986 220.828 706.986 220.488C706.986 220.032 707.396 219.541 708.121 219.541C708.835 219.541 709.326 220.055 709.326 220.757H710.859C710.859 219.307 709.83 218.055 708.192 218.055C706.694 218.055 705.384 219.049 705.384 220.477C705.384 221.611 706.191 222.501 707.56 222.84L708.543 223.086C709.163 223.238 709.525 223.612 709.525 224.104C709.525 224.607 709.116 225.121 708.273 225.121C707.349 225.121 706.729 224.572 706.717 223.6H705.15ZM717.732 226.619C720.095 226.619 722.002 224.7 722.002 222.337C722.002 219.973 720.095 218.055 717.732 218.055C715.368 218.055 713.473 219.973 713.473 222.337C713.473 224.7 715.368 226.619 717.732 226.619ZM717.732 225.063C716.222 225.063 715.029 223.846 715.029 222.337C715.029 220.828 716.222 219.611 717.732 219.611C719.241 219.611 720.446 220.828 720.446 222.337C720.446 223.846 719.241 225.063 717.732 225.063ZM728.729 226.619C730.835 226.619 732.216 225.18 732.485 223.589H730.87C730.578 224.513 729.712 225.063 728.729 225.063C727.22 225.063 726.027 223.846 726.027 222.337C726.027 220.828 727.22 219.611 728.729 219.611C729.665 219.611 730.601 220.243 730.859 221.12H732.473C732.216 219.681 730.87 218.055 728.729 218.055C726.366 218.055 724.471 219.973 724.471 222.337C724.471 224.7 726.366 226.619 728.729 226.619ZM735.318 218.125V226.549H736.874V218.125H735.318ZM747.668 226.549L744.404 218.125H742.707L739.431 226.549H741.116L741.947 224.396H745.152L745.983 226.549H747.668ZM742.801 222.196C743.093 221.471 743.315 220.851 743.538 220.172H743.549C743.795 220.851 744.017 221.471 744.298 222.196L744.591 222.957H742.508L742.801 222.196ZM755.189 218.125H748.567V219.681H751.094V226.549H752.65V219.681H755.189V218.125ZM757.754 218.125V226.549H763.639V224.993H759.31V223.109H763.194V221.565H759.31V219.681H763.639V218.125H757.754Z" fill="#05192D"/>
<g clip-path="url(#clip2_10078_202103)">
<path fill-rule="evenodd" clip-rule="evenodd" d="M701.606 173.349V175.991L698.881 177.59V171.741L701.606 173.349ZM702.488 178.9V176.519L706.138 174.377L705.25 173.854L702.488 175.474V173.085C702.488 172.923 702.403 172.773 702.267 172.691L698.942 170.731C698.933 170.726 698.924 170.721 698.915 170.716C698.718 170.618 698.485 170.63 698.299 170.75C698.112 170.87 698 171.08 698 171.306V178.023C697.999 178.249 698.112 178.46 698.298 178.58C698.485 178.701 698.718 178.714 698.916 178.615L698.941 178.601L701.604 177.037V179.168C701.605 179.331 701.69 179.481 701.827 179.562L705.245 181.557L706.132 181.033L702.488 178.9Z" fill="#03EF62"/>
</g>
<path d="M713.619 180.148C715.4 180.148 716.662 179.003 717.012 177.529H715.846C715.506 178.473 714.626 179.045 713.619 179.045C712.081 179.045 710.893 177.805 710.893 176.267C710.893 174.729 712.081 173.489 713.619 173.489C714.541 173.489 715.528 174.114 715.814 174.995H716.98C716.662 173.616 715.358 172.386 713.619 172.386C711.477 172.386 709.791 174.125 709.791 176.267C709.791 178.409 711.477 180.148 713.619 180.148Z" fill="white"/>
<path d="M723.011 177.688C723.022 177.571 723.033 177.433 723.033 177.285C723.033 175.79 721.951 174.549 720.488 174.549C718.982 174.549 717.868 175.79 717.868 177.349C717.868 178.939 718.961 180.148 720.541 180.148C722.227 180.148 722.852 178.854 722.937 178.335H721.802C721.696 178.653 721.304 179.151 720.541 179.151C719.607 179.151 719.098 178.505 719.003 177.688H723.011ZM720.488 175.546C721.304 175.546 721.792 176.129 721.908 176.861H719.035C719.173 176.119 719.671 175.546 720.488 175.546Z" fill="white"/>
<path d="M726.758 174.549C726.09 174.549 725.592 174.857 725.306 175.334V174.613H724.203V180.085H725.306V177.147C725.306 176.097 725.889 175.631 726.716 175.631C726.96 175.631 727.161 175.663 727.289 175.684V174.581C727.161 174.57 727.013 174.549 726.758 174.549Z" fill="white"/>
<path d="M730.394 179.12C729.991 179.12 729.726 178.939 729.726 178.483V175.578H731.125V174.613H729.726V173.065H728.623V174.613H727.69V175.578H728.623V178.505C728.623 179.618 729.227 180.148 730.192 180.148C730.574 180.148 730.934 180.021 731.125 179.947V178.918C730.987 178.982 730.68 179.12 730.394 179.12Z" fill="white"/>
<path d="M732.811 173.839C733.257 173.839 733.628 173.489 733.628 173.043C733.628 172.598 733.267 172.248 732.811 172.248C732.366 172.248 732.016 172.598 732.016 173.043C732.016 173.489 732.366 173.839 732.811 173.839ZM733.352 174.613H732.249V180.085H733.352V174.613Z" fill="white"/>
<path d="M736.468 174.613V174.104C736.468 173.637 736.786 173.425 737.179 173.425C737.444 173.425 737.688 173.489 737.836 173.552V172.534C737.666 172.471 737.295 172.386 736.882 172.386C735.949 172.386 735.365 173.086 735.365 174.083V174.613H734.485V175.578H735.365V180.085H736.468V175.578H737.878V174.613H736.468Z" fill="white"/>
<path d="M739.459 173.839C739.905 173.839 740.276 173.489 740.276 173.043C740.276 172.598 739.915 172.248 739.459 172.248C739.014 172.248 738.664 172.598 738.664 173.043C738.664 173.489 739.014 173.839 739.459 173.839ZM740 174.613H738.897V180.085H740V174.613Z" fill="white"/>
<path d="M746.394 177.688C746.405 177.571 746.416 177.433 746.416 177.285C746.416 175.79 745.334 174.549 743.871 174.549C742.365 174.549 741.251 175.79 741.251 177.349C741.251 178.939 742.344 180.148 743.924 180.148C745.61 180.148 746.235 178.854 746.32 178.335H745.185C745.079 178.653 744.687 179.151 743.924 179.151C742.99 179.151 742.481 178.505 742.386 177.688H746.394ZM743.871 175.546C744.687 175.546 745.175 176.129 745.292 176.861H742.418C742.556 176.119 743.054 175.546 743.871 175.546Z" fill="white"/>
<path d="M751.497 172.45V175.451C751.147 174.931 750.51 174.549 749.768 174.549C748.485 174.549 747.372 175.737 747.372 177.349C747.372 178.96 748.485 180.148 749.768 180.148C750.51 180.148 751.104 179.862 751.497 179.247V180.085H752.599V172.45H751.497ZM750.023 179.077C749.121 179.077 748.474 178.303 748.474 177.349C748.474 176.394 749.121 175.631 750.023 175.631C750.924 175.631 751.497 176.394 751.497 177.349C751.497 178.303 750.924 179.077 750.023 179.077Z" fill="white"/>
<path d="M672.716 187.516V198.748H677.099C680.172 198.748 682.715 196.299 682.715 193.132C682.715 189.965 680.157 187.516 677.099 187.516H672.716ZM674.79 196.673V189.591H677.099C679.049 189.591 680.64 191.182 680.64 193.132C680.64 195.082 679.049 196.673 677.099 196.673H674.79ZM689.612 191.728C689.019 191.042 688.192 190.605 687.256 190.605C685.338 190.605 683.809 192.446 683.809 194.723C683.809 197.001 685.338 198.842 687.256 198.842C688.192 198.842 689.004 198.405 689.612 197.718V198.748H691.687V190.699H689.612V191.728ZM687.756 196.782C686.71 196.782 685.868 195.862 685.868 194.723C685.868 193.584 686.71 192.68 687.756 192.68C688.801 192.68 689.612 193.584 689.612 194.723C689.612 195.862 688.801 196.782 687.756 196.782ZM697.416 196.938C696.839 196.938 696.433 196.704 696.433 196.08V192.508H698.336V190.699H696.433V188.405H694.358V190.699H693.048V192.508H694.358V196.127C694.358 198.015 695.357 198.842 696.948 198.842C697.4 198.842 697.9 198.748 698.336 198.623V196.782C698.056 196.86 697.728 196.938 697.416 196.938ZM705.075 191.728C704.482 191.042 703.655 190.605 702.719 190.605C700.8 190.605 699.272 192.446 699.272 194.723C699.272 197.001 700.8 198.842 702.719 198.842C703.655 198.842 704.466 198.405 705.075 197.718V198.748H707.15V190.699H705.075V191.728ZM703.218 196.782C702.173 196.782 701.331 195.862 701.331 194.723C701.331 193.584 702.173 192.68 703.218 192.68C704.264 192.68 705.075 193.584 705.075 194.723C705.075 195.862 704.264 196.782 703.218 196.782ZM713.955 187.516V198.748H721.801V196.673H716.029V194.162H721.209V192.103H716.029V189.591H721.801V187.516H713.955ZM727.839 190.605C726.918 190.605 726.076 191.042 725.608 191.759V190.699H723.595V198.748H725.67V194.271C725.67 193.319 726.341 192.68 727.199 192.68C728.041 192.68 728.712 193.304 728.712 194.255V198.748H730.787V194.006C730.787 191.697 729.633 190.605 727.839 190.605ZM738.276 190.699V191.759C737.683 191.026 736.903 190.605 735.889 190.605C734.002 190.605 732.457 192.446 732.457 194.723C732.457 197.001 734.002 198.842 735.889 198.842C736.81 198.842 737.652 198.436 738.276 197.703V198.467C738.276 199.684 737.434 200.651 736.279 200.651C735.25 200.651 734.548 200.136 734.345 199.294H732.192C732.286 200.792 733.752 202.586 736.217 202.586C738.572 202.586 740.351 200.838 740.351 198.467V190.699H738.276ZM736.42 196.798C735.359 196.798 734.532 195.862 734.532 194.723C734.532 193.584 735.359 192.68 736.42 192.68C737.465 192.68 738.276 193.584 738.276 194.723C738.276 195.862 737.465 196.798 736.42 196.798ZM743.5 189.809C744.249 189.809 744.92 189.185 744.92 188.405C744.92 187.641 744.28 187.033 743.5 187.033C742.72 187.033 742.112 187.641 742.112 188.405C742.112 189.185 742.72 189.809 743.5 189.809ZM744.53 190.699H742.455V198.748H744.53V190.699ZM750.918 190.605C749.998 190.605 749.156 191.042 748.688 191.759V190.699H746.675V198.748H748.75V194.271C748.75 193.319 749.421 192.68 750.279 192.68C751.121 192.68 751.792 193.304 751.792 194.255V198.748H753.867V194.006C753.867 191.697 752.712 190.605 750.918 190.605ZM763.131 195.3C763.147 195.16 763.162 194.926 763.162 194.692C763.162 192.446 761.509 190.605 759.418 190.605C757.203 190.605 755.44 192.399 755.44 194.723C755.44 197.094 757.156 198.842 759.481 198.842C762.055 198.842 762.928 196.814 763.022 196.112H760.947C760.791 196.548 760.292 197.016 759.481 197.016C758.279 197.016 757.718 196.252 757.593 195.3H763.131ZM759.418 192.43C760.354 192.43 760.885 193.054 761.056 193.912H757.655C757.843 193.054 758.435 192.43 759.418 192.43ZM772.119 195.3C772.135 195.16 772.15 194.926 772.15 194.692C772.15 192.446 770.497 190.605 768.406 190.605C766.191 190.605 764.428 192.399 764.428 194.723C764.428 197.094 766.144 198.842 768.469 198.842C771.043 198.842 771.916 196.814 772.01 196.112H769.935C769.779 196.548 769.28 197.016 768.469 197.016C767.268 197.016 766.706 196.252 766.581 195.3H772.119ZM768.406 192.43C769.342 192.43 769.873 193.054 770.044 193.912H766.644C766.831 193.054 767.424 192.43 768.406 192.43ZM777.944 190.605C777.024 190.605 776.244 190.979 775.76 191.775V190.699H773.686V198.748H775.76V194.754C775.76 193.272 776.525 192.633 777.726 192.633C778.241 192.633 778.646 192.711 778.834 192.742V190.667C778.646 190.652 778.35 190.605 777.944 190.605Z" fill="white"/>
</g>
</g>
<defs>
<filter id="filter0_dd_10078_202103" x="653.15" y="75.1" width="144.299" height="167.7" filterUnits="userSpaceOnUse" color-interpolation-filters="sRGB">
<feFlood flood-opacity="0" result="BackgroundImageFix"/>
<feColorMatrix in="SourceAlpha" type="matrix" values="0 0 0 0 0 0 0 0 0 0 0 0 0 0 0 0 0 0 127 0" result="hardAlpha"/>
<feMorphology radius="1.94998" operator="erode" in="SourceAlpha" result="effect1_dropShadow_10078_202103"/>
<feOffset dy="1.94998"/>
<feGaussianBlur stdDeviation="3.89997"/>
<feColorMatrix type="matrix" values="0 0 0 0 0.0196078 0 0 0 0 0.0980392 0 0 0 0 0.176471 0 0 0 0.3 0"/>
<feBlend mode="normal" in2="BackgroundImageFix" result="effect1_dropShadow_10078_202103"/>
<feColorMatrix in="SourceAlpha" type="matrix" values="0 0 0 0 0 0 0 0 0 0 0 0 0 0 0 0 0 0 127 0" result="hardAlpha"/>
<feOffset/>
<feGaussianBlur stdDeviation="0.974991"/>
<feColorMatrix type="matrix" values="0 0 0 0 0.0196078 0 0 0 0 0.0980392 0 0 0 0 0.176471 0 0 0 0.3 0"/>
<feBlend mode="normal" in2="effect1_dropShadow_10078_202103" result="effect2_dropShadow_10078_202103"/>
<feBlend mode="normal" in="SourceGraphic" in2="effect2_dropShadow_10078_202103" result="shape"/>
</filter>
<filter id="filter1_d_10078_202103" x="672.174" y="111.275" width="106.251" height="106.251" filterUnits="userSpaceOnUse" color-interpolation-filters="sRGB">
<feFlood flood-opacity="0" result="BackgroundImageFix"/>
<feColorMatrix in="SourceAlpha" type="matrix" values="0 0 0 0 0 0 0 0 0 0 0 0 0 0 0 0 0 0 127 0" result="hardAlpha"/>
<feOffset dy="26.9004"/>
<feGaussianBlur stdDeviation="16.8127"/>
<feComposite in2="hardAlpha" operator="out"/>
<feColorMatrix type="matrix" values="0 0 0 0 0 0 0 0 0 0.0313726 0 0 0 0 0.12549 0 0 0 1 0"/>
<feBlend mode="normal" in2="BackgroundImageFix" result="effect1_dropShadow_10078_202103"/>
<feBlend mode="normal" in="SourceGraphic" in2="effect1_dropShadow_10078_202103" result="shape"/>
</filter>
<linearGradient id="paint0_linear_10078_202103" x1="15.3723" y1="31.5278" x2="63.3103" y2="233.778" gradientUnits="userSpaceOnUse">
<stop stop-color="#974DFF"/>
<stop offset="1" stop-color="#05192D"/>
</linearGradient>
<linearGradient id="paint1_linear_10078_202103" x1="6.45462" y1="-3.00194" x2="159.596" y2="-32.8697" gradientUnits="userSpaceOnUse">
<stop stop-color="#974DFF"/>
<stop offset="1" stop-color="#05192D"/>
</linearGradient>
<linearGradient id="paint2_linear_10078_202103" x1="26.3146" y1="74.7854" x2="205.343" y2="74.7854" gradientUnits="userSpaceOnUse">
<stop stop-color="#974DFF"/>
<stop offset="1" stop-color="#05192D"/>
</linearGradient>
<linearGradient id="paint3_linear_10078_202103" x1="322.8" y1="-95.0534" x2="274.208" y2="66.2289" gradientUnits="userSpaceOnUse">
<stop stop-color="#974DFF"/>
<stop offset="1" stop-color="#05192D"/>
</linearGradient>
<linearGradient id="paint4_linear_10078_202103" x1="5.29248" y1="85.7383" x2="-20.1115" y2="-85.209" gradientUnits="userSpaceOnUse">
<stop stop-color="#974DFF"/>
<stop offset="1" stop-color="#05192D"/>
</linearGradient>
<linearGradient id="paint5_linear_10078_202103" x1="184.842" y1="379.033" x2="434.128" y2="480.797" gradientUnits="userSpaceOnUse">
<stop stop-color="#974DFF"/>
<stop offset="1" stop-color="#05192D"/>
</linearGradient>
<linearGradient id="paint6_linear_10078_202103" x1="186.274" y1="281.355" x2="197.623" y2="169.023" gradientUnits="userSpaceOnUse">
<stop stop-color="#974DFF"/>
<stop offset="1" stop-color="#05192D"/>
</linearGradient>
<linearGradient id="paint7_linear_10078_202103" x1="725.299" y1="96.5488" x2="725.299" y2="163.823" gradientUnits="userSpaceOnUse">
<stop stop-color="white" stop-opacity="0.24"/>
<stop offset="1" stop-color="#05192D"/>
</linearGradient>
<linearGradient id="paint8_linear_10078_202103" x1="725.3" y1="110.199" x2="725.3" y2="164.799" gradientUnits="userSpaceOnUse">
<stop stop-color="white" stop-opacity="0.24"/>
<stop offset="1" stop-color="white" stop-opacity="0"/>
</linearGradient>
<clipPath id="clip0_10078_202103">
<rect width="851" height="315" fill="white"/>
</clipPath>
<clipPath id="clip1_10078_202103">
<rect width="87.5415" height="18.2922" fill="white" transform="translate(539.458 185.613)"/>
</clipPath>
<clipPath id="clip2_10078_202103">
<rect width="8.32291" height="11.0972" fill="white" transform="translate(698 170.65)"/>
</clipPath>
</defs>
</svg>
