<svg width="1500" height="500" viewBox="0 0 1500 500" fill="none" xmlns="http://www.w3.org/2000/svg">
<g clip-path="url(#clip0_10078_202141)">
<rect width="1500" height="500" fill="#05192D"/>
<mask id="mask0_10078_202141" style="mask-type:alpha" maskUnits="userSpaceOnUse" x="0" y="0" width="1500" height="500">
<rect width="1500" height="500" fill="#05192D"/>
</mask>
<g mask="url(#mask0_10078_202141)">
<path d="M-1.09454 332V332C32.2807 332 59.3366 304.944 59.3366 271.569L59.3366 -4.31239L-1.09457 -4.31238" stroke="url(#paint0_linear_10078_202141)" stroke-width="1.95036"/>
<rect x="-6.34918" y="-4.76367" width="284.395" height="112.951" stroke="url(#paint1_linear_10078_202141)" stroke-width="1.95036"/>
<circle cx="279.054" cy="109.193" r="77.654" stroke="url(#paint2_linear_10078_202141)" stroke-width="1.95036"/>
<path d="M525 33.245C525 67.6825 552.917 95.5996 587.355 95.5996L930.972 95.5997L930.972 -5.38841L525 -5.38849L525 33.245Z" stroke="url(#paint3_linear_10078_202141)" stroke-width="1.94858"/>
<rect width="181.457" height="189.857" rx="90.7283" transform="matrix(1 9.20383e-08 8.30387e-08 -1 840.369 95.5996)" stroke="url(#paint4_linear_10078_202141)" stroke-width="1.94858"/>
<path d="M733.38 458.627C733.38 433.189 712.759 412.568 687.322 412.568L182.54 412.568L182.54 533.605L733.38 533.605L733.38 458.627Z" stroke="url(#paint5_linear_10078_202141)" stroke-width="1.91911"/>
<path d="M380.523 353.213C380.523 315.057 349.591 284.125 311.435 284.125L182.54 284.125L182.54 454.801L380.523 454.801L380.523 353.213Z" stroke="url(#paint6_linear_10078_202141)" stroke-width="1.91911"/>
</g>
<path d="M837.76 215.727C846.743 215.727 852.631 209.589 853.779 202.802H846.892C845.645 206.744 841.952 209.09 837.76 209.09C831.322 209.09 826.232 203.9 826.232 197.462C826.232 191.025 831.322 185.835 837.76 185.835C841.752 185.835 845.744 188.529 846.842 192.272H853.729C852.631 186.134 846.892 179.197 837.76 179.197C827.679 179.197 819.595 187.382 819.595 197.462C819.595 207.543 827.679 215.727 837.76 215.727ZM882.115 204.399C882.165 203.95 882.215 203.201 882.215 202.453C882.215 195.266 876.925 189.378 870.238 189.378C863.152 189.378 857.513 195.117 857.513 202.552C857.513 210.138 863.002 215.727 870.438 215.727C878.672 215.727 881.466 209.24 881.766 206.994H875.129C874.63 208.391 873.033 209.888 870.438 209.888C866.595 209.888 864.799 207.443 864.399 204.399H882.115ZM870.238 195.217C873.232 195.217 874.929 197.213 875.478 199.957H864.599C865.198 197.213 867.094 195.217 870.238 195.217ZM900.75 189.378C897.805 189.378 895.31 190.575 893.763 193.121V189.677H887.126V215.428H893.763V202.652C893.763 197.911 896.208 195.865 900.051 195.865C901.698 195.865 902.995 196.115 903.594 196.215V189.577C902.995 189.527 902.047 189.378 900.75 189.378ZM919.22 209.639C917.373 209.639 916.076 208.89 916.076 206.894V195.466H922.164V189.677H916.076V182.341H909.439V189.677H905.247V195.466H909.439V207.044C909.439 213.082 912.632 215.727 917.723 215.727C919.17 215.727 920.767 215.428 922.164 215.029V209.14C921.266 209.389 920.218 209.639 919.22 209.639ZM930.479 186.833C932.875 186.833 935.021 184.836 935.021 182.341C935.021 179.896 932.975 177.95 930.479 177.95C927.984 177.95 926.038 179.896 926.038 182.341C926.038 184.836 927.984 186.833 930.479 186.833ZM933.773 189.677H927.136V215.428H933.773V189.677ZM949.37 189.677V188.08C949.37 185.984 950.767 185.286 952.514 185.286C953.661 185.286 954.759 185.585 955.059 185.685V179.846C954.51 179.646 952.663 179.197 950.418 179.197C945.477 179.197 942.732 182.89 942.732 188.03V189.677H938.59V195.466H942.732V215.428H949.37V195.466H955.458V189.677H949.37ZM963.18 186.833C965.576 186.833 967.721 184.836 967.721 182.341C967.721 179.896 965.675 177.95 963.18 177.95C960.685 177.95 958.739 179.896 958.739 182.341C958.739 184.836 960.685 186.833 963.18 186.833ZM966.474 189.677H959.837V215.428H966.474V189.677ZM996.154 204.399C996.204 203.95 996.254 203.201 996.254 202.453C996.254 195.266 990.964 189.378 984.277 189.378C977.19 189.378 971.551 195.117 971.551 202.552C971.551 210.138 977.041 215.727 984.476 215.727C992.711 215.727 995.505 209.24 995.805 206.994H989.167C988.668 208.391 987.071 209.888 984.476 209.888C980.634 209.888 978.837 207.443 978.438 204.399H996.154ZM984.277 195.217C987.271 195.217 988.968 197.213 989.517 199.957H978.638C979.236 197.213 981.133 195.217 984.277 195.217ZM1018.87 179.497V193.17C1017.22 190.975 1014.48 189.378 1011.43 189.378C1005.39 189.378 1000.3 194.817 1000.3 202.552C1000.3 210.288 1005.39 215.727 1011.43 215.727C1014.48 215.727 1017.12 214.629 1018.87 211.934V215.428H1025.51V179.497H1018.87ZM1012.93 209.14C1009.59 209.14 1006.89 206.195 1006.89 202.552C1006.89 198.909 1009.59 195.965 1012.93 195.965C1016.32 195.965 1018.87 198.909 1018.87 202.552C1018.87 206.195 1016.32 209.14 1012.93 209.14ZM1064.29 192.971C1062.39 190.775 1059.75 189.378 1056.75 189.378C1050.62 189.378 1045.73 195.266 1045.73 202.552C1045.73 209.838 1050.62 215.727 1056.75 215.727C1059.75 215.727 1062.34 214.33 1064.29 212.134V215.428H1070.93V189.677H1064.29V192.971ZM1058.35 209.14C1055.01 209.14 1052.31 206.195 1052.31 202.552C1052.31 198.909 1055.01 196.015 1058.35 196.015C1061.69 196.015 1064.29 198.909 1064.29 202.552C1064.29 206.195 1061.69 209.14 1058.35 209.14ZM1075.93 206.744C1075.98 210.936 1079.47 215.727 1086.06 215.727C1091.7 215.727 1095.94 212.633 1096.04 207.343C1096.14 203.7 1093.6 200.856 1088.56 199.708L1085.06 198.909C1083.77 198.61 1083.12 197.961 1083.12 196.913C1083.12 195.616 1084.26 194.668 1086.11 194.668C1087.96 194.668 1089.3 195.965 1089.35 197.812H1095.24C1095.24 193.67 1091.7 189.378 1086.16 189.378C1080.57 189.378 1076.58 192.522 1076.58 197.013C1076.58 200.706 1078.53 203.451 1083.37 204.648L1086.51 205.397C1088.51 205.896 1089.5 206.495 1089.5 207.792C1089.5 209.19 1088.11 210.038 1086.36 210.038C1084.31 210.038 1082.62 208.84 1082.57 206.744H1075.93ZM1132.96 192.971C1131.06 190.775 1128.42 189.378 1125.42 189.378C1119.28 189.378 1114.39 195.266 1114.39 202.552C1114.39 209.838 1119.28 215.727 1125.42 215.727C1128.42 215.727 1131.01 214.33 1132.96 212.134V215.428H1139.59V189.677H1132.96V192.971ZM1127.02 209.14C1123.67 209.14 1120.98 206.195 1120.98 202.552C1120.98 198.909 1123.67 196.015 1127.02 196.015C1130.36 196.015 1132.96 198.909 1132.96 202.552C1132.96 206.195 1130.36 209.14 1127.02 209.14ZM556.032 241.497V277.428H570.055C579.886 277.428 588.02 269.593 588.02 259.462C588.02 249.332 579.836 241.497 570.055 241.497H556.032ZM562.669 270.79V248.134H570.055C576.293 248.134 581.383 253.224 581.383 259.462C581.383 265.7 576.293 270.79 570.055 270.79H562.669ZM610.084 254.971C608.187 252.775 605.543 251.378 602.548 251.378C596.41 251.378 591.52 257.266 591.52 264.552C591.52 271.838 596.41 277.727 602.548 277.727C605.543 277.727 608.138 276.33 610.084 274.134V277.428H616.721V251.677H610.084V254.971ZM604.145 271.14C600.802 271.14 598.107 268.195 598.107 264.552C598.107 260.909 600.802 258.015 604.145 258.015C607.489 258.015 610.084 260.909 610.084 264.552C610.084 268.195 607.489 271.14 604.145 271.14ZM635.049 271.639C633.202 271.639 631.905 270.89 631.905 268.894V257.466H637.993V251.677H631.905V244.341H625.268V251.677H621.076V257.466H625.268V269.044C625.268 275.082 628.461 277.727 633.552 277.727C634.999 277.727 636.596 277.428 637.993 277.029V271.14C637.095 271.389 636.047 271.639 635.049 271.639ZM659.549 254.971C657.653 252.775 655.008 251.378 652.014 251.378C645.876 251.378 640.985 257.266 640.985 264.552C640.985 271.838 645.876 277.727 652.014 277.727C655.008 277.727 657.603 276.33 659.549 274.134V277.428H666.187V251.677H659.549V254.971ZM653.611 271.14C650.267 271.14 647.572 268.195 647.572 264.552C647.572 260.909 650.267 258.015 653.611 258.015C656.954 258.015 659.549 260.909 659.549 264.552C659.549 268.195 656.954 271.14 653.611 271.14ZM687.956 241.497V277.428H713.058V270.79H694.593V262.756H711.162V256.169H694.593V248.134H713.058V241.497H687.956ZM732.371 251.378C729.426 251.378 726.732 252.775 725.235 255.071V251.677H718.797V277.428H725.434V263.105C725.434 260.061 727.58 258.015 730.325 258.015C733.02 258.015 735.165 260.011 735.165 263.055V277.428H741.803V262.257C741.803 254.871 738.11 251.378 732.371 251.378ZM765.761 251.677V255.071C763.864 252.725 761.369 251.378 758.125 251.378C752.087 251.378 747.146 257.266 747.146 264.552C747.146 271.838 752.087 277.727 758.125 277.727C761.07 277.727 763.764 276.43 765.761 274.084V276.529C765.761 280.422 763.066 283.516 759.373 283.516C756.079 283.516 753.833 281.869 753.185 279.174H746.298C746.597 283.965 751.288 289.704 759.173 289.704C766.709 289.704 772.398 284.115 772.398 276.529V251.677H765.761ZM759.822 271.19C756.429 271.19 753.784 268.195 753.784 264.552C753.784 260.909 756.429 258.015 759.822 258.015C763.166 258.015 765.761 260.909 765.761 264.552C765.761 268.195 763.166 271.19 759.822 271.19ZM782.473 248.833C784.868 248.833 787.014 246.836 787.014 244.341C787.014 241.896 784.968 239.95 782.473 239.95C779.977 239.95 778.031 241.896 778.031 244.341C778.031 246.836 779.977 248.833 782.473 248.833ZM785.766 251.677H779.129V277.428H785.766V251.677ZM806.204 251.378C803.259 251.378 800.564 252.775 799.067 255.071V251.677H792.63V277.428H799.267V263.105C799.267 260.061 801.413 258.015 804.158 258.015C806.852 258.015 808.998 260.011 808.998 263.055V277.428H815.635V262.257C815.635 254.871 811.943 251.378 806.204 251.378ZM845.272 266.399C845.322 265.95 845.372 265.201 845.372 264.453C845.372 257.266 840.082 251.378 833.395 251.378C826.308 251.378 820.669 257.117 820.669 264.552C820.669 272.138 826.159 277.727 833.594 277.727C841.829 277.727 844.623 271.24 844.923 268.994H838.285C837.786 270.391 836.189 271.888 833.594 271.888C829.752 271.888 827.955 269.443 827.556 266.399H845.272ZM833.395 257.217C836.389 257.217 838.086 259.213 838.635 261.957H827.756C828.354 259.213 830.251 257.217 833.395 257.217ZM874.025 266.399C874.075 265.95 874.125 265.201 874.125 264.453C874.125 257.266 868.835 251.378 862.148 251.378C855.062 251.378 849.423 257.117 849.423 264.552C849.423 272.138 854.912 277.727 862.348 277.727C870.582 277.727 873.377 271.24 873.676 268.994H867.039C866.54 270.391 864.943 271.888 862.348 271.888C858.505 271.888 856.709 269.443 856.309 266.399H874.025ZM862.148 257.217C865.142 257.217 866.839 259.213 867.388 261.957H856.509C857.108 259.213 859.004 257.217 862.148 257.217ZM892.66 251.378C889.715 251.378 887.22 252.575 885.673 255.121V251.677H879.036V277.428H885.673V264.652C885.673 259.911 888.118 257.865 891.961 257.865C893.608 257.865 894.905 258.115 895.504 258.215V251.577C894.905 251.527 893.957 251.378 892.66 251.378ZM946.46 277.428L932.537 241.497H925.301L911.328 277.428H918.514L922.057 268.245H935.731L939.274 277.428H946.46ZM925.7 258.863C926.948 255.769 927.896 253.124 928.844 250.23H928.894C929.942 253.124 930.89 255.769 932.088 258.863L933.336 262.107H924.453L925.7 258.863ZM948.538 268.744C948.588 272.936 952.081 277.727 958.669 277.727C964.308 277.727 968.55 274.633 968.649 269.343C968.749 265.7 966.204 262.856 961.164 261.708L957.67 260.909C956.373 260.61 955.724 259.961 955.724 258.913C955.724 257.616 956.872 256.668 958.718 256.668C960.565 256.668 961.912 257.965 961.962 259.812H967.851C967.851 255.67 964.308 251.378 958.768 251.378C953.179 251.378 949.187 254.522 949.187 259.013C949.187 262.706 951.133 265.451 955.974 266.648L959.118 267.397C961.114 267.896 962.112 268.495 962.112 269.792C962.112 271.19 960.715 272.038 958.968 272.038C956.922 272.038 955.225 270.84 955.175 268.744H948.538ZM971.931 268.744C971.98 272.936 975.474 277.727 982.061 277.727C987.7 277.727 991.942 274.633 992.042 269.343C992.142 265.7 989.597 262.856 984.556 261.708L981.063 260.909C979.766 260.61 979.117 259.961 979.117 258.913C979.117 257.616 980.265 256.668 982.111 256.668C983.957 256.668 985.305 257.965 985.355 259.812H991.243C991.243 255.67 987.7 251.378 982.161 251.378C976.572 251.378 972.579 254.522 972.579 259.013C972.579 262.706 974.526 265.451 979.366 266.648L982.51 267.397C984.506 267.896 985.504 268.495 985.504 269.792C985.504 271.19 984.107 272.038 982.361 272.038C980.314 272.038 978.618 270.84 978.568 268.744H971.931ZM1008.55 277.727H1008.6C1015.63 277.727 1021.32 271.789 1021.32 264.552C1021.32 257.316 1015.63 251.378 1008.6 251.378H1008.55C1001.46 251.378 995.772 257.266 995.772 264.552C995.772 271.838 1001.46 277.727 1008.55 277.727ZM1008.55 271.14C1005.05 271.14 1002.36 268.146 1002.36 264.552C1002.36 260.959 1005.05 258.015 1008.55 257.965H1008.6C1011.99 257.965 1014.69 260.959 1014.69 264.552C1014.69 268.146 1012.04 271.14 1008.6 271.14H1008.55ZM1050.01 261.259C1049.71 257.217 1045.86 251.378 1038.13 251.378C1031.04 251.378 1025.35 257.266 1025.35 264.552C1025.35 271.838 1031.04 277.727 1038.13 277.727C1045.12 277.727 1049.71 271.639 1049.91 267.846H1043.32C1042.87 269.842 1040.67 271.439 1038.13 271.439C1034.44 271.439 1031.94 268.146 1031.94 264.552C1031.94 260.959 1034.24 257.666 1038.13 257.666C1040.48 257.666 1042.62 259.063 1043.27 261.259H1050.01ZM1058.46 248.833C1060.85 248.833 1063 246.836 1063 244.341C1063 241.896 1060.95 239.95 1058.46 239.95C1055.96 239.95 1054.01 241.896 1054.01 244.341C1054.01 246.836 1055.96 248.833 1058.46 248.833ZM1061.75 251.677H1055.11V277.428H1061.75V251.677ZM1085.39 254.971C1083.5 252.775 1080.85 251.378 1077.86 251.378C1071.72 251.378 1066.83 257.266 1066.83 264.552C1066.83 271.838 1071.72 277.727 1077.86 277.727C1080.85 277.727 1083.45 276.33 1085.39 274.134V277.428H1092.03V251.677H1085.39V254.971ZM1079.45 271.14C1076.11 271.14 1073.41 268.195 1073.41 264.552C1073.41 260.909 1076.11 258.015 1079.45 258.015C1082.8 258.015 1085.39 260.909 1085.39 264.552C1085.39 268.195 1082.8 271.14 1079.45 271.14ZM1110.36 271.639C1108.51 271.639 1107.21 270.89 1107.21 268.894V257.466H1113.3V251.677H1107.21V244.341H1100.58V251.677H1096.38V257.466H1100.58V269.044C1100.58 275.082 1103.77 277.727 1108.86 277.727C1110.31 277.727 1111.9 277.428 1113.3 277.029V271.14C1112.4 271.389 1111.35 271.639 1110.36 271.639ZM1140.9 266.399C1140.95 265.95 1141 265.201 1141 264.453C1141 257.266 1135.71 251.378 1129.02 251.378C1121.93 251.378 1116.29 257.117 1116.29 264.552C1116.29 272.138 1121.78 277.727 1129.22 277.727C1137.45 277.727 1140.25 271.24 1140.55 268.994H1133.91C1133.41 270.391 1131.81 271.888 1129.22 271.888C1125.38 271.888 1123.58 269.443 1123.18 266.399H1140.9ZM1129.02 257.217C1132.01 257.217 1133.71 259.213 1134.26 261.957H1123.38C1123.98 259.213 1125.87 257.217 1129.02 257.217Z" fill="white"/>
<path d="M959.166 316.045C960.4 315.359 961.291 314.033 961.291 312.525C961.291 310.102 959.12 308.113 956.583 308.113H950.023V324.57H957.246C959.714 324.57 961.931 322.582 961.931 320.159C961.954 318.422 960.949 316.799 959.166 316.068V316.045ZM956.583 310.49C957.886 310.49 958.914 311.519 958.914 312.799C958.914 313.965 957.954 314.993 956.674 315.016H952.4V310.49H956.583ZM952.4 322.193V317.416H957.246C958.526 317.416 959.554 318.536 959.554 319.816C959.554 321.119 958.526 322.193 957.246 322.193H952.4ZM972.073 312.776V319.633C972.073 321.096 970.885 322.353 969.376 322.353C967.891 322.353 966.702 321.119 966.702 319.633V312.776H964.325V319.908C964.325 322.582 965.925 324.707 968.531 324.707C969.993 324.707 971.273 323.93 972.073 322.97V324.433C972.073 326.559 970.885 327.953 968.988 327.953C967.182 327.953 966.176 327.016 965.994 325.553H963.502C963.639 327.907 965.514 330.193 968.942 330.193C972.142 330.193 974.451 327.793 974.451 324.342V312.776H972.073Z" fill="white"/>
<g clip-path="url(#clip1_10078_202141)">
<path fill-rule="evenodd" clip-rule="evenodd" d="M1027.53 323.655C1024.75 323.655 1022.49 321.389 1022.49 318.593C1022.49 315.798 1024.75 313.532 1027.53 313.532C1030.32 313.532 1032.57 315.798 1032.57 318.593C1032.57 319.936 1032.04 321.223 1031.1 322.173C1030.15 323.122 1028.87 323.655 1027.53 323.655ZM1032.58 305.324V313.193C1029.66 310.433 1025.07 310.529 1022.26 313.409C1019.45 316.289 1019.45 320.896 1022.26 323.776C1025.07 326.656 1029.66 326.752 1032.58 323.992V325.623H1034.91V305.324H1032.58ZM1097.45 323.655C1094.67 323.655 1092.41 321.389 1092.41 318.593C1092.41 315.798 1094.67 313.532 1097.45 313.532C1100.23 313.532 1102.49 315.798 1102.49 318.593C1102.49 319.936 1101.96 321.223 1101.01 322.173C1100.07 323.122 1098.79 323.655 1097.45 323.655ZM1104.83 318.593V311.263H1102.5V313.193C1099.57 310.433 1094.99 310.529 1092.18 313.409C1089.37 316.289 1089.37 320.896 1092.18 323.776C1094.99 326.656 1099.57 326.752 1102.5 323.992V325.623H1104.83V318.593H1104.83ZM1123.4 311.808C1123.61 311.464 1123.99 311.254 1124.39 311.255H1124.84C1125.79 311.255 1126.56 312.03 1126.56 312.986V325.623H1124.18V314.917C1123.08 316.695 1119.16 323.139 1117.98 325.072C1117.77 325.415 1117.4 325.624 1117 325.623H1116.52C1115.88 325.623 1115.37 325.107 1115.37 324.47V314.89C1114.08 316.972 1110.14 323.445 1108.9 325.515L1108.83 325.623H1106.55V311.259H1108.93V311.289L1108.87 321.197L1114.57 311.811C1114.78 311.467 1115.15 311.258 1115.55 311.258H1116.01C1116.96 311.258 1117.73 312.03 1117.73 312.984C1117.73 315.625 1117.74 320.435 1117.74 321.135L1123.4 311.808ZM1089.84 322.955C1087.94 325.573 1084.57 326.65 1081.52 325.614C1078.46 324.579 1076.43 321.671 1076.5 318.435C1076.57 315.198 1078.73 312.383 1081.83 311.484C1084.92 310.585 1088.24 311.81 1090.02 314.509L1087.79 315.675C1086.58 313.97 1084.44 313.216 1082.44 313.796C1080.44 314.376 1079.02 316.163 1078.91 318.25C1078.79 320.338 1080 322.27 1081.93 323.068C1083.85 323.865 1086.07 323.352 1087.45 321.791L1089.84 322.955ZM1135.46 323.666C1132.8 323.665 1130.6 321.58 1130.44 318.909V318.303C1130.6 315.552 1132.93 313.438 1135.67 313.549C1138.41 313.659 1140.56 315.952 1140.51 318.708C1140.45 321.463 1138.21 323.668 1135.47 323.668L1135.46 323.666ZM1135.47 311.199C1133.6 311.197 1131.8 311.909 1130.44 313.19V311.263H1128.11V331.487H1130.44V324.021C1132.85 326.286 1136.48 326.658 1139.3 324.932C1142.13 323.205 1143.46 319.802 1142.57 316.604C1141.68 313.407 1138.77 311.197 1135.47 311.198V311.199ZM1056.49 313.505V322.338C1056.49 322.862 1056.92 323.287 1057.44 323.287H1060.15V325.623H1057.44C1055.63 325.622 1054.17 324.152 1054.17 322.338L1054.16 313.505H1051.65V311.229H1054.16V307.303H1056.49V311.238H1060.63V313.505H1056.49ZM1067.79 323.654C1065 323.654 1062.75 321.387 1062.75 318.592C1062.75 315.797 1065 313.53 1067.79 313.53C1070.57 313.53 1072.83 315.797 1072.83 318.592C1072.83 319.934 1072.3 321.222 1071.35 322.171C1070.41 323.12 1069.12 323.654 1067.79 323.654ZM1072.83 311.262V313.193C1069.91 310.433 1065.32 310.529 1062.51 313.409C1059.7 316.289 1059.7 320.896 1062.51 323.776C1065.32 326.656 1069.91 326.752 1072.83 323.992V325.623H1075.16V311.259L1072.83 311.262ZM1043.22 323.655C1040.44 323.655 1038.18 321.389 1038.18 318.593C1038.18 315.798 1040.44 313.532 1043.22 313.532C1046.01 313.532 1048.26 315.798 1048.26 318.593C1048.26 319.936 1047.73 321.224 1046.79 322.173C1045.84 323.122 1044.56 323.655 1043.22 323.655ZM1048.27 311.263V313.193C1045.35 310.433 1040.76 310.529 1037.95 313.409C1035.14 316.289 1035.14 320.896 1037.95 323.776C1040.76 326.656 1045.35 326.752 1048.27 323.992V325.623H1050.6V311.259L1048.27 311.263Z" fill="white"/>
<path fill-rule="evenodd" clip-rule="evenodd" d="M1000.22 307.137V314.544L992.388 319.026V302.627L1000.22 307.137ZM1002.75 322.699V316.023L1013.23 310.017L1010.68 308.55L1002.75 313.094V306.396C1002.75 305.941 1002.5 305.52 1002.11 305.292L992.564 299.797C992.538 299.781 992.513 299.768 992.487 299.755C991.92 299.478 991.251 299.514 990.716 299.851C990.182 300.187 989.858 300.776 989.859 301.41V320.24C989.857 320.874 990.181 321.464 990.716 321.802C991.251 322.139 991.921 322.175 992.489 321.898L992.561 321.861L1000.21 317.476V323.449C1000.21 323.906 1000.45 324.327 1000.85 324.555L1010.66 330.147L1013.21 328.679L1002.75 322.699Z" fill="#03EF62"/>
</g>
<g filter="url(#filter0_dd_10078_202141)">
<path d="M1202.4 229.599C1202.4 167.633 1252.63 117.4 1314.6 117.4C1376.57 117.4 1426.8 167.633 1426.8 229.599V372.398C1426.8 378.031 1422.23 382.598 1416.6 382.598H1212.6C1206.97 382.598 1202.4 378.031 1202.4 372.398V229.599Z" fill="#05192D" stroke="#974DFF" stroke-width="6.79995"/>
<circle cx="1314.6" cy="226.195" r="81.5994" stroke="url(#paint7_linear_10078_202141)" stroke-width="3.39998"/>
<circle cx="1314.6" cy="215.996" r="47.5997" fill="url(#paint8_linear_10078_202141)"/>
<g filter="url(#filter1_d_10078_202141)">
<circle cx="1314.6" cy="215.998" r="33.9998" fill="white"/>
</g>
<path fill-rule="evenodd" clip-rule="evenodd" d="M1314.6 197.867C1321.48 197.867 1327.07 203.449 1327.07 210.334C1327.07 214.205 1325.3 217.664 1322.53 219.951V232.196C1322.53 233.769 1320.98 234.836 1319.54 234.344L1319.3 234.247L1314.59 232.033L1309.9 234.246C1308.47 234.917 1306.85 233.968 1306.68 232.453L1306.67 232.196V219.951C1303.9 217.664 1302.13 214.205 1302.13 210.334C1302.13 203.449 1307.71 197.867 1314.6 197.867ZM1311.2 222.331V228.62L1313.63 227.479C1314.15 227.233 1314.75 227.197 1315.29 227.373L1315.56 227.478L1318 228.624V222.331C1316.92 222.637 1315.78 222.8 1314.6 222.8C1313.42 222.8 1312.28 222.637 1311.2 222.331ZM1314.6 202.4C1310.22 202.4 1306.67 205.952 1306.67 210.333C1306.67 214.715 1310.22 218.267 1314.6 218.267C1318.98 218.267 1322.53 214.715 1322.53 210.333C1322.53 205.952 1318.98 202.4 1314.6 202.4Z" fill="#05192D"/>
<path d="M1199 345.199H1430.2V372.399C1430.2 379.91 1424.11 385.999 1416.6 385.999H1212.6C1205.09 385.999 1199 379.91 1199 372.399V345.199Z" fill="#974DFF"/>
<path d="M1261.36 371.598L1255.67 356.91H1252.71L1247 371.598H1249.94L1251.38 367.844H1256.97L1258.42 371.598H1261.36ZM1252.87 364.009C1253.38 362.744 1253.77 361.663 1254.16 360.48H1254.18C1254.61 361.663 1254.99 362.744 1255.48 364.009L1255.99 365.335H1252.36L1252.87 364.009ZM1264.91 366.457C1264.93 369.721 1267.4 371.72 1270.36 371.72C1273.28 371.72 1275.34 369.904 1275.34 367.293C1275.34 365.029 1273.97 363.642 1271.22 362.948L1269.54 362.52C1268.44 362.234 1268.12 361.622 1268.12 361.031C1268.12 360.235 1268.83 359.378 1270.09 359.378C1271.34 359.378 1272.2 360.276 1272.2 361.5H1274.87C1274.87 358.97 1273.07 356.787 1270.22 356.787C1267.61 356.787 1265.32 358.521 1265.32 361.01C1265.32 362.989 1266.73 364.539 1269.12 365.131L1270.83 365.559C1271.91 365.824 1272.54 366.477 1272.54 367.334C1272.54 368.211 1271.83 369.109 1270.36 369.109C1268.75 369.109 1267.67 368.15 1267.65 366.457H1264.91ZM1279.47 366.457C1279.49 369.721 1281.96 371.72 1284.91 371.72C1287.83 371.72 1289.89 369.904 1289.89 367.293C1289.89 365.029 1288.52 363.642 1285.77 362.948L1284.1 362.52C1283 362.234 1282.67 361.622 1282.67 361.031C1282.67 360.235 1283.38 359.378 1284.65 359.378C1285.89 359.378 1286.75 360.276 1286.75 361.5H1289.42C1289.42 358.97 1287.63 356.787 1284.77 356.787C1282.16 356.787 1279.87 358.521 1279.87 361.01C1279.87 362.989 1281.28 364.539 1283.67 365.131L1285.38 365.559C1286.46 365.824 1287.1 366.477 1287.1 367.334C1287.1 368.211 1286.38 369.109 1284.91 369.109C1283.3 369.109 1282.22 368.15 1282.2 366.457H1279.47ZM1301.4 371.72C1305.53 371.72 1308.85 368.374 1308.85 364.254C1308.85 360.133 1305.53 356.787 1301.4 356.787C1297.28 356.787 1293.98 360.133 1293.98 364.254C1293.98 368.374 1297.28 371.72 1301.4 371.72ZM1301.4 369.007C1298.77 369.007 1296.69 366.885 1296.69 364.254C1296.69 361.622 1298.77 359.501 1301.4 359.501C1304.04 359.501 1306.14 361.622 1306.14 364.254C1306.14 366.885 1304.04 369.007 1301.4 369.007ZM1320.58 371.72C1324.25 371.72 1326.66 369.211 1327.13 366.436H1324.31C1323.8 368.048 1322.29 369.007 1320.58 369.007C1317.95 369.007 1315.87 366.885 1315.87 364.254C1315.87 361.622 1317.95 359.501 1320.58 359.501C1322.21 359.501 1323.84 360.602 1324.29 362.132H1327.11C1326.66 359.623 1324.31 356.787 1320.58 356.787C1316.46 356.787 1313.15 360.133 1313.15 364.254C1313.15 368.374 1316.46 371.72 1320.58 371.72ZM1332.07 356.91V371.598H1334.78V356.91H1332.07ZM1353.6 371.598L1347.91 356.91H1344.95L1339.24 371.598H1342.18L1343.63 367.844H1349.21L1350.66 371.598H1353.6ZM1345.11 364.009C1345.62 362.744 1346.01 361.663 1346.4 360.48H1346.42C1346.85 361.663 1347.24 362.744 1347.73 364.009L1348.24 365.335H1344.6L1345.11 364.009ZM1366.71 356.91H1355.17V359.623H1359.57V371.598H1362.29V359.623H1366.71V356.91ZM1371.19 356.91V371.598H1381.45V368.884H1373.9V365.6H1380.67V362.907H1373.9V359.623H1381.45V356.91H1371.19Z" fill="#05192D"/>
<g clip-path="url(#clip2_10078_202141)">
<path fill-rule="evenodd" clip-rule="evenodd" d="M1273.29 278.507V283.113L1268.54 285.901V275.702L1273.29 278.507ZM1274.83 288.185V284.033L1281.19 280.298L1279.64 279.386L1274.83 282.212V278.046C1274.82 277.763 1274.68 277.501 1274.44 277.359L1268.64 273.942C1268.63 273.932 1268.61 273.924 1268.6 273.916C1268.25 273.744 1267.85 273.766 1267.52 273.975C1267.2 274.184 1267 274.551 1267 274.945V286.656C1267 287.05 1267.2 287.417 1267.52 287.627C1267.84 287.837 1268.25 287.86 1268.6 287.687L1268.64 287.664L1273.28 284.937V288.652C1273.29 288.936 1273.43 289.198 1273.67 289.339L1279.63 292.817L1281.18 291.905L1274.83 288.185Z" fill="#03EF62"/>
</g>
<path d="M1294.23 290.362C1297.34 290.362 1299.54 288.366 1300.15 285.796H1298.12C1297.52 287.441 1295.99 288.44 1294.23 288.44C1291.55 288.44 1289.48 286.276 1289.48 283.595C1289.48 280.914 1291.55 278.751 1294.23 278.751C1295.84 278.751 1297.56 279.842 1298.06 281.377H1300.09C1299.54 278.973 1297.27 276.828 1294.23 276.828C1290.5 276.828 1287.56 279.861 1287.56 283.595C1287.56 287.33 1290.5 290.362 1294.23 290.362Z" fill="white"/>
<path d="M1310.61 286.073C1310.63 285.87 1310.65 285.629 1310.65 285.37C1310.65 282.763 1308.76 280.6 1306.21 280.6C1303.58 280.6 1301.64 282.763 1301.64 285.481C1301.64 288.255 1303.55 290.362 1306.3 290.362C1309.24 290.362 1310.33 288.107 1310.48 287.201H1308.5C1308.32 287.755 1307.63 288.624 1306.3 288.624C1304.67 288.624 1303.79 287.497 1303.62 286.073H1310.61ZM1306.21 282.338C1307.63 282.338 1308.48 283.355 1308.69 284.631H1303.68C1303.92 283.337 1304.79 282.338 1306.21 282.338Z" fill="white"/>
<path d="M1317.14 280.6C1315.98 280.6 1315.11 281.136 1314.61 281.968V280.711H1312.69V290.252H1314.61V285.13C1314.61 283.3 1315.63 282.486 1317.07 282.486C1317.49 282.486 1317.85 282.541 1318.07 282.578V280.656C1317.85 280.637 1317.59 280.6 1317.14 280.6Z" fill="white"/>
<path d="M1323.48 288.569C1322.78 288.569 1322.32 288.255 1322.32 287.46V282.394H1324.76V280.711H1322.32V278.012H1320.39V280.711H1318.77V282.394H1320.39V287.497C1320.39 289.438 1321.45 290.362 1323.13 290.362C1323.8 290.362 1324.42 290.141 1324.76 290.011V288.218C1324.52 288.329 1323.98 288.569 1323.48 288.569Z" fill="white"/>
<path d="M1327.7 279.361C1328.47 279.361 1329.12 278.751 1329.12 277.975C1329.12 277.198 1328.49 276.588 1327.7 276.588C1326.92 276.588 1326.31 277.198 1326.31 277.975C1326.31 278.751 1326.92 279.361 1327.7 279.361ZM1328.64 280.711H1326.72V290.252H1328.64V280.711Z" fill="white"/>
<path d="M1334.07 280.711V279.824C1334.07 279.01 1334.63 278.64 1335.31 278.64C1335.77 278.64 1336.2 278.751 1336.46 278.862V277.087C1336.16 276.976 1335.51 276.828 1334.79 276.828C1333.17 276.828 1332.15 278.049 1332.15 279.787V280.711H1330.62V282.394H1332.15V290.252H1334.07V282.394H1336.53V280.711H1334.07Z" fill="white"/>
<path d="M1339.29 279.361C1340.07 279.361 1340.71 278.751 1340.71 277.975C1340.71 277.198 1340.08 276.588 1339.29 276.588C1338.51 276.588 1337.9 277.198 1337.9 277.975C1337.9 278.751 1338.51 279.361 1339.29 279.361ZM1340.23 280.711H1338.31V290.252H1340.23V280.711Z" fill="white"/>
<path d="M1351.38 286.073C1351.4 285.87 1351.42 285.629 1351.42 285.37C1351.42 282.763 1349.53 280.6 1346.98 280.6C1344.35 280.6 1342.41 282.763 1342.41 285.481C1342.41 288.255 1344.32 290.362 1347.07 290.362C1350.01 290.362 1351.1 288.107 1351.25 287.201H1349.27C1349.09 287.755 1348.4 288.624 1347.07 288.624C1345.45 288.624 1344.56 287.497 1344.39 286.073H1351.38ZM1346.98 282.338C1348.4 282.338 1349.25 283.355 1349.46 284.631H1344.45C1344.69 283.337 1345.56 282.338 1346.98 282.338Z" fill="white"/>
<path d="M1360.28 276.939V282.172C1359.67 281.266 1358.56 280.6 1357.26 280.6C1355.03 280.6 1353.08 282.671 1353.08 285.481C1353.08 288.292 1355.03 290.362 1357.26 290.362C1358.56 290.362 1359.59 289.863 1360.28 288.791V290.252H1362.2V276.939H1360.28ZM1357.71 288.495C1356.13 288.495 1355.01 287.145 1355.01 285.481C1355.01 283.817 1356.13 282.486 1357.71 282.486C1359.28 282.486 1360.28 283.817 1360.28 285.481C1360.28 287.145 1359.28 288.495 1357.71 288.495Z" fill="white"/>
<path d="M1222.91 303.567V323.15H1230.56C1235.92 323.15 1240.35 318.88 1240.35 313.358C1240.35 307.837 1235.89 303.567 1230.56 303.567H1222.91ZM1226.53 319.533V307.184H1230.56C1233.96 307.184 1236.73 309.958 1236.73 313.358C1236.73 316.758 1233.96 319.533 1230.56 319.533H1226.53ZM1252.37 310.91C1251.34 309.714 1249.9 308.952 1248.27 308.952C1244.92 308.952 1242.26 312.162 1242.26 316.133C1242.26 320.104 1244.92 323.314 1248.27 323.314C1249.9 323.314 1251.31 322.552 1252.37 321.355V323.15H1255.99V309.115H1252.37V310.91ZM1249.14 319.723C1247.32 319.723 1245.85 318.118 1245.85 316.133C1245.85 314.147 1247.32 312.57 1249.14 312.57C1250.96 312.57 1252.37 314.147 1252.37 316.133C1252.37 318.118 1250.96 319.723 1249.14 319.723ZM1265.98 319.995C1264.98 319.995 1264.27 319.587 1264.27 318.499V312.27H1267.59V309.115H1264.27V305.117H1260.65V309.115H1258.37V312.27H1260.65V318.581C1260.65 321.872 1262.39 323.314 1265.17 323.314C1265.95 323.314 1266.83 323.15 1267.59 322.933V319.723C1267.1 319.859 1266.53 319.995 1265.98 319.995ZM1279.34 310.91C1278.3 309.714 1276.86 308.952 1275.23 308.952C1271.88 308.952 1269.22 312.162 1269.22 316.133C1269.22 320.104 1271.88 323.314 1275.23 323.314C1276.86 323.314 1278.27 322.552 1279.34 321.355V323.15H1282.95V309.115H1279.34V310.91ZM1276.1 319.723C1274.28 319.723 1272.81 318.118 1272.81 316.133C1272.81 314.147 1274.28 312.57 1276.1 312.57C1277.92 312.57 1279.34 314.147 1279.34 316.133C1279.34 318.118 1277.92 319.723 1276.1 319.723ZM1294.82 303.567V323.15H1308.5V319.533H1298.44V315.154H1307.47V311.563H1298.44V307.184H1308.5V303.567H1294.82ZM1319.03 308.952C1317.42 308.952 1315.95 309.714 1315.14 310.965V309.115H1311.63V323.15H1315.25V315.344C1315.25 313.685 1316.42 312.57 1317.91 312.57C1319.38 312.57 1320.55 313.658 1320.55 315.317V323.15H1324.17V314.882C1324.17 310.856 1322.15 308.952 1319.03 308.952ZM1337.23 309.115V310.965C1336.19 309.686 1334.83 308.952 1333.06 308.952C1329.77 308.952 1327.08 312.162 1327.08 316.133C1327.08 320.104 1329.77 323.314 1333.06 323.314C1334.67 323.314 1336.14 322.606 1337.23 321.328V322.661C1337.23 324.782 1335.76 326.469 1333.74 326.469C1331.95 326.469 1330.72 325.571 1330.37 324.102H1326.62C1326.78 326.714 1329.34 329.842 1333.63 329.842C1337.74 329.842 1340.84 326.795 1340.84 322.661V309.115H1337.23ZM1333.99 319.75C1332.14 319.75 1330.7 318.118 1330.7 316.133C1330.7 314.147 1332.14 312.57 1333.99 312.57C1335.81 312.57 1337.23 314.147 1337.23 316.133C1337.23 318.118 1335.81 319.75 1333.99 319.75ZM1346.33 307.565C1347.64 307.565 1348.81 306.477 1348.81 305.117C1348.81 303.784 1347.69 302.723 1346.33 302.723C1344.97 302.723 1343.91 303.784 1343.91 305.117C1343.91 306.477 1344.97 307.565 1346.33 307.565ZM1348.13 309.115H1344.51V323.15H1348.13V309.115ZM1359.27 308.952C1357.66 308.952 1356.19 309.714 1355.38 310.965V309.115H1351.87V323.15H1355.49V315.344C1355.49 313.685 1356.66 312.57 1358.15 312.57C1359.62 312.57 1360.79 313.658 1360.79 315.317V323.15H1364.41V314.882C1364.41 310.856 1362.4 308.952 1359.27 308.952ZM1380.56 317.139C1380.59 316.894 1380.62 316.486 1380.62 316.078C1380.62 312.162 1377.73 308.952 1374.09 308.952C1370.23 308.952 1367.15 312.08 1367.15 316.133C1367.15 320.267 1370.14 323.314 1374.2 323.314C1378.69 323.314 1380.21 319.778 1380.37 318.554H1376.75C1376.48 319.315 1375.61 320.131 1374.2 320.131C1372.1 320.131 1371.12 318.798 1370.91 317.139H1380.56ZM1374.09 312.134C1375.72 312.134 1376.65 313.222 1376.94 314.718H1371.02C1371.34 313.222 1372.38 312.134 1374.09 312.134ZM1396.23 317.139C1396.26 316.894 1396.29 316.486 1396.29 316.078C1396.29 312.162 1393.41 308.952 1389.76 308.952C1385.9 308.952 1382.82 312.08 1382.82 316.133C1382.82 320.267 1385.82 323.314 1389.87 323.314C1394.36 323.314 1395.88 319.778 1396.04 318.554H1392.43C1392.15 319.315 1391.28 320.131 1389.87 320.131C1387.77 320.131 1386.8 318.798 1386.58 317.139H1396.23ZM1389.76 312.134C1391.39 312.134 1392.32 313.222 1392.62 314.718H1386.69C1387.01 313.222 1388.05 312.134 1389.76 312.134ZM1406.39 308.952C1404.79 308.952 1403.43 309.605 1402.58 310.992V309.115H1398.96V323.15H1402.58V316.187C1402.58 313.603 1403.92 312.488 1406.01 312.488C1406.91 312.488 1407.61 312.624 1407.94 312.678V309.061C1407.61 309.034 1407.1 308.952 1406.39 308.952Z" fill="white"/>
</g>
</g>
<defs>
<filter id="filter0_dd_10078_202141" x="1188.8" y="107.2" width="251.599" height="292.398" filterUnits="userSpaceOnUse" color-interpolation-filters="sRGB">
<feFlood flood-opacity="0" result="BackgroundImageFix"/>
<feColorMatrix in="SourceAlpha" type="matrix" values="0 0 0 0 0 0 0 0 0 0 0 0 0 0 0 0 0 0 127 0" result="hardAlpha"/>
<feMorphology radius="3.39998" operator="erode" in="SourceAlpha" result="effect1_dropShadow_10078_202141"/>
<feOffset dy="3.39998"/>
<feGaussianBlur stdDeviation="6.79995"/>
<feColorMatrix type="matrix" values="0 0 0 0 0.0196078 0 0 0 0 0.0980392 0 0 0 0 0.176471 0 0 0 0.3 0"/>
<feBlend mode="normal" in2="BackgroundImageFix" result="effect1_dropShadow_10078_202141"/>
<feColorMatrix in="SourceAlpha" type="matrix" values="0 0 0 0 0 0 0 0 0 0 0 0 0 0 0 0 0 0 127 0" result="hardAlpha"/>
<feOffset/>
<feGaussianBlur stdDeviation="1.69999"/>
<feColorMatrix type="matrix" values="0 0 0 0 0.0196078 0 0 0 0 0.0980392 0 0 0 0 0.176471 0 0 0 0.3 0"/>
<feBlend mode="normal" in2="effect1_dropShadow_10078_202141" result="effect2_dropShadow_10078_202141"/>
<feBlend mode="normal" in="SourceGraphic" in2="effect2_dropShadow_10078_202141" result="shape"/>
</filter>
<filter id="filter1_d_10078_202141" x="1221.97" y="170.272" width="185.258" height="185.258" filterUnits="userSpaceOnUse" color-interpolation-filters="sRGB">
<feFlood flood-opacity="0" result="BackgroundImageFix"/>
<feColorMatrix in="SourceAlpha" type="matrix" values="0 0 0 0 0 0 0 0 0 0 0 0 0 0 0 0 0 0 127 0" result="hardAlpha"/>
<feOffset dy="46.9033"/>
<feGaussianBlur stdDeviation="29.3146"/>
<feComposite in2="hardAlpha" operator="out"/>
<feColorMatrix type="matrix" values="0 0 0 0 0 0 0 0 0 0.0313726 0 0 0 0 0.12549 0 0 0 1 0"/>
<feBlend mode="normal" in2="BackgroundImageFix" result="effect1_dropShadow_10078_202141"/>
<feBlend mode="normal" in="SourceGraphic" in2="effect1_dropShadow_10078_202141" result="shape"/>
</filter>
<linearGradient id="paint0_linear_10078_202141" x1="27.8076" y1="56.1188" x2="112.331" y2="412.722" gradientUnits="userSpaceOnUse">
<stop stop-color="#974DFF"/>
<stop offset="1" stop-color="#05192D"/>
</linearGradient>
<linearGradient id="paint1_linear_10078_202141" x1="12.0842" y1="-4.76364" x2="282.1" y2="-57.4259" gradientUnits="userSpaceOnUse">
<stop stop-color="#974DFF"/>
<stop offset="1" stop-color="#05192D"/>
</linearGradient>
<linearGradient id="paint2_linear_10078_202141" x1="47.101" y1="132.388" x2="362.759" y2="132.388" gradientUnits="userSpaceOnUse">
<stop stop-color="#974DFF"/>
<stop offset="1" stop-color="#05192D"/>
</linearGradient>
<linearGradient id="paint3_linear_10078_202141" x1="588.174" y1="-150.88" x2="511.045" y2="105.124" gradientUnits="userSpaceOnUse">
<stop stop-color="#974DFF"/>
<stop offset="1" stop-color="#05192D"/>
</linearGradient>
<linearGradient id="paint4_linear_10078_202141" x1="8.40076" y1="136.093" x2="-31.9229" y2="-135.252" gradientUnits="userSpaceOnUse">
<stop stop-color="#974DFF"/>
<stop offset="1" stop-color="#05192D"/>
</linearGradient>
<linearGradient id="paint5_linear_10078_202141" x1="293.4" y1="601.639" x2="689.093" y2="763.17" gradientUnits="userSpaceOnUse">
<stop stop-color="#974DFF"/>
<stop offset="1" stop-color="#05192D"/>
</linearGradient>
<linearGradient id="paint6_linear_10078_202141" x1="295.673" y1="446.596" x2="313.688" y2="268.292" gradientUnits="userSpaceOnUse">
<stop stop-color="#974DFF"/>
<stop offset="1" stop-color="#05192D"/>
</linearGradient>
<linearGradient id="paint7_linear_10078_202141" x1="1314.6" y1="144.596" x2="1314.6" y2="261.895" gradientUnits="userSpaceOnUse">
<stop stop-color="white" stop-opacity="0.24"/>
<stop offset="1" stop-color="#05192D"/>
</linearGradient>
<linearGradient id="paint8_linear_10078_202141" x1="1314.6" y1="168.396" x2="1314.6" y2="263.596" gradientUnits="userSpaceOnUse">
<stop stop-color="white" stop-opacity="0.24"/>
<stop offset="1" stop-color="white" stop-opacity="0"/>
</linearGradient>
<clipPath id="clip0_10078_202141">
<rect width="1500" height="500" fill="white"/>
</clipPath>
<clipPath id="clip1_10078_202141">
<rect width="153.141" height="31.9997" fill="white" transform="translate(989.859 299.57)"/>
</clipPath>
<clipPath id="clip2_10078_202141">
<rect width="14.5118" height="19.349" fill="white" transform="translate(1267 273.801)"/>
</clipPath>
</defs>
</svg>
