<svg width="1128" height="191" viewBox="0 0 1128 191" fill="none" xmlns="http://www.w3.org/2000/svg">
<g clip-path="url(#clip0_10078_202065)">
<rect width="1128" height="191" fill="#05192D"/>
<mask id="mask0_10078_202065" style="mask-type:alpha" maskUnits="userSpaceOnUse" x="0" y="0" width="1128" height="191">
<rect width="1128" height="191" fill="#05192D"/>
</mask>
<g mask="url(#mask0_10078_202065)">
<path d="M527.99 172.628C527.99 157.566 515.78 145.355 500.717 145.355L252 145.355L252 205.999L527.99 205.999L527.99 172.628Z" stroke="url(#paint0_linear_10078_202065)" stroke-width="1.13636"/>
<path d="M351.196 121.909C351.196 99.3156 332.88 81 310.287 81L252 81L252 166.515L351.196 166.515L351.196 121.909Z" stroke="url(#paint1_linear_10078_202065)" stroke-width="1.13636"/>
<path d="M-1.27899 171.387V171.387C16.0035 171.387 30.0137 157.376 30.0137 140.094L30.0137 -2.76403L-1.27901 -2.76403" stroke="url(#paint2_linear_10078_202065)"/>
<rect x="-4" y="-3" width="147.267" height="58.4889" stroke="url(#paint3_linear_10078_202065)"/>
<circle cx="143.789" cy="56.0099" r="40.2111" stroke="url(#paint4_linear_10078_202065)"/>
<path d="M349 16C349 33.6731 363.327 48 381 48L636 48.0001L636 -11L349 -11.0001L349 16Z" stroke="url(#paint5_linear_10078_202065)"/>
<rect width="106.088" height="111" rx="53.0442" transform="matrix(1 9.20383e-08 8.30387e-08 -1 583.38 48)" stroke="url(#paint6_linear_10078_202065)"/>
</g>
<path d="M778.203 79.9448C782.523 79.9448 785.355 76.9928 785.907 73.7288H782.595C781.995 75.6248 780.219 76.7528 778.203 76.7528C775.107 76.7528 772.659 74.2568 772.659 71.1608C772.659 68.0648 775.107 65.5688 778.203 65.5688C780.123 65.5688 782.043 66.8648 782.571 68.6648H785.883C785.355 65.7128 782.595 62.3768 778.203 62.3768C773.355 62.3768 769.467 66.3128 769.467 71.1608C769.467 76.0088 773.355 79.9448 778.203 79.9448ZM799.535 74.4968C799.559 74.2808 799.583 73.9208 799.583 73.5608C799.583 70.1048 797.039 67.2728 793.823 67.2728C790.415 67.2728 787.703 70.0328 787.703 73.6088C787.703 77.2568 790.343 79.9448 793.919 79.9448C797.879 79.9448 799.223 76.8248 799.367 75.7448H796.175C795.935 76.4168 795.167 77.1368 793.919 77.1368C792.071 77.1368 791.207 75.9608 791.015 74.4968H799.535ZM793.823 70.0808C795.263 70.0808 796.079 71.0408 796.343 72.3608H791.111C791.399 71.0408 792.311 70.0808 793.823 70.0808ZM808.497 67.2728C807.081 67.2728 805.881 67.8488 805.137 69.0728V67.4168H801.945V79.8008H805.137V73.6568C805.137 71.3768 806.312 70.3928 808.161 70.3928C808.953 70.3928 809.577 70.5128 809.865 70.5608V67.3688C809.577 67.3448 809.121 67.2728 808.497 67.2728ZM817.379 77.0168C816.491 77.0168 815.867 76.6568 815.867 75.6968V70.2008H818.795V67.4168H815.867V63.8888H812.675V67.4168H810.659V70.2008H812.675V75.7688C812.675 78.6728 814.211 79.9448 816.659 79.9448C817.355 79.9448 818.123 79.8008 818.795 79.6088V76.7768C818.363 76.8968 817.859 77.0168 817.379 77.0168ZM822.794 66.0488C823.946 66.0488 824.978 65.0888 824.978 63.8888C824.978 62.7128 823.994 61.7768 822.794 61.7768C821.594 61.7768 820.658 62.7128 820.658 63.8888C820.658 65.0888 821.594 66.0488 822.794 66.0488ZM824.378 67.4168H821.186V79.8008H824.378V67.4168ZM831.879 67.4168V66.6488C831.879 65.6408 832.551 65.3048 833.391 65.3048C833.943 65.3048 834.471 65.4488 834.615 65.4968V62.6888C834.351 62.5928 833.463 62.3768 832.383 62.3768C830.007 62.3768 828.687 64.1528 828.687 66.6248V67.4168H826.695V70.2008H828.687V79.8008H831.879V70.2008H834.807V67.4168H831.879ZM838.521 66.0488C839.673 66.0488 840.705 65.0888 840.705 63.8888C840.705 62.7128 839.721 61.7768 838.521 61.7768C837.321 61.7768 836.385 62.7128 836.385 63.8888C836.385 65.0888 837.321 66.0488 838.521 66.0488ZM840.105 67.4168H836.913V79.8008H840.105V67.4168ZM854.379 74.4968C854.403 74.2808 854.427 73.9208 854.427 73.5608C854.427 70.1048 851.883 67.2728 848.667 67.2728C845.259 67.2728 842.547 70.0328 842.547 73.6088C842.547 77.2568 845.187 79.9448 848.763 79.9448C852.723 79.9448 854.067 76.8248 854.211 75.7448H851.019C850.779 76.4168 850.011 77.1368 848.763 77.1368C846.915 77.1368 846.051 75.9608 845.859 74.4968H854.379ZM848.667 70.0808C850.107 70.0808 850.923 71.0408 851.187 72.3608H845.955C846.243 71.0408 847.155 70.0808 848.667 70.0808ZM865.303 62.5208V69.0968C864.511 68.0408 863.191 67.2728 861.727 67.2728C858.823 67.2728 856.375 69.8888 856.375 73.6088C856.375 77.3288 858.823 79.9448 861.727 79.9448C863.191 79.9448 864.463 79.4168 865.303 78.1208V79.8008H868.495V62.5208H865.303ZM862.447 76.7768C860.839 76.7768 859.543 75.3608 859.543 73.6088C859.543 71.8568 860.839 70.4408 862.447 70.4408C864.079 70.4408 865.303 71.8568 865.303 73.6088C865.303 75.3608 864.079 76.7768 862.447 76.7768ZM887.146 69.0008C886.234 67.9448 884.962 67.2728 883.522 67.2728C880.57 67.2728 878.218 70.1048 878.218 73.6088C878.218 77.1128 880.57 79.9448 883.522 79.9448C884.962 79.9448 886.21 79.2728 887.146 78.2168V79.8008H890.338V67.4168H887.146V69.0008ZM884.29 76.7768C882.682 76.7768 881.386 75.3608 881.386 73.6088C881.386 71.8568 882.682 70.4648 884.29 70.4648C885.898 70.4648 887.146 71.8568 887.146 73.6088C887.146 75.3608 885.898 76.7768 884.29 76.7768ZM892.745 75.6248C892.769 77.6408 894.449 79.9448 897.617 79.9448C900.329 79.9448 902.369 78.4568 902.417 75.9128C902.465 74.1608 901.241 72.7928 898.817 72.2408L897.137 71.8568C896.513 71.7128 896.201 71.4008 896.201 70.8968C896.201 70.2728 896.753 69.8168 897.641 69.8168C898.529 69.8168 899.177 70.4408 899.201 71.3288H902.033C902.033 69.3368 900.329 67.2728 897.665 67.2728C894.977 67.2728 893.057 68.7848 893.057 70.9448C893.057 72.7208 893.993 74.0408 896.321 74.6168L897.833 74.9768C898.793 75.2168 899.273 75.5048 899.273 76.1288C899.273 76.8008 898.601 77.2088 897.761 77.2088C896.777 77.2088 895.961 76.6328 895.937 75.6248H892.745ZM920.17 69.0008C919.258 67.9448 917.986 67.2728 916.546 67.2728C913.594 67.2728 911.242 70.1048 911.242 73.6088C911.242 77.1128 913.594 79.9448 916.546 79.9448C917.986 79.9448 919.234 79.2728 920.17 78.2168V79.8008H923.362V67.4168H920.17V69.0008ZM917.314 76.7768C915.706 76.7768 914.41 75.3608 914.41 73.6088C914.41 71.8568 915.706 70.4648 917.314 70.4648C918.922 70.4648 920.17 71.8568 920.17 73.6088C920.17 75.3608 918.922 76.7768 917.314 76.7768ZM642.714 92.5208V109.801H649.458C654.186 109.801 658.098 106.033 658.098 101.161C658.098 96.2888 654.162 92.5208 649.458 92.5208H642.714ZM645.906 106.609V95.7128H649.458C652.458 95.7128 654.906 98.1608 654.906 101.161C654.906 104.161 652.458 106.609 649.458 106.609H645.906ZM668.709 99.0008C667.797 97.9448 666.525 97.2728 665.085 97.2728C662.133 97.2728 659.781 100.105 659.781 103.609C659.781 107.113 662.133 109.945 665.085 109.945C666.525 109.945 667.773 109.273 668.709 108.217V109.801H671.901V97.4168H668.709V99.0008ZM665.853 106.777C664.245 106.777 662.949 105.361 662.949 103.609C662.949 101.857 664.245 100.465 665.853 100.465C667.461 100.465 668.709 101.857 668.709 103.609C668.709 105.361 667.461 106.777 665.853 106.777ZM680.715 107.017C679.827 107.017 679.203 106.657 679.203 105.697V100.201H682.131V97.4168H679.203V93.8888H676.011V97.4168H673.995V100.201H676.011V105.769C676.011 108.673 677.547 109.945 679.995 109.945C680.691 109.945 681.459 109.801 682.131 109.609V106.777C681.699 106.897 681.195 107.017 680.715 107.017ZM692.498 99.0008C691.586 97.9448 690.314 97.2728 688.874 97.2728C685.922 97.2728 683.57 100.105 683.57 103.609C683.57 107.113 685.922 109.945 688.874 109.945C690.314 109.945 691.562 109.273 692.498 108.217V109.801H695.69V97.4168H692.498V99.0008ZM689.642 106.777C688.034 106.777 686.738 105.361 686.738 103.609C686.738 101.857 688.034 100.465 689.642 100.465C691.25 100.465 692.498 101.857 692.498 103.609C692.498 105.361 691.25 106.777 689.642 106.777ZM706.159 92.5208V109.801H718.231V106.609H709.351V102.745H717.319V99.5768H709.351V95.7128H718.231V92.5208H706.159ZM727.519 97.2728C726.103 97.2728 724.807 97.9448 724.087 99.0488V97.4168H720.991V109.801H724.183V102.913C724.183 101.449 725.215 100.465 726.535 100.465C727.831 100.465 728.863 101.425 728.863 102.889V109.801H732.055V102.505C732.055 98.9528 730.279 97.2728 727.519 97.2728ZM743.577 97.4168V99.0488C742.665 97.9208 741.465 97.2728 739.905 97.2728C737.001 97.2728 734.625 100.105 734.625 103.609C734.625 107.113 737.001 109.945 739.905 109.945C741.321 109.945 742.617 109.321 743.577 108.193V109.369C743.577 111.241 742.281 112.729 740.505 112.729C738.921 112.729 737.841 111.937 737.529 110.641H734.217C734.361 112.945 736.617 115.705 740.409 115.705C744.033 115.705 746.769 113.017 746.769 109.369V97.4168H743.577ZM740.721 106.801C739.089 106.801 737.817 105.361 737.817 103.609C737.817 101.857 739.089 100.465 740.721 100.465C742.329 100.465 743.577 101.857 743.577 103.609C743.577 105.361 742.329 106.801 740.721 106.801ZM751.614 96.0488C752.766 96.0488 753.798 95.0888 753.798 93.8888C753.798 92.7128 752.814 91.7768 751.614 91.7768C750.414 91.7768 749.478 92.7128 749.478 93.8888C749.478 95.0888 750.414 96.0488 751.614 96.0488ZM753.198 97.4168H750.006V109.801H753.198V97.4168ZM763.027 97.2728C761.611 97.2728 760.315 97.9448 759.595 99.0488V97.4168H756.499V109.801H759.691V102.913C759.691 101.449 760.723 100.465 762.043 100.465C763.339 100.465 764.371 101.425 764.371 102.889V109.801H767.563V102.505C767.563 98.9528 765.787 97.2728 763.027 97.2728ZM781.816 104.497C781.84 104.281 781.864 103.921 781.864 103.561C781.864 100.105 779.32 97.2728 776.104 97.2728C772.696 97.2728 769.984 100.033 769.984 103.609C769.984 107.257 772.624 109.945 776.2 109.945C780.16 109.945 781.504 106.825 781.648 105.745H778.456C778.216 106.417 777.448 107.137 776.2 107.137C774.352 107.137 773.488 105.961 773.296 104.497H781.816ZM776.104 100.081C777.544 100.081 778.36 101.041 778.624 102.361H773.392C773.68 101.041 774.592 100.081 776.104 100.081ZM795.644 104.497C795.668 104.281 795.692 103.921 795.692 103.561C795.692 100.105 793.148 97.2728 789.932 97.2728C786.524 97.2728 783.812 100.033 783.812 103.609C783.812 107.257 786.452 109.945 790.028 109.945C793.988 109.945 795.332 106.825 795.476 105.745H792.284C792.044 106.417 791.276 107.137 790.028 107.137C788.18 107.137 787.316 105.961 787.124 104.497H795.644ZM789.932 100.081C791.372 100.081 792.188 101.041 792.452 102.361H787.22C787.508 101.041 788.42 100.081 789.932 100.081ZM804.606 97.2728C803.19 97.2728 801.99 97.8488 801.246 99.0728V97.4168H798.054V109.801H801.246V103.657C801.246 101.377 802.422 100.393 804.27 100.393C805.062 100.393 805.686 100.513 805.974 100.561V97.3688C805.686 97.3448 805.23 97.2728 804.606 97.2728ZM830.48 109.801L823.784 92.5208H820.304L813.584 109.801H817.04L818.744 105.385H825.32L827.024 109.801H830.48ZM820.496 100.873C821.096 99.3848 821.552 98.1128 822.008 96.7208H822.032C822.536 98.1128 822.992 99.3848 823.568 100.873L824.168 102.433H819.896L820.496 100.873ZM831.479 105.625C831.503 107.641 833.183 109.945 836.351 109.945C839.063 109.945 841.103 108.457 841.151 105.913C841.199 104.161 839.975 102.793 837.551 102.241L835.871 101.857C835.247 101.713 834.935 101.401 834.935 100.897C834.935 100.273 835.487 99.8168 836.375 99.8168C837.263 99.8168 837.911 100.441 837.935 101.329H840.767C840.767 99.3368 839.063 97.2728 836.399 97.2728C833.711 97.2728 831.791 98.7848 831.791 100.945C831.791 102.721 832.727 104.041 835.055 104.617L836.567 104.977C837.527 105.217 838.007 105.505 838.007 106.129C838.007 106.801 837.335 107.209 836.495 107.209C835.511 107.209 834.695 106.633 834.671 105.625H831.479ZM842.729 105.625C842.753 107.641 844.433 109.945 847.601 109.945C850.313 109.945 852.353 108.457 852.401 105.913C852.449 104.161 851.225 102.793 848.801 102.241L847.121 101.857C846.497 101.713 846.185 101.401 846.185 100.897C846.185 100.273 846.737 99.8168 847.625 99.8168C848.513 99.8168 849.161 100.441 849.185 101.329H852.017C852.017 99.3368 850.313 97.2728 847.649 97.2728C844.961 97.2728 843.041 98.7848 843.041 100.945C843.041 102.721 843.977 104.041 846.305 104.617L847.817 104.977C848.777 105.217 849.257 105.505 849.257 106.129C849.257 106.801 848.585 107.209 847.745 107.209C846.761 107.209 845.945 106.633 845.921 105.625H842.729ZM860.339 109.945H860.363C863.747 109.945 866.483 107.089 866.483 103.609C866.483 100.129 863.747 97.2728 860.363 97.2728H860.339C856.931 97.2728 854.195 100.105 854.195 103.609C854.195 107.113 856.931 109.945 860.339 109.945ZM860.339 106.777C858.659 106.777 857.363 105.337 857.363 103.609C857.363 101.881 858.659 100.465 860.339 100.441H860.363C861.995 100.441 863.291 101.881 863.291 103.609C863.291 105.337 862.019 106.777 860.363 106.777H860.339ZM880.278 102.025C880.134 100.081 878.286 97.2728 874.566 97.2728C871.158 97.2728 868.422 100.105 868.422 103.609C868.422 107.113 871.158 109.945 874.566 109.945C877.926 109.945 880.134 107.017 880.23 105.193H877.062C876.846 106.153 875.79 106.921 874.566 106.921C872.79 106.921 871.59 105.337 871.59 103.609C871.59 101.881 872.694 100.297 874.566 100.297C875.694 100.297 876.726 100.969 877.038 102.025H880.278ZM884.341 96.0488C885.493 96.0488 886.525 95.0888 886.525 93.8888C886.525 92.7128 885.541 91.7768 884.341 91.7768C883.141 91.7768 882.205 92.7128 882.205 93.8888C882.205 95.0888 883.141 96.0488 884.341 96.0488ZM885.925 97.4168H882.733V109.801H885.925V97.4168ZM897.295 99.0008C896.383 97.9448 895.111 97.2728 893.671 97.2728C890.719 97.2728 888.367 100.105 888.367 103.609C888.367 107.113 890.719 109.945 893.671 109.945C895.111 109.945 896.359 109.273 897.295 108.217V109.801H900.487V97.4168H897.295V99.0008ZM894.439 106.777C892.831 106.777 891.535 105.361 891.535 103.609C891.535 101.857 892.831 100.465 894.439 100.465C896.047 100.465 897.295 101.857 897.295 103.609C897.295 105.361 896.047 106.777 894.439 106.777ZM909.301 107.017C908.413 107.017 907.789 106.657 907.789 105.697V100.201H910.717V97.4168H907.789V93.8888H904.597V97.4168H902.581V100.201H904.597V105.769C904.597 108.673 906.133 109.945 908.581 109.945C909.277 109.945 910.045 109.801 910.717 109.609V106.777C910.285 106.897 909.781 107.017 909.301 107.017ZM923.988 104.497C924.012 104.281 924.036 103.921 924.036 103.561C924.036 100.105 921.492 97.2728 918.276 97.2728C914.868 97.2728 912.156 100.033 912.156 103.609C912.156 107.257 914.796 109.945 918.372 109.945C922.332 109.945 923.676 106.825 923.82 105.745H920.628C920.388 106.417 919.62 107.137 918.372 107.137C916.524 107.137 915.66 105.961 915.468 104.497H923.988ZM918.276 100.081C919.716 100.081 920.532 101.041 920.796 102.361H915.564C915.852 101.041 916.764 100.081 918.276 100.081Z" fill="white"/>
<path d="M836.323 128.099C836.917 127.769 837.345 127.132 837.345 126.406C837.345 125.241 836.301 124.285 835.081 124.285H831.926V132.199H835.4C836.587 132.199 837.653 131.243 837.653 130.078C837.664 129.242 837.18 128.462 836.323 128.11V128.099ZM835.081 125.428C835.707 125.428 836.202 125.923 836.202 126.538C836.202 127.099 835.74 127.593 835.125 127.604H833.069V125.428H835.081ZM833.069 131.056V128.759H835.4C836.015 128.759 836.51 129.297 836.51 129.913C836.51 130.539 836.015 131.056 835.4 131.056H833.069ZM842.531 126.527V129.825C842.531 130.528 841.959 131.133 841.234 131.133C840.519 131.133 839.947 130.539 839.947 129.825V126.527H838.804V129.957C838.804 131.243 839.574 132.265 840.827 132.265C841.53 132.265 842.146 131.891 842.531 131.43V132.133C842.531 133.156 841.959 133.826 841.047 133.826C840.178 133.826 839.695 133.375 839.607 132.672H838.408C838.474 133.804 839.376 134.903 841.025 134.903C842.564 134.903 843.674 133.749 843.674 132.089V126.527H842.531Z" fill="white"/>
<g clip-path="url(#clip1_10078_202065)">
<path fill-rule="evenodd" clip-rule="evenodd" d="M869.47 131.782C868.131 131.782 867.045 130.693 867.045 129.348C867.045 128.004 868.131 126.914 869.47 126.914C870.808 126.914 871.894 128.004 871.894 129.348C871.894 129.994 871.638 130.613 871.184 131.07C870.729 131.526 870.112 131.782 869.47 131.782ZM871.898 122.967V126.751C870.491 125.424 868.285 125.47 866.934 126.855C865.583 128.24 865.583 130.456 866.934 131.841C868.285 133.226 870.491 133.272 871.898 131.945V132.729H873.018V122.967H871.898ZM903.094 131.782C901.756 131.782 900.67 130.693 900.67 129.348C900.67 128.004 901.756 126.914 903.094 126.914C904.433 126.914 905.519 128.004 905.519 129.348C905.519 129.994 905.263 130.613 904.809 131.07C904.354 131.526 903.737 131.782 903.094 131.782ZM906.642 129.348V125.823H905.522V126.751C904.115 125.424 901.909 125.47 900.558 126.855C899.207 128.24 899.207 130.456 900.558 131.841C901.909 133.226 904.115 133.272 905.522 131.945V132.729H906.642V129.348H906.642ZM915.576 126.085C915.677 125.92 915.856 125.819 916.048 125.819H916.264C916.722 125.819 917.093 126.192 917.093 126.651V132.729H915.95V127.58C915.422 128.435 913.534 131.534 912.968 132.464C912.868 132.629 912.689 132.729 912.497 132.729H912.263C911.958 132.729 911.711 132.481 911.711 132.174V127.567C911.093 128.569 909.196 131.681 908.599 132.677L908.567 132.729H907.471V125.821H908.614V125.835L908.588 130.601L911.329 126.086C911.429 125.921 911.608 125.82 911.801 125.82H912.018C912.475 125.82 912.846 126.192 912.847 126.651C912.847 127.921 912.853 130.234 912.853 130.57L915.576 126.085ZM899.433 131.446C898.521 132.705 896.9 133.223 895.431 132.725C893.962 132.227 892.985 130.828 893.02 129.272C893.054 127.715 894.091 126.362 895.58 125.929C897.07 125.497 898.666 126.086 899.522 127.384L898.448 127.945C897.869 127.125 896.836 126.762 895.874 127.041C894.912 127.32 894.231 128.179 894.175 129.183C894.12 130.187 894.704 131.117 895.629 131.5C896.555 131.883 897.621 131.637 898.287 130.886L899.433 131.446ZM921.376 131.788C920.094 131.787 919.034 130.785 918.958 129.5V129.209C919.037 127.886 920.155 126.869 921.474 126.922C922.793 126.975 923.828 128.078 923.801 129.403C923.775 130.729 922.697 131.789 921.377 131.789L921.376 131.788ZM921.377 125.792C920.479 125.791 919.613 126.133 918.958 126.75V125.823H917.837V135.549H918.958V131.958C920.12 133.048 921.863 133.227 923.222 132.397C924.58 131.566 925.223 129.929 924.793 128.392C924.364 126.854 922.967 125.791 921.377 125.792V125.792ZM883.398 126.901V131.149C883.398 131.401 883.601 131.605 883.852 131.605H885.156V132.729H883.853C882.984 132.728 882.28 132.021 882.279 131.149L882.275 126.901H881.067V125.807H882.275V123.918H883.397V125.811H885.386V126.901H883.398ZM888.828 131.782C887.49 131.782 886.404 130.692 886.404 129.348C886.404 128.003 887.49 126.913 888.828 126.913C890.167 126.913 891.253 128.003 891.253 129.348C891.253 129.993 890.997 130.612 890.543 131.069C890.088 131.525 889.471 131.782 888.828 131.782ZM891.256 125.822V126.751C889.849 125.424 887.643 125.47 886.292 126.855C884.941 128.24 884.941 130.456 886.292 131.841C887.643 133.226 889.849 133.272 891.256 131.945V132.729H892.377V125.821L891.256 125.822ZM877.015 131.782C875.676 131.782 874.591 130.693 874.591 129.348C874.591 128.004 875.676 126.914 877.015 126.914C878.354 126.914 879.439 128.004 879.439 129.348C879.44 129.994 879.184 130.613 878.73 131.07C878.275 131.526 877.658 131.783 877.015 131.782ZM879.443 125.823V126.751C878.036 125.424 875.83 125.47 874.479 126.855C873.128 128.24 873.128 130.456 874.479 131.841C875.83 133.226 878.036 133.272 879.443 131.945V132.729H880.563V125.821L879.443 125.823Z" fill="white"/>
<path fill-rule="evenodd" clip-rule="evenodd" d="M856.332 123.838V127.4L852.568 129.556V121.669L856.332 123.838ZM857.55 131.322V128.112L862.59 125.223L861.364 124.518L857.55 126.703V123.482C857.549 123.263 857.432 123.061 857.244 122.951L852.652 120.308C852.64 120.301 852.628 120.294 852.615 120.288C852.343 120.155 852.021 120.172 851.764 120.334C851.506 120.496 851.351 120.779 851.351 121.084V130.14C851.35 130.445 851.506 130.728 851.763 130.891C852.02 131.053 852.343 131.07 852.616 130.937L852.651 130.919L856.329 128.811V131.683C856.33 131.903 856.447 132.105 856.636 132.215L861.356 134.904L862.583 134.198L857.55 131.322Z" fill="#03EF62"/>
</g>
<g filter="url(#filter0_dd_10078_202065)">
<path d="M958.65 86.1C958.65 56.0281 983.028 31.65 1013.1 31.65C1043.17 31.65 1067.55 56.0281 1067.55 86.1V155.4C1067.55 158.134 1065.33 160.35 1062.6 160.35H963.6C960.866 160.35 958.65 158.134 958.65 155.4V86.1Z" fill="#05192D" stroke="#974DFF" stroke-width="3.3"/>
<circle cx="1013.1" cy="84.4496" r="39.6" stroke="url(#paint7_linear_10078_202065)" stroke-width="1.65"/>
<circle cx="1013.1" cy="79.5004" r="23.1" fill="url(#paint8_linear_10078_202065)"/>
<g filter="url(#filter1_d_10078_202065)">
<circle cx="1013.1" cy="79.5" r="16.5" fill="white"/>
</g>
<path fill-rule="evenodd" clip-rule="evenodd" d="M1013.1 70.6992C1016.44 70.6992 1019.15 73.4079 1019.15 76.7492C1019.15 78.628 1018.29 80.3067 1016.95 81.4164V87.3598C1016.95 88.1234 1016.2 88.6414 1015.5 88.4023L1015.38 88.3553L1013.1 87.2811L1010.82 88.355C1010.13 88.6805 1009.34 88.2198 1009.26 87.4848L1009.25 87.3598V81.4163C1007.91 80.3066 1007.05 78.6279 1007.05 76.7492C1007.05 73.4079 1009.76 70.6992 1013.1 70.6992ZM1011.45 82.5715V85.6245L1012.63 85.071C1012.88 84.9513 1013.17 84.9341 1013.44 85.0194L1013.56 85.0706L1014.75 85.6267V82.5715C1014.23 82.7198 1013.67 82.7992 1013.1 82.7992C1012.53 82.7992 1011.97 82.7198 1011.45 82.5715ZM1013.1 72.899C1010.97 72.899 1009.25 74.6227 1009.25 76.749C1009.25 78.8753 1010.97 80.599 1013.1 80.599C1015.23 80.599 1016.95 78.8753 1016.95 76.749C1016.95 74.6227 1015.23 72.899 1013.1 72.899Z" fill="#05192D"/>
<path d="M957 142.201H1069.2V155.401C1069.2 159.046 1066.25 162.001 1062.6 162.001H963.6C959.955 162.001 957 159.046 957 155.401V142.201Z" fill="#974DFF"/>
<path d="M987.262 154.852L984.5 147.724H983.065L980.293 154.852H981.718L982.421 153.03H985.134L985.837 154.852H987.262ZM983.144 151.169C983.392 150.555 983.58 150.03 983.768 149.456H983.778C983.986 150.03 984.174 150.555 984.411 151.169L984.659 151.812H982.897L983.144 151.169ZM988.987 152.357C988.997 153.941 990.195 154.911 991.63 154.911C993.046 154.911 994.046 154.03 994.046 152.763C994.046 151.664 993.383 150.991 992.046 150.654L991.234 150.446C990.7 150.307 990.541 150.01 990.541 149.723C990.541 149.337 990.888 148.921 991.502 148.921C992.106 148.921 992.521 149.357 992.521 149.951H993.818C993.818 148.723 992.947 147.664 991.561 147.664C990.294 147.664 989.185 148.506 989.185 149.713C989.185 150.674 989.868 151.426 991.026 151.713L991.858 151.921C992.383 152.05 992.69 152.367 992.69 152.782C992.69 153.208 992.343 153.644 991.63 153.644C990.848 153.644 990.324 153.178 990.314 152.357H988.987ZM996.05 152.357C996.06 153.941 997.258 154.911 998.693 154.911C1000.11 154.911 1001.11 154.03 1001.11 152.763C1001.11 151.664 1000.45 150.991 999.109 150.654L998.297 150.446C997.762 150.307 997.604 150.01 997.604 149.723C997.604 149.337 997.951 148.921 998.564 148.921C999.168 148.921 999.584 149.357 999.584 149.951H1000.88C1000.88 148.723 1000.01 147.664 998.624 147.664C997.357 147.664 996.248 148.506 996.248 149.713C996.248 150.674 996.931 151.426 998.089 151.713L998.921 151.921C999.445 152.05 999.752 152.367 999.752 152.782C999.752 153.208 999.406 153.644 998.693 153.644C997.911 153.644 997.386 153.178 997.376 152.357H996.05ZM1006.7 154.911C1008.7 154.911 1010.31 153.287 1010.31 151.288C1010.31 149.288 1008.7 147.664 1006.7 147.664C1004.7 147.664 1003.09 149.288 1003.09 151.288C1003.09 153.287 1004.7 154.911 1006.7 154.911ZM1006.7 153.594C1005.42 153.594 1004.41 152.565 1004.41 151.288C1004.41 150.01 1005.42 148.981 1006.7 148.981C1007.97 148.981 1008.99 150.01 1008.99 151.288C1008.99 152.565 1007.97 153.594 1006.7 153.594ZM1016 154.911C1017.78 154.911 1018.95 153.693 1019.18 152.347H1017.81C1017.57 153.129 1016.83 153.594 1016 153.594C1014.72 153.594 1013.72 152.565 1013.72 151.288C1013.72 150.01 1014.72 148.981 1016 148.981C1016.79 148.981 1017.59 149.515 1017.8 150.258H1019.17C1018.95 149.04 1017.81 147.664 1016 147.664C1014 147.664 1012.4 149.288 1012.4 151.288C1012.4 153.287 1014 154.911 1016 154.911ZM1021.58 147.724V154.852H1022.89V147.724H1021.58ZM1032.03 154.852L1029.26 147.724H1027.83L1025.06 154.852H1026.48L1027.19 153.03H1029.9L1030.6 154.852H1032.03ZM1027.91 151.169C1028.16 150.555 1028.34 150.03 1028.53 149.456H1028.54C1028.75 150.03 1028.94 150.555 1029.18 151.169L1029.42 151.812H1027.66L1027.91 151.169ZM1038.39 147.724H1032.79V149.04H1034.93V154.852H1036.24V149.04H1038.39V147.724ZM1040.56 147.724V154.852H1045.54V153.535H1041.88V151.941H1045.16V150.634H1041.88V149.04H1045.54V147.724H1040.56Z" fill="#05192D"/>
<g clip-path="url(#clip2_10078_202065)">
<path fill-rule="evenodd" clip-rule="evenodd" d="M993.052 109.835V112.07L990.745 113.423V108.473L993.052 109.835ZM993.798 114.531V112.517L996.886 110.704L996.135 110.261L993.798 111.633V109.611C993.797 109.473 993.726 109.347 993.61 109.278L990.797 107.619C990.79 107.614 990.782 107.611 990.775 107.607C990.607 107.523 990.41 107.534 990.253 107.635C990.095 107.737 990 107.915 990 108.106V113.789C989.999 113.981 990.095 114.159 990.252 114.261C990.41 114.363 990.608 114.374 990.775 114.29L990.796 114.279L993.05 112.955V114.758C993.05 114.896 993.122 115.023 993.238 115.092L996.13 116.779L996.881 116.337L993.798 114.531Z" fill="#03EF62"/>
</g>
<path d="M1003.22 115.589C1004.72 115.589 1005.79 114.62 1006.09 113.373H1005.1C1004.81 114.171 1004.07 114.656 1003.22 114.656C1001.92 114.656 1000.91 113.606 1000.91 112.305C1000.91 111.004 1001.92 109.954 1003.22 109.954C1004 109.954 1004.83 110.484 1005.07 111.228H1006.06C1005.79 110.062 1004.69 109.021 1003.22 109.021C1001.4 109.021 999.977 110.492 999.977 112.305C999.977 114.118 1001.4 115.589 1003.22 115.589Z" fill="white"/>
<path d="M1011.16 113.507C1011.17 113.409 1011.18 113.292 1011.18 113.166C1011.18 111.901 1010.27 110.851 1009.03 110.851C1007.75 110.851 1006.81 111.901 1006.81 113.22C1006.81 114.566 1007.74 115.589 1009.07 115.589C1010.5 115.589 1011.03 114.494 1011.1 114.055H1010.14C1010.05 114.324 1009.72 114.746 1009.07 114.746C1008.28 114.746 1007.85 114.198 1007.77 113.507H1011.16ZM1009.03 111.695C1009.72 111.695 1010.13 112.188 1010.23 112.807H1007.8C1007.92 112.179 1008.34 111.695 1009.03 111.695Z" fill="white"/>
<path d="M1014.33 110.851C1013.77 110.851 1013.35 111.112 1013.11 111.515V110.905H1012.17V115.535H1013.11V113.05C1013.11 112.161 1013.6 111.767 1014.3 111.767C1014.5 111.767 1014.68 111.794 1014.78 111.811V110.878C1014.68 110.869 1014.55 110.851 1014.33 110.851Z" fill="white"/>
<path d="M1017.41 114.719C1017.07 114.719 1016.85 114.566 1016.85 114.18V111.722H1018.03V110.905H1016.85V109.595H1015.91V110.905H1015.12V111.722H1015.91V114.198C1015.91 115.14 1016.42 115.589 1017.24 115.589C1017.56 115.589 1017.87 115.481 1018.03 115.419V114.548C1017.91 114.602 1017.65 114.719 1017.41 114.719Z" fill="white"/>
<path d="M1019.46 110.25C1019.83 110.25 1020.15 109.954 1020.15 109.577C1020.15 109.2 1019.84 108.904 1019.46 108.904C1019.08 108.904 1018.78 109.2 1018.78 109.577C1018.78 109.954 1019.08 110.25 1019.46 110.25ZM1019.91 110.905H1018.98V115.535H1019.91V110.905Z" fill="white"/>
<path d="M1022.55 110.905V110.475C1022.55 110.08 1022.82 109.9 1023.15 109.9C1023.38 109.9 1023.58 109.954 1023.71 110.008V109.147C1023.56 109.093 1023.25 109.021 1022.9 109.021C1022.11 109.021 1021.62 109.613 1021.62 110.457V110.905H1020.87V111.722H1021.62V115.535H1022.55V111.722H1023.74V110.905H1022.55Z" fill="white"/>
<path d="M1025.08 110.25C1025.46 110.25 1025.77 109.954 1025.77 109.577C1025.77 109.2 1025.47 108.904 1025.08 108.904C1024.7 108.904 1024.41 109.2 1024.41 109.577C1024.41 109.954 1024.7 110.25 1025.08 110.25ZM1025.54 110.905H1024.61V115.535H1025.54V110.905Z" fill="white"/>
<path d="M1030.95 113.507C1030.96 113.409 1030.97 113.292 1030.97 113.166C1030.97 111.901 1030.05 110.851 1028.81 110.851C1027.54 110.851 1026.6 111.901 1026.6 113.22C1026.6 114.566 1027.52 115.589 1028.86 115.589C1030.29 115.589 1030.81 114.494 1030.89 114.055H1029.93C1029.84 114.324 1029.5 114.746 1028.86 114.746C1028.07 114.746 1027.64 114.198 1027.56 113.507H1030.95ZM1028.81 111.695C1029.5 111.695 1029.92 112.188 1030.02 112.807H1027.58C1027.7 112.179 1028.12 111.695 1028.81 111.695Z" fill="white"/>
<path d="M1035.27 109.075V111.614C1034.97 111.174 1034.43 110.851 1033.8 110.851C1032.72 110.851 1031.78 111.856 1031.78 113.22C1031.78 114.584 1032.72 115.589 1033.8 115.589C1034.43 115.589 1034.93 115.347 1035.27 114.826V115.535H1036.2V109.075H1035.27ZM1034.02 114.683C1033.26 114.683 1032.71 114.028 1032.71 113.22C1032.71 112.413 1033.26 111.767 1034.02 111.767C1034.78 111.767 1035.27 112.413 1035.27 113.22C1035.27 114.028 1034.78 114.683 1034.02 114.683Z" fill="white"/>
<path d="M968.605 122.437V131.941H972.315C974.915 131.941 977.067 129.869 977.067 127.189C977.067 124.51 974.902 122.437 972.315 122.437H968.605ZM970.361 130.186V124.193H972.315C973.965 124.193 975.311 125.539 975.311 127.189C975.311 128.839 973.965 130.186 972.315 130.186H970.361ZM982.903 126.001C982.401 125.421 981.701 125.051 980.909 125.051C979.286 125.051 977.992 126.609 977.992 128.536C977.992 130.463 979.286 132.021 980.909 132.021C981.701 132.021 982.388 131.651 982.903 131.07V131.941H984.658V125.13H982.903V126.001ZM981.332 130.278C980.447 130.278 979.735 129.499 979.735 128.536C979.735 127.572 980.447 126.807 981.332 126.807C982.216 126.807 982.903 127.572 982.903 128.536C982.903 129.499 982.216 130.278 981.332 130.278ZM989.506 130.41C989.018 130.41 988.674 130.212 988.674 129.684V126.661H990.285V125.13H988.674V123.19H986.919V125.13H985.81V126.661H986.919V129.724C986.919 131.321 987.764 132.021 989.11 132.021C989.493 132.021 989.915 131.941 990.285 131.836V130.278C990.047 130.344 989.77 130.41 989.506 130.41ZM995.987 126.001C995.485 125.421 994.785 125.051 993.993 125.051C992.37 125.051 991.076 126.609 991.076 128.536C991.076 130.463 992.37 132.021 993.993 132.021C994.785 132.021 995.472 131.651 995.987 131.07V131.941H997.742V125.13H995.987V126.001ZM994.416 130.278C993.531 130.278 992.819 129.499 992.819 128.536C992.819 127.572 993.531 126.807 994.416 126.807C995.3 126.807 995.987 127.572 995.987 128.536C995.987 129.499 995.3 130.278 994.416 130.278ZM1003.5 122.437V131.941H1010.14V130.186H1005.26V128.061H1009.64V126.318H1005.26V124.193H1010.14V122.437H1003.5ZM1015.25 125.051C1014.47 125.051 1013.76 125.421 1013.36 126.028V125.13H1011.66V131.941H1013.41V128.153C1013.41 127.348 1013.98 126.807 1014.71 126.807C1015.42 126.807 1015.99 127.335 1015.99 128.14V131.941H1017.74V127.929C1017.74 125.975 1016.77 125.051 1015.25 125.051ZM1024.08 125.13V126.028C1023.58 125.407 1022.92 125.051 1022.06 125.051C1020.46 125.051 1019.16 126.609 1019.16 128.536C1019.16 130.463 1020.46 132.021 1022.06 132.021C1022.84 132.021 1023.55 131.677 1024.08 131.057V131.704C1024.08 132.733 1023.37 133.552 1022.39 133.552C1021.52 133.552 1020.93 133.116 1020.75 132.403H1018.93C1019.01 133.671 1020.25 135.189 1022.34 135.189C1024.33 135.189 1025.84 133.71 1025.84 131.704V125.13H1024.08ZM1022.51 130.291C1021.61 130.291 1020.91 129.499 1020.91 128.536C1020.91 127.572 1021.61 126.807 1022.51 126.807C1023.39 126.807 1024.08 127.572 1024.08 128.536C1024.08 129.499 1023.39 130.291 1022.51 130.291ZM1028.5 124.378C1029.13 124.378 1029.7 123.85 1029.7 123.19C1029.7 122.543 1029.16 122.028 1028.5 122.028C1027.84 122.028 1027.33 122.543 1027.33 123.19C1027.33 123.85 1027.84 124.378 1028.5 124.378ZM1029.37 125.13H1027.62V131.941H1029.37V125.13ZM1034.78 125.051C1034 125.051 1033.29 125.421 1032.89 126.028V125.13H1031.19V131.941H1032.94V128.153C1032.94 127.348 1033.51 126.807 1034.24 126.807C1034.95 126.807 1035.52 127.335 1035.52 128.14V131.941H1037.27V127.929C1037.27 125.975 1036.3 125.051 1034.78 125.051ZM1045.11 129.024C1045.12 128.905 1045.14 128.707 1045.14 128.509C1045.14 126.609 1043.74 125.051 1041.97 125.051C1040.1 125.051 1038.6 126.569 1038.6 128.536C1038.6 130.542 1040.06 132.021 1042.02 132.021C1044.2 132.021 1044.94 130.305 1045.02 129.711H1043.26C1043.13 130.08 1042.71 130.476 1042.02 130.476C1041.01 130.476 1040.53 129.829 1040.43 129.024H1045.11ZM1041.97 126.595C1042.76 126.595 1043.21 127.123 1043.36 127.849H1040.48C1040.64 127.123 1041.14 126.595 1041.97 126.595ZM1052.72 129.024C1052.73 128.905 1052.74 128.707 1052.74 128.509C1052.74 126.609 1051.34 125.051 1049.58 125.051C1047.7 125.051 1046.21 126.569 1046.21 128.536C1046.21 130.542 1047.66 132.021 1049.63 132.021C1051.81 132.021 1052.55 130.305 1052.62 129.711H1050.87C1050.74 130.08 1050.31 130.476 1049.63 130.476C1048.61 130.476 1048.14 129.829 1048.03 129.024H1052.72ZM1049.58 126.595C1050.37 126.595 1050.82 127.123 1050.96 127.849H1048.08C1048.24 127.123 1048.74 126.595 1049.58 126.595ZM1057.65 125.051C1056.87 125.051 1056.21 125.368 1055.8 126.041V125.13H1054.04V131.941H1055.8V128.562C1055.8 127.308 1056.44 126.767 1057.46 126.767C1057.9 126.767 1058.24 126.833 1058.4 126.859V125.104C1058.24 125.091 1057.99 125.051 1057.65 125.051Z" fill="white"/>
</g>
</g>
<defs>
<filter id="filter0_dd_10078_202065" x="952.05" y="26.7" width="122.1" height="141.902" filterUnits="userSpaceOnUse" color-interpolation-filters="sRGB">
<feFlood flood-opacity="0" result="BackgroundImageFix"/>
<feColorMatrix in="SourceAlpha" type="matrix" values="0 0 0 0 0 0 0 0 0 0 0 0 0 0 0 0 0 0 127 0" result="hardAlpha"/>
<feMorphology radius="1.65" operator="erode" in="SourceAlpha" result="effect1_dropShadow_10078_202065"/>
<feOffset dy="1.65"/>
<feGaussianBlur stdDeviation="3.3"/>
<feColorMatrix type="matrix" values="0 0 0 0 0.0196078 0 0 0 0 0.0980392 0 0 0 0 0.176471 0 0 0 0.3 0"/>
<feBlend mode="normal" in2="BackgroundImageFix" result="effect1_dropShadow_10078_202065"/>
<feColorMatrix in="SourceAlpha" type="matrix" values="0 0 0 0 0 0 0 0 0 0 0 0 0 0 0 0 0 0 127 0" result="hardAlpha"/>
<feOffset/>
<feGaussianBlur stdDeviation="0.825"/>
<feColorMatrix type="matrix" values="0 0 0 0 0.0196078 0 0 0 0 0.0980392 0 0 0 0 0.176471 0 0 0 0.3 0"/>
<feBlend mode="normal" in2="effect1_dropShadow_10078_202065" result="effect2_dropShadow_10078_202065"/>
<feBlend mode="normal" in="SourceGraphic" in2="effect2_dropShadow_10078_202065" result="shape"/>
</filter>
<filter id="filter1_d_10078_202065" x="968.147" y="57.3095" width="89.9051" height="89.9051" filterUnits="userSpaceOnUse" color-interpolation-filters="sRGB">
<feFlood flood-opacity="0" result="BackgroundImageFix"/>
<feColorMatrix in="SourceAlpha" type="matrix" values="0 0 0 0 0 0 0 0 0 0 0 0 0 0 0 0 0 0 127 0" result="hardAlpha"/>
<feOffset dy="22.762"/>
<feGaussianBlur stdDeviation="14.2263"/>
<feComposite in2="hardAlpha" operator="out"/>
<feColorMatrix type="matrix" values="0 0 0 0 0 0 0 0 0 0.0313726 0 0 0 0 0.12549 0 0 0 1 0"/>
<feBlend mode="normal" in2="BackgroundImageFix" result="effect1_dropShadow_10078_202065"/>
<feBlend mode="normal" in="SourceGraphic" in2="effect1_dropShadow_10078_202065" result="shape"/>
</filter>
<linearGradient id="paint0_linear_10078_202065" x1="307.545" y1="240.086" x2="505.8" y2="321.019" gradientUnits="userSpaceOnUse">
<stop stop-color="#974DFF"/>
<stop offset="1" stop-color="#05192D"/>
</linearGradient>
<linearGradient id="paint1_linear_10078_202065" x1="308.684" y1="162.403" x2="317.709" y2="73.067" gradientUnits="userSpaceOnUse">
<stop stop-color="#974DFF"/>
<stop offset="1" stop-color="#05192D"/>
</linearGradient>
<linearGradient id="paint2_linear_10078_202065" x1="13.6873" y1="28.5287" x2="57.4554" y2="213.187" gradientUnits="userSpaceOnUse">
<stop stop-color="#974DFF"/>
<stop offset="1" stop-color="#05192D"/>
</linearGradient>
<linearGradient id="paint3_linear_10078_202065" x1="5.54523" y1="-2.99998" x2="145.366" y2="-30.2698" gradientUnits="userSpaceOnUse">
<stop stop-color="#974DFF"/>
<stop offset="1" stop-color="#05192D"/>
</linearGradient>
<linearGradient id="paint4_linear_10078_202065" x1="23.6778" y1="68.021" x2="187.133" y2="68.021" gradientUnits="userSpaceOnUse">
<stop stop-color="#974DFF"/>
<stop offset="1" stop-color="#05192D"/>
</linearGradient>
<linearGradient id="paint5_linear_10078_202065" x1="393.661" y1="-96" x2="355.412" y2="57.6174" gradientUnits="userSpaceOnUse">
<stop stop-color="#974DFF"/>
<stop offset="1" stop-color="#05192D"/>
</linearGradient>
<linearGradient id="paint6_linear_10078_202065" x1="4.9115" y1="79.5664" x2="-18.6637" y2="-79.0752" gradientUnits="userSpaceOnUse">
<stop stop-color="#974DFF"/>
<stop offset="1" stop-color="#05192D"/>
</linearGradient>
<linearGradient id="paint7_linear_10078_202065" x1="1013.1" y1="44.8496" x2="1013.1" y2="101.775" gradientUnits="userSpaceOnUse">
<stop stop-color="white" stop-opacity="0.24"/>
<stop offset="1" stop-color="#05192D"/>
</linearGradient>
<linearGradient id="paint8_linear_10078_202065" x1="1013.1" y1="56.4004" x2="1013.1" y2="102.6" gradientUnits="userSpaceOnUse">
<stop stop-color="white" stop-opacity="0.24"/>
<stop offset="1" stop-color="white" stop-opacity="0"/>
</linearGradient>
<clipPath id="clip0_10078_202065">
<rect width="1128" height="191" fill="white"/>
</clipPath>
<clipPath id="clip1_10078_202065">
<rect width="73.649" height="15.3893" fill="white" transform="translate(851.351 120.199)"/>
</clipPath>
<clipPath id="clip2_10078_202065">
<rect width="7.04252" height="9.39003" fill="white" transform="translate(990 107.551)"/>
</clipPath>
</defs>
</svg>
